<svg width="720" height="640" viewBox="0 0 720 640" fill="black" xmlns="http://www.w3.org/2000/svg">
  <g xmlns="http://www.w3.org/2000/svg" fill="none" fill-rule="evenodd">
    <rect width="720" height="640"/>
  </g>
<g transform="translate(120, 80)"><path xmlns="http://www.w3.org/2000/svg" d="M214.5 70.5s-8 1.5-11.9 7.8c-3.5 5.6-4.1 14.3 4.6 21.5 4.9 4.1 12.4 5.5 17.7 3.3 13.6-5.5 9.1-20.4 9.1-20.4l-10.1-9.6-9.4-2.6z" fill="#b23031"/><path xmlns="http://www.w3.org/2000/svg" d="M226.3 78.8l-7.5 24.5-2.2 5.7s3.2 4.1 10.8 5.7c5.2 1.1 8.7 1.2 11 1 1.9-.2 4.2-.6 3-4.1-1.7-5.2-1.1-8.5-1.1-8.5l2.7-14.7-16.7-9.6z" fill="#ea9d7d"/><linearGradient xmlns="http://www.w3.org/2000/svg" id="hd-A" gradientUnits="userSpaceOnUse" x1="229.374" y1="95.734" x2="236.246" y2="86.885"><stop offset="0" stop-color="#bc5a32" stop-opacity="0"/><stop offset=".99" stop-color="#bc5a32"/></linearGradient><path xmlns="http://www.w3.org/2000/svg" d="M225.1 92c2.5 3.8 6.9 7 9.4 8.2 3.5 1.7 6 2.1 6 2.1l2.2-12.2-16.4-11.3-.9 1.7-.7 2.8c-.1.1-1.9 5.2.4 8.7z" fill="url(#hd-A)"/><use xmlns="http://www.w3.org/2000/svg" xmlns:xlink="http://www.w3.org/1999/xlink" xlink:href="#hd-F" fill="#cf7653"/><g xmlns="http://www.w3.org/2000/svg" fill="#a84d3b"><path d="M229.1 84.6l.2.5.4-.4z"/><path d="M229.1 84l-.3.9 1.1-.2zm5.3 3.8v1.1l1.1-.5zm-2.7-1.7l-.1 1.1 1.1-.4zm-1.5-1.1l-.2 1.1 1.2-.3z"/><path d="M228.4 83l-.4 1h1.2zm7.5 7.2l-.5-.6-.4.7zm-1.4-1.1l-.6-.8-.3.9zm4.1 2.1l-.7-.7-.2.8zm3 1.1l-.7-.8-.3.9zm-5.3-3.6l-.6-.3v.9zm1.4 3.1l-.5-.5-.3.7zm-3.9-4l-.6-.4-.1.9zm5.3 2.1l-1-.4.1 1.2zm1.9.3l-.8-.1.2.9zm1.3 1.6h-.8l.3.7zm-2.8-.2l-.3-.7-.5.7zm2.4 2.3l.1-.7-.8.2zm-.2 1.3l.1-.7-.8.2zm-1.7 0l-.4.3.5.3zm.3-3.9l-.4.4.6.3zm2.3-.7l-.6-.1.2.6zm-1.9 5.8l-.4.3.6.3zM230.8 86l-.4.3.5.3zm6.7 4.8l-.3-.3-.1.5zm-2.8-.8l.1-.4h-.5zm1.4.9l.2-.4h-.5zm2.1 2l.2.5.5-.4zm2.9-2l-.3.3.4.2z"/><path d="M241.3 90.4l-.5.4.6.3zm-1.2.4l-.4.3.4.2zm.4 7.1l-.4.2.4.3zm-1.1-1.1l.2.4.3-.4zm-.1-2.4l.2.4.3-.4zm1.9.9l-.3-.2-.1.4zm-13.9-4.7l.2.2.2-.3zm1.9-1.2l-.2.2h.3zm2 3.5l-.3-.1.1.4zm-1-1.7l-.2.3h.4zm6.9 3.2l-.1.6.6-.3zm-.9-4.5v.5l.5-.2zm0-1v.5l.6-.3zm-7.7-3.1v.6l.5-.3zm12 7.3l-.5.1.4.4zm-1.5 4.2l-.2-.4-.4.4zm.3-5.2l.3.4.3-.5zm1.6.6l.3.5.3-.6zm1-1.9l-.3.4.5.1zm-.6 3.2l-.4-.3v.6zM230 85.1l-.6.4.7.4zm-2 .8l-.3-.3-.1.5zm-2-1l-.2-.2-.1.4zm-.5 3.1l.1-.4h-.4zm3.8-2.2l.2.4.4-.4zm-1.2-1l.3.6.5-.5zm-.2-2.7l-.4.6.8.1zm3 4.8l-.3.2.4.3zm.8-.4l-.3.2.4.2zm.8.4l-.3.2.3.3zm-1.5 2.7l-.2-.2-.1.4zm-6-3.4l.2.3.3-.4zm2.3-2.3l-.3.2.4.2zm-.1 3.7l-.3-.2-.1.4zm.3-4.1l.2.3.3-.4zm1 .5l.2.4.3-.4zm-2.3-1l-.3.3.4.1zm.3-1l-.3-.2-.1.4zm5.3 5.5v.4l.5-.2zm1.9.8l-.4.1.3.3zm-.8-.8l-.4.1.3.3zm6.7 3l-.4.1.3.3zm-1.5-.6l-.3.1.2.3zm-4.7.7l-.1-.3-.3.3zm5.6 5l-.1-.3-.3.3zm-6.1-6l-.2-.3-.3.3zm2.6-.6v.5l.4-.2zm1.6.4v.4l.4-.2zm1.8.9l-.4.1.3.3zm-1.4 2l-.2-.3-.2.3zm-4.3-.1v.4l.4-.2zm1.9-1l-.3.1.2.3zm3.4.8l-.1-.3-.3.3z"/></g><path xmlns="http://www.w3.org/2000/svg" d="M251.1 53.1c2.2 2.8 2.9 5.2 3.3 8.1l.3 5.4c0 4.2-.3 10.1-.8 13.4-1 5.7-3.7 9.1-6.9 10.1s-9-1.1-12.9-3.1c-3.3-1.7-5.2-3.5-5.7-5.6-.5-2.2-1.5-5-1.5-5l-5.7-3.9s-4.4-15.1 5.3-21.6c8.4-5.6 20.7-2.7 24.6 2.2z" fill="#ea9d7d"/><path xmlns="http://www.w3.org/2000/svg" d="M243.6 90.6c-1.1 0-2-.2-4-.7-3.2-.8-7.7-3.3-10-5.5-2.2-2.2-2-4.3-2-4.4 0-.2 0-.5.2-.5s.3.2.4.4c.1.4.1 2.1 1.9 3.9 2.1 2.1 6.6 4.5 9.6 5.3 3.1.7 3.7.9 6 .7 2.2-.2 3.4-.9 3.4-.9.4-.3.5-.3.3 0-.2.2-1.4 1.2-3.6 1.6-1 .1-1.5.1-2.2.1z" fill="#b76349"/><path xmlns="http://www.w3.org/2000/svg" d="M238.4 68.4a.78.78 0 0 1-.2-1c.1-.1 1.7-2.5 5.3-2.2.4 0 .7.4.7.8s-.4.7-.8.7c-2.7-.2-3.8 1.5-3.9 1.6-.3.4-1 .2-1.1.1zm14.9-1.8c-.1 0-.3 0-.4-.1-.7-.5-1.5-.4-1.6-.4-.4.1-.8-.2-.9-.6s.2-.8.6-.9c.1 0 1.5-.4 2.8.7.3.2.3.7.1 1-.1.2-.4.3-.6.3z" fill="#b4603f"/><path xmlns="http://www.w3.org/2000/svg" d="M209.9 65.5c1.9 4.8 6.1 4.6 6.1 4.6s2.4-4.3.9-7.5c-1.2-2.7-4.8-4.3-6.2-4.8-.3-.1-.6 0-.7.3-.4 1.3-1.2 4.7-.1 7.4z" fill="#ffb600"/><path xmlns="http://www.w3.org/2000/svg" d="M212 65.5c1.3 3.8 3.3 3.3 3.3 3.3s1.5-1.6-.1-4.8c-.6-1.2-2.5-2.5-3-2.7-.1 0-.3 0-.3.1-.2.6-.3 2.9.1 4.1z" fill="#ffa300"/><path xmlns="http://www.w3.org/2000/svg" d="M208.6 73.5c5.2.3 6.7-3.6 6.7-3.6s-2.9-4-6.5-4c-2.9 0-5.9 2.6-6.9 3.6-.2.2-.2.5 0 .7 1.1 1 3.8 3.2 6.7 3.3z" fill="#ffb600"/><path xmlns="http://www.w3.org/2000/svg" d="M244 84.4h0c-3.8-.2-5.4-2.9-5.8-4.4-.1-.4.1-.8.5-.9s.8.1.9.5c0 .1.8 3.1 4.4 3.3.4 0 .7.4.7.7 0 .5-.3.8-.7.8z" fill="#cf7653"/><path xmlns="http://www.w3.org/2000/svg" d="M247.2 78.9h-.2c-.4 0-.6-.4-.6-.7 0-.4.4-.6.7-.6.2 0 .7 0 .9-.6s-.3-1.5-.5-1.8-.2-.7.1-.9.7-.2.9.1c.1.2 1.2 1.6.8 3-.4 1.2-1.5 1.5-2.1 1.5z" fill="#b4603f"/><g xmlns="http://www.w3.org/2000/svg" fill="#4f2b23"><circle cx="242" cy="72.1" r="1.4"/><path d="M241.7 71.7c-.2 0-.8.2-.9 0-.1-.3.4-.9.7-1 1-.5 1.8-.4 2.1-.4a.47.47 0 1 1 0 1c-.3 0-.9 0-1.7.3-.1.1-.1.1-.2.1z"/><circle cx="252.4" cy="71.3" r="1.4"/><path d="M252.1 70.9c-.2 0-.9.2-1 0-.1-.3.5-.8.8-1 1-.5 1.8-.4 2.1-.4a.47.47 0 1 1 0 1c-.3 0-.9 0-1.7.3-.1.1-.1.1-.2.1z"/></g><g xmlns="http://www.w3.org/2000/svg" fill="#f4b9a6"><path d="M244.8 76.5l.6-.4-.7-.4zm-7.6-1l-.2-.5-.5.5zm9.7.4h.9l-.5-1zm-1.6-3.1l.6.5.2-.8zm.4-.9l.9-.5-.8-.6zm1.6 8.1l.8-.4-.7-.7zm2.3-.9l.4-1h-1zm-5-3.4l-.7.1.4.7z"/><path d="M245.2 74.8l-.8.1.5.6zm-.5 3.7l.2.7.7-.5zm.2 1.4l.6.4.2-.7zm3.4 2.5l-.7.1.5.6zm-1.5-15.3l-.3.5h.8zm.3 4.4l-.6-.2.2.7zm.8-2.1l-.6-.2.2.7zm-4.2 2.8l-.2.6.8-.1zm.8-3.1l-.7.3.7.5zm-2.9.7l-.4.1.2.4zm5.5 12.4l-.6.2.3.5zm-.7-.4l-.6.1.4.6zm-4.9-4.3h-.6l.3.6zm1.4 1.3h-.6l.3.6zm-1.7-3.4l-.2.6.8-.2zm3.2-.4l-.1-.5-.6.5zm6 5.8l.3-.4-.6-.1zm-2.2-1.9l.3.1.1-.4zm4.1-3.9v.5l.3-.2zm-2 1.9l.4.1v-.5z"/><path d="M252.4 75.8l.2-.4h-.5zM240 71.2l-.3.4.5.1zm5.9-2.3l.8-.1-.5-.7zm-.1 8.8l.9-.1-.6-.8zm-.6-5.8l-.6-.1.1.6zm-4.9 3.9v-.6l-.7.3zm4-5.6v.7l.8-.4zm-.9 1.3v.7l.9-.3zm.7-.5v.7l.8-.4zm6 .2l.5.3.1-.7zm-5 2.8l-.3-.4-.4.5zm2.3 7.6l-.5.1.4.5zm-2.4-4l-.2.4.6-.1zm.4 3l-.2-.5-.3.5zm.9.5l.4-.3-.6-.2zm.3-1l.4-.3-.5-.4zm-.2-.8l.5-.3-.6-.4zm0-2.6l.5-.3-.6-.4zm-1.2.1l.4.4.2-.5zm4.9 4.6l-.6.1.4.5zm-2.4-5.2l-.2.4.4.3zm.9 5.5l-.3-.4-.3.4zm-3.2 1.5v.6l.7-.3zm-1.2-3l-.6.2.4.4zm-5-6.3l-.3-.4-.3.5zm5.2 7.7l.3.2.2-.6zm-1.5-1.2l.4.3.1-.6zm-1.1 3.9l-.3.4h.6zm-.8-.7l-.5-.1.1.5zm-1-.2h-.5l.1.5zm5.7-7.7l1-.2-.8-.9zm-.6-2.5l.2.5.4-.5z"/><path d="M245.1 74.1l.4.9.8-.9zm2.7-1.1l-.8.7 1 .3zm-6.7 1l.1-.4-.6.2zm6 0l-.3.3.5.2zm-1.7-3.3l.6-.1-.4-.5zm3.8 1.7l.6-.1-.4-.6zm-4.2-.3l.6-.1-.4-.6zm4.6-2.6l.6-.1-.4-.5zm-2-1.5l-.5.2.6.3zm-5 1.3l.1-.4-.6.2zm0 7.9l-.1.7.8-.2zm-.9-.5l-.6.1.3.6zm1 2.9l-.1.6.7-.2zm1.2-2.6v.7l.7-.3zm-.8 1.3v.8l.9-.4zm-.6-2l.1-.6-.6.3zm8.2-3.5l.6-.1-.4-.5zm-2.1-2.2l.2.4.4-.4zm3.9 7.4l.5-.2-.4-.3zm-8.7-8.7v-.4l-.5.2zm3.6 1.5l-.1.6.7-.2zm-.7-1.2l-.1.6.7-.2zm1.5 4.5l.8.6.4-1zm1.2 1.6l1-.2-.6-1zm-3.4.3l.4.1-.1-.3zm0-2.5l-.2.4.6.1zm1.2-1.2h-.6l.4.6zm1.9.4l-.6.1.3.6z"/><path d="M247.3 73l1-.5-1-.7zm1.7-4.4l.4-.6-.8-.1zm-3 9.9l.4-.6h-.8zm.3-4.4l.9-.4-.9-.6zm1.3-4.1l.3.3.2-.5zm1.2 1.1l-.7.8 1.3.2zm1-1.2l-.3.4.6.1zm.3 3.9l.3.4.3-.5zm-1.3-4.5l-.3.4h.6zm-8.3 4.4l-.6.2.5.5zm2.9-.8l-.4.5h.7zm-.5.8l-.1-.4-.5.3zm-.7.5v-.4l-.5.3z"/></g><use xmlns="http://www.w3.org/2000/svg" xmlns:xlink="http://www.w3.org/1999/xlink" xlink:href="#hd-F" x="-0.2" fill="#cf7653"/><linearGradient xmlns="http://www.w3.org/2000/svg" id="hd-B" gradientUnits="userSpaceOnUse" x1="240.021" y1="64.404" x2="236.191" y2="59.097"><stop offset="0" stop-color="#bc5a32" stop-opacity="0"/><stop offset=".99" stop-color="#bc5a32"/></linearGradient><path xmlns="http://www.w3.org/2000/svg" d="M231 70.6l8.2-5.5c5.5-2.6 13.3-2.1 13.3-2.1l-6.8-4.7H236l-5 12.3z" fill="url(#hd-B)"/><path xmlns="http://www.w3.org/2000/svg" d="M227.4 81.4l-.4.3.5.3z" fill="#a84d3b"/><path xmlns="http://www.w3.org/2000/svg" d="M217.8 68.6s-2.6-18.2 14.1-21.8 21.4 7.3 22.2 8.9 1.3 5.2 1.2 6.7-.9 1.5-.9 1.5-6.8.1-11.8-2.2l-5.8-2.4s.1 4.7-1.8 8.7-3.5 4.9-6 4.3c-2.4-.5-7.3.3-7.3.3s-3.9 0-3.9-4z" fill="#b23031"/><path xmlns="http://www.w3.org/2000/svg" d="M210 71.4c4 .2 4.3-1.8 4.3-1.8s-.9-2-4.5-1.8c-1.3.1-3.3 1.3-3.7 1.8-.1.1-.1.2 0 .3.5.4 2.6 1.5 3.9 1.5z" fill="#ffa300"/><linearGradient xmlns="http://www.w3.org/2000/svg" id="hd-C" gradientUnits="userSpaceOnUse" x1="223.873" y1="80.955" x2="216.716" y2="66.436"><stop offset=".007" stop-color="#ff7a00"/><stop offset=".983" stop-color="#ffb600"/></linearGradient><path xmlns="http://www.w3.org/2000/svg" d="M213.5 72.4l11 8.2 2.2-6.5-9.4-7.5c-.4-.3-.9-.2-1.1.2l-2.9 4.8c-.1.3 0 .6.2.8z" fill="url(#hd-C)"/><g xmlns="http://www.w3.org/2000/svg" fill="#d3505d"><path d="M249 49.4l-.3 1.2 1.3-.3-.5-.5zm-21.7-1l1 .7.2-1.3zm23.5 2.6l-.2.9.9-.2zm-3.3-1.4l-1.2.6 1.1.9zm-13.8-2.2l.1.6.6-.2zm-8.7 3.1l.1.8.7-.4zm1.2.1l.2.8.7-.5zm-1.4 1.5l1.5.2-.3-1.5zm3.1-2l-.7.9 1.1.4zm-4.5 2.2h1.1l-.3-1.3zm26.1-.2l-.4.3.6.2zm-1.3.4l-.4.4.6.1zm-12.7-5l-.2.4.5.1zm10.8 2.3l.4-.4-.7-.3zm5.4 2.1l-.3.5.5.1zm-1.9-.5l-.7-.3.1.9z"/><path d="M246.3 50.3l-.5-.5-.3.8zm2.2.2l-.5-.5-.3.8zm-11.6-3.6l-1.1.2.2.8zm-1.6.3l.1-.8-.9.4zm-2.9-.1l-.8-.1.1.9zm1.4 0l-.7-.1.1.9zm-6.8 2.2l-.8-.1.4 1.1zm-1.2 1.3l.2-.9-1 .3zm3.9-3.1l-1 .3.4.8zm-2.6 2.1l1 .1-.4-1.2z"/><path d="M226.6 50.3l1.1.3-.3-1.3zm1.1-.1l1 .5.1-1.3zm22.6 1.3l.1-.9-.9.4zm-14.7-5.3l.6.9.5-1zm-1.9.4l.6.8.4-1zm-1.6.2l.7.8.5-1zm-8.5 4.1l1 .5-.1-1.2zm3.5-2.4l-.6.3.6.6z"/><path d="M225.2 49.6l-.7.5.7.4zm-1.5 1.2l-.5.5.6.3zm25.3 3l-.2.3h.5zm-1.4 0l-.2.3h.5zm3.5-1.3l-.3-.1.1.4zm-1.2-.6l.3.4.2-.6zm-1.7-.4l.4.4.1-.6zm-13.6-4.1l.3.3.2-.5zm14.6 5.4l-.1.4.4.1zm-17.9 2.3l-.2.4h.5zm17.2-6l-.7.5.9.6zm-1.2 3.8l-.4-.3-.1.4zm.4-1l.3.1-.1-.4zm-2.7-.4l.5.1-.1-.7zm2.5-2.2l.6-.5-.7-.4zm-2.9 2.7l-.1.4.4-.1z"/><path d="M247.1 49.6l.4-.6-.8-.3zm-16.2-1.9l.2-.7-.9.3zm-4.7 2l-.1-.7-.8.5zm23.7 3.9l.2.3.3-.3zm-3.6-.3h-.4l.1.4zm-16.1 1l-.3.2.4.2zm13.7-2.3h-.3l.1.4zm7.7 1.8l.5.3v-.6zm-.5-.6l.5.2v-.6zm-14.8-.7V52l-.5.3zm-6.2-5.1l-.7 1.3 1.2-.2zm6.1 1.1l-.1-.9-.9.5zm-5.2 3.2l-.4.9.9.1zm3.2-.1l-.3.6.7.1zm-2.1 1.8l.4.1v-.4zm-2.2-1.5v.3h.4zm3.8 1l-.3.1.2.2zm-1.6-.8l-.1.6.7-.3zm3.9 2l-.4.1.3.3zm-7.3-.1l.7.6.3-.8zm2.7-6.7l-.8.9 1.4.4v-.7zm-.3 1.6l-.4.8.9.2-.1-.7zm.7 1.1l-.7-.1-.5.4.8 1.1zm-7.1 5.7l-.5.8h1zm6.3-7.2l-1.3.3.8.6zm-1.7.1l-.6.2-.3.7 1.2.3zm5.8-.9l-1.2.3.9 1.1z"/><path d="M235.9 48.5h-1.1l.9.8zm.2 1.2l-.8-.4-.1 1.1zm-5.9 1l-1.2-.6-.2.8.4.4zm-.6.9h-.9l.4.9zm-1.4 0l-1.3-.2.3 1.3zm6.5-.7l-.1-1-1 .4zM233 52l.6-.8-1-.3zm-5 2.9l.5-.5-.9-.3z"/><path d="M228.7 56.3l.3-.7h-.8zm-.3-3l.7.1v-.7zm4-1.7l-.6-.7-.5.9zm-1.7-2l-1-.2.5 1.3zm2.9-1.8l-1.1.7.7.5zm.2 1.7l-.6.4.4.6zm-1 .3l-.4.7.8.2zm-1.4 3.6l-.4-.1.1.4zm-1.1-.7l-.7-.3.1 1zm1.6-1.8l.4.2.2-.5zm.3-3.1l.3.4.4-.3zm2.6 1.5l-.7-.4-.2.9zm-4.3 1.8h-.8l.4.9zm-1.9.7l-.8.3.7.6zm5.2-3l-.2-.3-.2.5zm10.4 4l-.1.4.5-.1z"/><path d="M235.5 52.9l-.2.3.3.2zm-.2-1.6l.2.5.3-.4zm-2-.9l-.1-.5-.5.3zm-.6-1.6l-.6.6v.4l1-.2zm-.6-.4l-.1.5.3-.2zm1.8 1.6l-.1.3.4-.1zm-.7 2.3l-.1.4.4-.2zm.8-4.4l-.4-.1.1.4zm12.9 3.7l.2-.5h-.5zm-.9 1l.1-.5-.5.1zm-15.9 3l-.1-.5-.5.4zm15.9-5.3v.6l.5-.3zm-12.7-1.4l.3.3.2-.4zm13 2.8l-.3-.4-.2.4zm-13.2 2.7h-.5l.2.5zm1.3-3.4l-.2.3.4.2zm-.7-.1l-.3-.1-.1.4zm-4 5.1l-.2.5.5.1zm12-2.2l-.2.4h.5zm.7-1.8l.5.2-.1-.4zm-.7.1l-.4-.2.2.5zm1.7 1h-.4l.2.4zm-17.8 5l-.5-.2v.5zm1.5-.5l-.6-.3v.8zm-2.8-3.9l.6.7.6-.9zm1.8-1.2l.3.4.4-.6zm.7.9l.3.5.4-.6zm-7.7 4.1l-.3.8.9-.2zm4.6.3l.9-.2-.6-.8zm-2.2 0l.8-.2-.6-.8zm2.5 1.1l.3.3.2-.3zm-2.4 4.3l.2.3.3-.3zm1.1-2.4l.3.4.2-.3zm4.7-8.1l.8.9.7-1.3zm-1.6 2.3l1.2-.4-1-1.1zm-3-.7l1-.3-.7-.9z"/><path d="M225.7 52.6l-.5.6.9.4zm1.7 2.3h-.5l.3.6zm-4.3 1.8l.6.1-.2-.6zm-1.1-1.8l.1.5.4-.3zm-1.1.3l-.1.5.6-.1zm5.4.4l-.8.5.8.5zm10-5.4l-.8.2.7.7zm4.2-2.9l-.2.6.8-.1zm1.8.3l-.4.3.5.2zm.9.3l-.6-.3-.1.9zm-1.1-.4l.3-1-1 .4zm-3.2-1.3l-.8-.1.3.9zm1.8.7l-.7-.4-.1.9zm1.9-.3l.3 1 .8-.8zm-2.1-.4l.4 1.1.7-.9zm-1.5-.1l.4 1 .8-.9z"/><path d="M241.3 47.6l.3.4.3-.5zm-4 5.8l-.3.4.5.1zm.3-6.6l.3-.7h-.9zm4.1 4.6l.1-.4h-.5zm.8-2.3l.2-.9-1 .2zm.2.5l.9-.2-.6-.9zm-6 1.1l-.7.7.9.3zm3.1.8l-.5.5.6.2zm-2.6 1l.3.3.1-.4zm1.7.1l-.3-.1.1.4zm-1.3-1.3l-.3.6.8-.1zm3.2 3h-.4l.1.4zm-2.8-7.5l-.7.5.8.6.2-.5zm-.4 1.2l-.7.6.8.5.2-.7zm-.4 1l-.3-.2-.4.1.3.8zm.3-1.5h-1.3l.6.8z"/><path d="M241.8 48l-1.4-.1.6 1.4z"/><path d="M242.2 49l-1-.3.6 1zm-.1 1.2l-.7-.6-.4 1zm-1.7.7l.2-1-1 .2zm-2.4.4l.8-.5-.9-.6zm-.2-1.1l-.5-1-.7.8zm2.5-2.5l-1.3.3.5.7zm-.4 1.7l-.6.1.2.7zm-1-.1l-.6.6.7.4z"/><path d="M236.8 52.9l-.4-.3v.5zm.9-2.8l.3.4.3-.5zm1-3.3l-.2.9 1.2-.4zm2.2 2.7l-.5-.7-.4.9zm2.9-1.6l-.2.6.7.1zm1.7.7l-.4.2.4.3zm.9.5l-.6-.5-.3.9zm-1.1-.6l.6-.9-1.1.1z"/><path d="M244.1 47.5l-.5-.4-.3.8zm2 .2v1.1l1-.7zm-2-.8l.2 1.1.9-.7zm.5 1.5l.1.4.4-.4zm.9 1.7l.3-.8h-1zm-.6-1.2l-1.2-.4.2 1.5z"/><path d="M245.2 49.9l-1-.4.4 1zm-.4 1.2l-.6-.8-.6 1zm-1.9 0l.2-.5h-.6zm.9-1l-.3-.7-.7.7zm-3.5-1.3l-.2-.7-.6.9zm.4 4.3l-.4.2.2.3zm.2-1.6v.5l.5-.3zm-1.6-1.5v-.5l-.6.2zm-.2-1.6l-.8.3v.4l.9.1zm-.5-.8l-.4.8.7-.1zm1.3 2.3l-.1.2h.4zm-1.3 1.9l-.2.4h.4zm.3 2l-.4-.1v.5zm1.2-2.9l-.3.3.4.2zm-.7-.2l-.2-.3-.2.4zM221.6 55l.1-1-1 .3z"/><path d="M221.9 56.1l-.8-.4-.1 1zm-.9-.7l-.5-.8-.5.9zm-.5 1.1l.4-.8-1.1.1zm3.1-2.6l.5-.2-.4-.5zm-.8.3l-.8.1.5.7zm-1.7-.6l.4.6.4-.6zm3.3-1.7l-.6 1.1 1.5.2zm-1.4 5.4h.3l-.1-.4zm-2.5 1l.3.2.1-.4zm-.6-.7l.4.4.3-.7zm5.2-2.9l-.8.4.7.6zm-1.5.3l.5-.1-.3-.5zm-1.2-3l1 .5-.3-1.2zm.3 3.1l.3.8.7-.7zm-1.3-1.9l1.1.2-.3-1.2zm-2.2 4.1l1-.3-.5-.8z"/><path d="M224.2 55.6l-.5.1.4.4zm.5 2.4l-.3.2.2.3zm-5.4 7.4l-.3.1.3.3zm3.1-12.5l.9.2-.3-1zm4.6 3.8h.4l-.1-.5zm-6.4.9l.4.5.4-.6zm1.5-1.4v.6l.7-.2zm-1.9.3l.4.5.3-.6zm-.7.8l.5.5.3-.6zm3.6.3h-.4l.4.4zm-5.2 4.7l-.1.8.9-.4zm-.2 1.9l.6-.2-.5-.5zm3.1-1.4l.4.3.1-.4zm.4-2.2l.5-.3-.5-.3zm-1.1-1.6l.2.5.4-.4zm-.5 4.4l.2.5.4-.4zm-.4-3.8v.5l.5-.2zm.6-.4l-.2-1-.9.6z"/><path d="M220.8 60.2l-.9-.2.2 1zm-1.5-.5l-.7-.7-.3 1.1zm-.2 1.3l.1-1-1 .4zm1.6-2.9l-.7.3.7.6zm.9 3h.4l-.2-.4zm-2.1 1.6l.3.1.1-.4zm-1 1.8l.3.1.1-.4zm.3-2.4l.5.3v-.7z"/><path d="M221.7 58.7l.5-.2-.4-.4zm-.8.3l.5.7.4-.9zm-3 3l.9-.5-.7-.6zm4.5-2.9l-.4.2.5.3zm-4.1 4.3l.6.4.1-.7zm-.6 1.4l.4.3.1-.6zm2.5-3.3l.1.6.7-.4zm-1.4-.5l.5.4.2-.7zm-.4 1l.5.3.1-.7zm3.5-.7l-.4.2.4.2zm-1.2 3.9l-.4.2.4.2z"/></g><g xmlns="http://www.w3.org/2000/svg" fill="#93282d"><path d="M238.4 59.3l.5-.5-.7-.3zm6.5 2.6l.6-.5-.8-.4zm1.1 1l-.3-1.4-1.2.9z"/><path d="M243.5 62l1 .4-.1-1.2zm-6.2-4l.3-.1-.3-.4zm-.6-1.3l-.4.5.5.3zm-2 4.3l.5.4.2-.7z"/><path d="M236.4 57.7l.4.6.4-.7zm.9.6l-.7.5.9.5zm6.2 3.7l-.1-1.1-1.1.6zm-5-2.3v-1l-1 .5zm1.8.8l-.2-1.1-.9.6zm-5.5-.4l.3-.3-.4-.2zm3.1-1.5l-.1-.4-.4.3zm7.4-1.9l.4-.1-.3-.3zm-8.7-1.3l.2.3.2-.3zm1 .8l-.5-.1v.6zm1.1.2l.1-.3-.4-.1zm-2.3.1l.4-.1-.3-.3zm7-.7l.4.1-.1-.5zm-4.2-.9h.3l-.1-.4zm.6.6l-.4.4.5.2zm1.4 5.4l.7.4v-1.2z"/><path d="M237.5 56.7l-.6.8.9.3zm5.5.3l-.1-.4-.3.3zm1.3 2l.5-.3-.5-.4zm-1.8-3l.3.3.1-.4zm-.5-1l.2.1.2-.3zm2.1 6.3l.3-1-.9.1zm-3.9-.8l.9.4.1-1.2-.7.2zm1.1-1.3h.5l-.2-.5-.3.2zm.5 1.6l.4.7.7-.3-.3-1.1zm1.9-1.5l.2.7.4-.2.2-.3zm1.3-.8l.5.7.4-.9zm-.1 1.8l.3 1.2 1-.8zm-5.7-1.2l-.7.6 1 .5zm1.5-1l-1 .2.5.9zm6.7-.1h-.7l.3.6zm3.9 1.9l-.7-.1.2.7z"/><path d="M241.1 59.7l.9.8.4-1.4zm-5.5-1.5l1.1.6-.1-.9zm7.8-.8l.2.4.3-.3zm-1.3.1v-.4l-.4.2zm-2.3 2.5l.1-.5h-.5zm-1.5-2.4v.8l.8-.5zm3.4.5l.6.7.3-1zm1 .4l.6.7.3-.9zm-2.3.8l.3.4.2-.6zm4.2.6l.5.6.4-.8zm-5.4-1.7l.2.3.3-.2zm1.7-1.4l-.3.4.5.1zm-.2 1.9h.4l.2-.2-.4-.6zm-.4.3l.3-.3-.3-.2zm-.3-1.8l.3-.2-.4-.1zm1.6-1.3l.3-.2-.4-.2z"/><path d="M238.6 58.7l.2.4.3-.5zm-2.4 2v.5l.4-.2zm2.1-3.4l.1-.6-.7.2zm5.4 3.2l-.3-.9-.7.7zm-3.9-2V58l-.5.2zm-4.1 1.4l.3.4.2-.5zm11.1-3l.1.5.3-.4zm-6.5-.8h.4l-.3-.4zm.9 0l-.1.4.4-.2zm-6.8 13L233 69l.5 1.5zm10.9-11.2h.5l-.1-.5zm5.1 3.4l.9.2-.2-1zm.7-2.9v.4l.4-.2zm-3.2 3.7l.5-.9h-1.2zm-1.7.3l.2-.6-.6.1zm.3-1l.3-.5h-.7zm-10.6 3.8l.4-1.6-1.4.3zm.4-1.7l.2-1.2-1.2.5zm13.2-3.4l.4-.5-.6-.2zm3.2-.6l.3-.4-.5-.1zm-21.2 7.1l-.1-.5-.4.3zm1-5.3h.4l-.2-.5zm13.5-.9l.4-.8-1-.1zm2.7-.3l-1-.7-.3 1.2zm.4 3.3l-.3-.9-.9.7zm5.1.4l-.5-1-.7 1.1zm-7.8-2.2l.8.3-.2-1zm-12.7.4l-.3.1.2.3zm-1.6 3.4l-.2-.2-.2.3zm-1.5 4.3l.2-.2-.3-.1zm-.7-4.1l-.3-.3-.1.4zm2.8-1.6l-.4-.4-.2.5zm0-1l.2-.3h-.3zm15.3-4.1l.2.5.4-.5zm-14.5 7.6l-.4-.4-.2.6zm1.1.4l-.6-.6-.3 1zm-3.8 5.4l-.3-.8-.7.8zm3.9-3.9l-.8-.5-.1 1.1zm15.6-5.3l.4-.2-.5-.3zm.4.5l.7.1-.7-.6z"/><path d="M246.7 60.1l.5.4.1-.8zm-8.1-3.3l.7.3.1-.9zm12.1 5.5l.1.9.9-.7zm-2.4.4l-.6-.3v.6zm.8.8l1.1.1-.1-.9zm-2.8-.6l1.2.2-.7-1.3zm-12.8 3.7l.4-.1-.3-.3zm1.9-1.9l-.9-.4.1 1.3zm-3.4 2.7h-.5l.2.5zm2.9.7l.4-.9-1.2.1zm-1.7-2.9l-.1-.8-.6.5zm-.4 3.5l.8-.2-.5-.8zm3.1-3.3l-1.4.3.9 1.3zm-2.3-1.5l.6-.4-.6-.4zm1.5-.7h-.7l.3.8zm-.9 2.2l-.5-.6-.4.8zm-3 2.7l-.2-.2-.1.5zm20.6-6.9l-.1-.4-.3.2zm1.3.7l-.1-.2-.3.2zm.6.8v-.6l-.6.4zm-22.3 7.2l-.3-.2-.1.4zm3.5-8l-.4.4.5.1zm-2.2 9.4l.7-.7-1-.4zm-1-1.7l.1-.4-.5.1zm.8.2l.2-.7-.8.2zm-.6-1.4l.7-.1-.4-.7zm16.4-7.8l.7.5.2-1zm.7 1.6l-.5-.5-.2.7zm.9 0l-.5-.6-.2.7zm.2 0l.4-.8-1-.2zm2.8 1.6l-.5-1.1-.4 1zm-3.3-3.3l.4.4.1-.6z"/><path d="M251.7 59.3l.3.2.2-.5zM231 71.1h.8l-.4-.7zm18.7-12.6l-.2-.4-.3.3zm4 3.4l.6.6.3-.8zm.3-.9l-.5.1.3.5zm.4 1.7l.6.6.3-1zm.3-1.3l.5.1-.2-.5zm-.2 2.3l.4-.2-.5-.3zm-2-1.6l.1-.6-.7.2zm-1.2.4l.5-.4-.5-.4zm.8.6v-.6l-.6.3zm1-.1v-.6l-.6.2zm1.4-2.5l.4.2.1-.4zm-2-.3l.3.3.2-.5zM231.8 67l-.2-.5-.4.4zm-2.1 3.7l.3-.4-.6-.2zm2.6-3.9l.3-.5-.7-.1zm0 4.8l-.5-.2v.6zm-.9.2l-.4-.3v.6zm4.2-9.9l.9.5-.2-.8zm16.4-1l.3.2.1-.3zm-21.4 9.5h.3l-.2-.4z"/></g><ellipse xmlns="http://www.w3.org/2000/svg" cx="224.6" cy="75.3" rx="5.3" ry="5.7" fill="#ea9d7d"/><linearGradient xmlns="http://www.w3.org/2000/svg" id="hd-D" gradientUnits="userSpaceOnUse" x1="224.687" y1="78.67" x2="225.024" y2="73.342"><stop offset="0" stop-color="#cc7a5e" stop-opacity="0"/><stop offset=".924" stop-color="#aa5f4b"/></linearGradient><ellipse xmlns="http://www.w3.org/2000/svg" cx="224.9" cy="75.3" rx="2.4" ry="2.5" fill="url(#hd-D)"/><path xmlns="http://www.w3.org/2000/svg" d="M228.1 79.1c-.9 1-2.2 1.5-3.5 1.5-2.7 0-4.9-2.4-4.9-5.3s2.2-5.3 4.9-5.3c1.9 0 3.6 1.2 4.4 2.9 0 0 .2.1.5-.1s.2-.6.2-.6c-1-1.8-2.9-3.1-5-3.1-3.2 0-5.8 2.7-5.8 6.1 0 3.3 2.6 6.1 5.8 6.1 1.4 0 2.5-.4 3.5-1.2l-.1-1z" fill="#b76349"/><g xmlns="http://www.w3.org/2000/svg" fill="#964c38"><path d="M227.1 75.9v-.4l-.4.1zm-1.7-3l-.4.1.3.4z"/><path d="M225.3 73l-.5.6.9.2zm-.9-.1l-.6.2.5.5zm2.6 1.5l-.3.2.4.2zm-.9-.5l-.3.3.4.1z"/><path d="M226.7 74.6l-.2.3.4.2zm-2.2-.8l-.3.2.5.2z"/><path d="M224 73.5l-.4.5.7.2zm1.7 1.8l.2.2.1-.3zm1.1-1.2l-.1.2h.3zm.2.9l-.1.3h.3zm-3.6-1.6l-.4.4.6.1zm.8 1.5h-.2l.1.3zm.6.9l-.1-.3-.2.2zm.8-2.5l.2-.2-.3-.2zm-1.2 0l-.3.3.5.1zm-.5.3l-.3-.2v.4z"/><path d="M223.9 73.6v-.3h-.3zm2.4.4l.2.3.2-.3zm-.4-.9l-.1.7.7-.2z"/><path d="M225.6 73.6l.3.2.1-.4zm-2.4.9l-.2.3h.3zm1.8-1.6l-.3-.1.1.4zm-.6 1.8l.2.3.2-.4zm.8 1.3l-.1.2.3.1zm-2.1-2.2l-.2.3.4.1z"/><path d="M224 76l-.3-.1.1.3zm-1.1-1.6l.3-.1-.2-.3z"/><path d="M222.6 75.5h.2l-.1-.3zm.2-1l.2-.1-.1-.2zm.7-.3v.3l.3-.2zm-1 .9h.4l-.2-.4zm.6.1v.2l.3-.2zm2-1.3l-.3.2.3.2zm1.4 1.5l.1.4.3-.2zm-2-2.2l.1.4.3-.3zm1 1.1l-.2-.2-.1.3z"/></g><g xmlns="http://www.w3.org/2000/svg" fill="#93282d"><path d="M221.3 93.9l-1 .4.7.8zm-11.9 6.5l.5.2v-.6zm-.9 0l.6.2-.1-.6zm-1.5-.7l.5.2v-.6zm12.1-2.1l-.5-.4-.2.7zm2.8-5.4l.2-1-1 .4z"/><path d="M221.6 93.1l.3-1-1.1.2zm-8.1 10.2l.6.1-.1-.6zm4.3-4.8h.6l-.2-.5zm-.1 2.1h.6l-.2-.6zm-4.9 1.1l-.4-.6-.4.6zm.2.7l.4-.4-.8-.2zm3.6-10.6l-.3-.3-.3.6zm2.5.2l-.4-.4-.2.7zm-3.6-.7l-.4-.2v.5zm-3.9 5l.1-.3h-.3zm1.8 3l.1-.3h-.3zm2.2-6.8l-.5-.2.1.6zm-6.1 6.4l.1-.3-.4.1zm6.5 4.4l.1-.3-.4.1zm-6.1-9.5l.1.3.3-.4zm3.6 9.1h.3l-.2-.4z"/><path d="M209.3 99.9l-.1-.7-.6.5zm.8 1.8l-.1-.7-.6.4zm-1.8-2l-.1-.7-.7.5zm7.2 4.1l-.3-1.1-1 .8zm1.3.2l-.3-1-.9.8zm1.2 0l-.3-1-.8.9zm1.1-3l-.5-1-.8 1zm1.1-7.5l-.6.1.4.7zm-6.4 8.5l.2-.5-.6-.1zm5.6-9.9l.3-.5h-.5z"/><path d="M220.5 92.8l.2-.5-.5.1zm-1.2-1.1h.5l-.1-.5zm.9 2.5l-.6.2.6.4zm-.3-1l-.3-.4-.3.5zm1.5.6l.2-.7-1 .1zm-3.7-1l.3-.3-.5-.1zm2.1-.1l.3-.4h-.5zm.7-1.8l-.5.3.6.3zm1-.4l-.8.5.9.5zm-.3 1l-.6.4.7.3zm-2.7-.6l.3-.4h-.6zm-.2 12.3l.1-.7-.8.3zm.9-3.1l-.1-.6-.6.3z"/><path d="M219.3 100.6l.2-.6h-.6zm-.3 1.1l.1-.6h-.5zm-.8-3.2v-.6l-.6.3zm-.2 1.3h-.5l.4.5zm-.5 1.1h-.5l.4.5zm3.5-5.8l-1.3.2.8 1.3zm-2.7-.4h-.4l.2.4zm-6.3 8.1l-.1-.9-.9.4zm-2.7-1.4v-.9l-.9.3zm4.1 1.9l-.1-.4-.4.2zm6-7.8h-.5l.3.5zm.6 1l-.8.4.9.5zm-1.6 3l-.1-.5-.5.3zm.1 2.1l-.1-.5-.5.3zm.8-2.1l-.1-.5-.5.3zm-.5-1.1l.3.4.2-.4z"/><path d="M219 98.8l.7.3-.1-.7zm-.7 1.7l.5-.3-.4-.3zm.4-6.8l-.1-.5-.5.3zm.3 3.6l.4-.2-.4-.4zm.6-3l-.6.1.3.5zm1.5-1.4l-.7.1.3.7zm-.7 4.1l-.6.1.3.5zm-.5-.4l-.3-.6-.5.6z"/><path d="M220.1 95.2l-.2-.4-.3.4zm.4 1.7l-.3-.9-.5.7zm.3-1.9l-.2-.4-.3.4zm-3.8 1.3l.3-.3-.5-.2zm-2.4 5.9l-.2-.7-.6.5zm1.7.6l-.3-.7-.5.6zm1 .6l-.3-.7-.5.6zm.1-5.9l-.4-.6-.5.7z"/><path d="M217.1 98.5l-.3-.7-.5.7zm-3.2 4.1l-.2-.6-.6.6zm.4-1l.4.3.1-.6zm3.4 2l.5.3.1-.6zm-.7-4.9l.5.3v-.7zm-2.1 2.3l.5.2v-.6zm2.1 1.9l.5.2v-.6zm-6.9-3.6l.3.3.2-.4zm10.2-4.9l.6-.4-.9-.4zm-.7 4.9l-.5.2.4.4zm-3.4 2.3l-.5.2.5.4zm1.6-6.4h-.5l.4.6zm2.4 2.4l-1.1.3.7 1zm-1.2 3.9l-1.1.3.7 1zm-3.7.9l-.2-.6-.4.5z"/><path d="M215.7 102l-.3-.6-.4.5zm2.2-5.4l-.4-.6-.4.6zm-.9 6l-.3-.5-.5.5zm-4.9.2l.7.3.1-.8zm2.1-.2l.4.3.1-.5zm-2.3-.5l.4.4.2-.5zm3.3-5.9l-.6.1.3.5zm-.6 3.1l-.6.2.3.4zm1.4.8l-.6.1.3.4zm-3.9-.8l-.1-.6-.4.4zm-2.7-1.1l-.3-.6-.3.5zm8.1 4.4l-.1-.5-.4.4zm.4-5.8l.6.1-.2-.6zm1 2l-.5-.3-.1.7z"/><path d="M218.8 95.8l-.1-.7-.7.5zm-.6.2l-.4.1.4.4zm0-1.8l-.2-.4-.4.3zm-1.4-1.1l-.6.1.4.4zm-.3 2.6l-.5.1.3.6zm-2.4 4.9l-.5.2.4.5zm-2.6.3l-.5.2.4.5zm5.1-1.4l.2-.4h-.5zm.7 1.1l-.5-.5-.2.8zm-.9.2l-.5-.5-.2.7zm.9 1l.5.2-.1-.7zm-.8-.1l.5.1-.1-.6zm1.1-2.2l-.5-.4-.2.6zm-2.7.4l-.6.2.5.4zm1.1-.9l-.4.3.5.4zm-5.2-.2l-.2-.6-.5.4zm-.1 1.7l-.2-.5-.5.4zm0 .8l-.2-.5-.5.4zm8.9-7.9l-.5.1.3.5zm-2.2 1.3l-.2-.4-.3.5zm.4 3l.4-.3-.5-.3zm5.7-11.5l-1 .4.7.8zm-2.1 3.5l-.5-.3-.2.7zm2.6-5.2l.3-1.1-1 .5z"/><path d="M224.3 83.4l.3-1-1.1.5z"/><path d="M224.5 82.6l.3-1-1 .4zm-.7 2.8l.2-.9-1.1.1zm-10 11.7l-.4-.3-.2.6zm6.9-11.6l-.4-.5-.2.7zm-1.1-2l-.3-.1v.4zm2.1-1.7l-.4-.2v.4zm.6 4.1l-.6.1.4.7zm-.8-1.6l.2-.5h-.5z"/><path d="M223.3 82.2l.3-.5-.5.1zm-.7 2.9l.2-.5-.5.1zm-.9-1.8h.5l-.1-.5zm.9-1.3l.5.1-.1-.5zm-.3 4.7l-.5.2.5.4zm-.4-1.3l-.2-.3-.3.5zm1.6.8l.3-.8-1 .1zm-4.2.1l.3-.3-.5-.1zm2.5-1.4l.3-.4h-.5zm.9-1.8l-.4.3.5.3zm1-1.1l-.5.3.6.4z"/><path d="M223.7 82.6l-.8.5.9.6zm-.4 1.2l-.6.4.7.3zm-2.6-.6l.3-.5h-.6zm2.5 4.2l-1.3.1.9 1.4zm-2.7-.6h-.4l.1.4zm1 .9h-.5l.3.5zm.6.9l-.8.4.8.6zm-.9 1.9l.3.4.2-.4z"/><path d="M221.3 90.9l.8.3-.1-.7zm-.2-1.4l.4-.2-.4-.4zm.5-2.9l-.6.1.4.6zm1.6-1.4l-.8.2.4.6zm-.7 3.9l-.6.2.3.5zm-.5-.3l-.3-.6-.5.6z"/><path d="M222.2 87.4l-.2-.4-.3.4zm.5 1.8l-.2-.9-.6.7zm.2-1.8l-.2-.5-.3.4zm-.5-.7l.6-.4-.9-.3zm.2 2.9l-1.2.3.8 1zM220 89h.6l-.2-.5zm1.3 1.9l-.5-.3v.7zm-1.8-1.3l-.1-.7-.7.6z"/><path d="M220.3 88.2l-.4.1.4.4zm0-.5l-.1-.4-.5.3zm-2.8.5l-.6.2.4.4zm4.2-2.6l-.6.1.4.6zm-2.4 2.4l-.3-.4-.2.5zm.8 1.9l.3-.4-.5-.2zm-8.6 11.9l.2.3.3-.5zm4.4-7l.4-.3-.5-.2zm-10.1 1l.4.4.2-.6zm-1.1 1.8l.5.4.2-.7zm.4-1.7l-.1-.7-.7.3zm-.4.7l.6-.2-.6-.5zm3.4-2.2l.1-.3-.3-.1zm7.3 3.2l.1.3.3-.3zm-1.8.6l.2-.3h-.3zm-7.8-3.8l.2-.2-.4-.1z"/><path d="M206.6 98.8l.2-.3h-.4zm8.1-3.5l.2.3.2-.4zm-9.8 1.9l.3.2V97zm-1.1-1.9l.3-.7-.8.1zm2.3 3.7l.3-1.1-1.2.2z"/><path d="M207 99.8l.3-1.1-1.2.2zm1.4.9l.1-1.1-1.2.3zm-2.8-4.1l.4-.4-.5-.3zm-1.9-.3l.2-.4h-.5zm1.1 1.1l.1-.4-.5.1zm8.9 3.4v-.7l-.7.3z"/><path d="M207.1 98.5v-.8l-.7.4zm6.5 2.7l-.2-.7-.6.4zm-2.7 1l-.2-.8-.6.5zm-5.4-5v-.6l-.7.2zm9-3.2l.2.5.4-.5zm-9.2 1.2l.2.4.3-.2zm1.3 2.5l.2-.6-.7.2z"/><path d="M206.9 97.5l-.1-.7-.6.3zm.8 1.1V98l-.6.3zm-3.9-2.1l.5.6.5-.6zm1.8.8l.1.5.4-.4zm-1.5-1.5l.2.6.4-.3zm4.7 2.9l-.6-.1.1.5zm2.6 1.9v-.7l-.5.3zm1.4 0l-.4-.5-.2.5zm-4.3-4l.1-.5-.7.1zM208 98v-.6l-.6.3zm-4.1-2.6l.1.4.5-.3zm10.9 4l.3.5.4-.5zm-12.6-5.3l.4.5.3-.6zm10 0l.2-.2-.3-.1zm-2.3 2.6l.3-.2-.4-.2zm-7.4-2.9l.2.2.1-.5z"/><path d="M201.3 91.5l.4-.3-.5-.3zm2 4.2l.5-.9-1.2-.2zm-1.7-2.9l.2-.4-.4-.1zm.7 1.3l.2-.4-.5-.1zm2.2 1.6l.2-.7-.8.1zm-1.5-1.8l.2-.7-.8.1zm8.2 5.1l.1.6.5-.4zm-7.8-6.5l.1.4.4-.3z"/><path d="M214.9 98.9l.2-.5-.7.1zm-10.3-4.2l.1-.7-.6.1zm-3-1.8l.4.7.5-.6zm1.5 1.1v.5l.5-.3zm9.4 5.2l.1.5.4-.2zm-2.2-3.6l.1-.6-.5.2zm2.1 2.9l.1-.5h-.6zM212 97l.1-.6-.7.2zm-10.2-5.2v.4l.5-.3zm6.5 5.7l.5-.2-.4-.3z"/></g><defs xmlns="http://www.w3.org/2000/svg"><path id="hd-F" d="M217.2 109.2h-.1a.55.55 0 0 1-.3-.5l4.7-14.4c.9-3 3.6-13.1 3.6-13.1a.55.55 0 0 1 .5-.3.55.55 0 0 1 .3.5l-3.6 13.1c-.8 2.7-4.7 14.3-4.7 14.3 0 .3-.2.4-.4.4z"/></defs><g xmlns="http://www.w3.org/2000/svg" fill="#e79a7a"><path d="M248.6 443.3c-5.3 0-.8-11.3-.6-20.8-.3-1.8-2.8-29.2-6.1-54.4-2.3-17.4-3.3-42.1-3.7-44.5-.8-5.8-5.9-51.5-5.9-51.5l31.8-46s5.9 74.2 5.3 94.8c-.2 6.9-2.5 97.9 1.1 101.6 2.4 2.1 8.5 6.5 22.8 11 6.7 1.9 10.8 2.6 10.5 5.5s-1.4 2.8-1.4 2.8l-53.8 1.5z"/><path d="M183.9 440.9c-5.3-.8-4.6-8.7-2.4-13.5.3-2.1 4.7-33.9 7-61.6 1.7-20.5 10.4-50.8 10.8-56.5.5-6.5 0-100.7 0-100.7H260l-29.3 108.8c-2.8 14.4-29.4 100.9-27.6 103.6 2.4 2.1 9.3 11 23.7 15.5 6.7 1.9 10.8 2.6 10.5 5.5s-1.4 2.8-1.4 2.8l-52-3.9z"/></g><g xmlns="http://www.w3.org/2000/svg" fill="#c9755b"><path d="M200.7 407.8l-.6 1 1.1.2zm2.1 2.3l-.6 1.1 1.1.1zm1.7-3.6l-.6-.5-.2.7zm-4.5 2.1l-1.5-.1.4 1.3zm3.2 4.8l-1.6-.1.4 1.3zm-.3 3l-1.6-.2.4 1.3zm1.7-6.5l-1.5-.1.5 1.2zm-1.5-1l-1.5-.1.4 1.3zm-.8 2.8l-1.5-.1.5 1.3zm1.4-6.3l-1.5-.2.5 1.3zm.3 1.7l-1.4-.2.4 1.3zm-5.5 5.7l-.7 1.1h1.2zm1.9-6.6l-.6 1.2 1.1.1zm-1.7 8.8l-.4.8h.9zm1-4.1l.5.5.2-.6zm-5.5 2.7l.6-.4-.6-.4zm2.7 7.9l-.7-.4-.1.7zm4.1 1l-.5.5.7.2zm-2.7-5.5l.5.6.3-.6zm.2 2.7l.5.5.3-.5zm3-4.8l-.6 1.2 1.2.1zm1.8 3.2l-1.6 1.1 1.5.9zm-1.8-4.8l-1.9-.2.4 1.7zm-4.1-5l-.7-.4-.1.8z"/><path d="M198.6 407.9l.2-.7-.7.1zm-4 .6l-.5.5.7.2zm4.6 4.2l-.6.5.6.2zm1.7 2.2l2.3 1.7.5-2.6zm.6-2.9l2.3 1.8.6-2.5zm1.1-3.4l2.2 1.9.7-2.5zm-1.1 10.2l-.3-1.3-.8.7zm3.1-27.2l-.6 1.1 1.1.1zm2.1 2.3l-.6 1.2 1.1.1zm-2.7-1.4l-1.6-.1.4 1.3zm3.3 4.5l-1.5-.2.4 1.3zm-.3 3.1l-1.5-.1.4 1.3zm1.6-6.3l-1.6-.1.5 1.3zm-1.6-1l-1.5-.1.4 1.3zm-.5 2.5l-1.5-.2.5 1.3zm1.4-4.3l-1.5-.1.4 1.2zm-5.4 13.8l-1.6-.2.5 1.4zm.2-2.2l.6-1.4-1.4-.1zm.2 2.3l.6-1.4-1.4-.1zm-.2-8.2l-.6 1.1 1.1.1zm1.6-6.5l-.7 1.1 1.2.1zm-1.5 8.2l-.3.8.7.1zm1-3.9l.6.4.2-.6zm-5.5 2.5l.6-.4-.5-.3zm-1.2-3.5l-.8-.4-.1.8zm4 1l-.5.7.6.1zm-2.6-5.5l.4.6.4-.6zm-6.2 13.1l-.8-.4-.1.9zm3.9 1.1l-.5.5.6.2zm-2.5-5.6l.4.6.3-.5zm5.6 5.6l-1.1 1.2 1.4.4zm-2.2-2.3l.5.6.3-.6z"/><path d="M200.2 404.9l-.2-.9-.6.4zm1.4 3.8l-.7-.1.3.7zm3.1-5.2l-.2.6h.7zm-5.1 2.1l-1-.7-.2 1.1zm5.1 2l-.7.7.8.3zm-2.5-7.7l.5.8.5-.7zm-3.2 9.4l-.1-1.1-.9.6zm2 4.7h-1l.3.7z"/><path d="M204.5 407.4l-.2.9.8-.1zm-3.5-8.9l-.2-.9-.6.5zm1.4 3.8h-.7l.2.6zm3.1-5.2l-.3.6h.7zm.3 1.8l-.7 1.1 1.2.2zm-1-.1l-1.7 1.1 1.5 1zm.9-2l-2-.3.5 1.7zm-1.3 9.2l-2-.2.6 1.7z"/><path d="M204 401.2l-.7 1.2 1.2.1zm1.2.8l-.6 1.1 1.2.2zm-3.9-9.7l-.8-.5v.8zm1.3-.5l.1-.7-.6.2zm-3.7.1l-.5.5.6.2zm6.2 11.8l-.6-.4-.1.6zm-1.7-7.5l-.7.5.7.3zm1.8 9.7l-1.4-.2.4 1.3z"/><path d="M203.6 404.7l2.3 1.7.5-2.5zm.7-2.9l2.3 1.7.5-2.6zm.8-3.1l2.2 1.7.7-2.4zm.6-3l2.2 1.8.7-2.4zm.9-3.2l2.2 1.9.7-2.5zm-6.7 8.9l-.1-.6-.5.3zm-.6-1.8l-.2-1.2-.9.6zm-.4 3.6l-.2-.7-.4.3z"/><path d="M200.1 401.7l-.1-.6-.5.3zm-3.2-3.4l-.3-1-.7.6zm1.9 4.3h-.9l.3.7zm3.1-6.2l-.3.9.8-.2zm4.2-10.8l-.7 1.1 1.1.1zm1.8 2.5l-.6 1.1 1.2.2zm2.4-3.4l-.6-.5-.2.6zm-5.1 1.9l-1.5-.1.4 1.3zm4.8 1.3l-1.6-.2.5 1.3zm-1.6-1l-1.5-.1.5 1.2zm-.6 2.9l-1.5-.2.4 1.4zm1.8-6.2l-1.5-.3.4 1.3zm-.2 1.5l-1.4-.2.3 1.3zm-3.5-1l-.7 1.1 1.1.2zm5.1-12.2l.4 1.3 1.2-.2zm-6.9 21.1l-.4.7.8.1z"/><path d="M205.2 389l.5.4.2-.6zm-5.6 2.5l.7-.5-.6-.3zm-1-3.9l-.8-.4v.8zm4 1.2l-.5.6.6.2zm-2.4-5.5l.4.5.3-.5zm2.4 3l-.8-.4-.1.7zm1.4-.6l.2-.7-.6.2zm-3.8.6l-.5.5.6.2zm7.3 2.9l2.3 1.7.6-2.5z"/><path d="M208 386.8l2.2 1.9.7-2.4zm5-8.1l-1.4-.2.4 1.3zm-4.7 4.2l-1.5-.1.4 1.3zm.3-1.9l.7-1.4H208zm.2 1.9l.7-1.3-1.4-.1zm-3.5-1.8l-1.2 1.2 1.4.5zm1.6-4.1l.4.7.4-.6zm.6-1l-.1-.9-.7.3z"/><path d="M208.8 379.8h-.7l.2.6zm3.3-5.1l-.3.7h.6zm-7.3 12.4l-.2-1.1-.8.5zm1.6 4.8h-.9l.3.7zm4-6.3l-.3.8h.8zm-2.6-6.4l-1.7 1 1.5 1zm4.8-6.2l-.5 1.5 1.7-.7zm-1.3 2.6l-.4 1.4 1.2-.2zm.6-2.1l-1.4-.3.3 1.2zm-.6 3.8l-1.7 1.1 1.5 1zm3.1-3.1l-1.9.9 1.4 1.1zm-4.6 9.9l-1.9-.4.5 1.8zm.3-4.4l-.8 1.1 1.1.2zm1.2.8l-.7 1.1 1.1.2z"/><path d="M211 381.9l-.5-.4-.2.6zm0 2.2l-1.4-.2.4 1.3z"/><path d="M209.1 383.1l2.3 1.8.6-2.5zm1-3l2.2 1.7.6-2.5zm.9-2.8l2.1 1.8.7-2.5zm-5.3 3.2l-.1-.7-.6.4zm3.9-2l-.2-1.2-.9.6zm-4.7 2.6l-.2-.7-.5.4zm18.3-53l-.7 1.1 1.2.1zm-9.8 42.3l-.6 1.2h1.2zm-2.7-1.4l-1.6-.2.4 1.3zm4.6 1.2l-1.6-.1.5 1.3zm-1.5-.9l-1.6-.2.5 1.3zm-3 2.1l-1.6-.2.5 1.3zm15.7-44l-1.6-.1.5 1.3zm-3.6-.8l-.7 1.2h1.1zm-13.3 48.2l-.4.8.7.1zm.9-3.9l.7.5.1-.7z"/><path d="M205.1 373.4l.6-.3-.6-.4zm-1.2 2.1l-.8-.4-.1.8zm4 1l-.5.6.7.2zm-2.6-5.5l.4.6.4-.6zm2.8-2.3l-.8-.5-.1.8zm13-40.4l.2-.7-.7.2zm-15.5 40l-.5.5.6.2zm6.8 3.9l2.2 1.9.7-2.4zm1-3.2l2.2 1.9.7-2.5zm2.5-17.4l-.6 1.1 1.1.2zm2.1 2.4l-.7 1.2 1.2.1zm-2.7-1.5l-1.6-.2.4 1.3zm3.2 4.5l-1.5-.2.4 1.3zm-.4 3.2l-1.5-.2.4 1.3zm1.7-6.3l-1.5-.2.4 1.3zm-1.5-1l-1.6-.2.5 1.3zm-.5 2.5l-1.6-.3.5 1.3zm1.4-4.4l-1.5-.1.4 1.3zm-5.4 11.5l.6-1.4H213zm.2 2.3l.6-1.4h-1.4zm-.1-8.2l-.6 1.2 1.1.1zm1.8-6.4l-.7 1.1 1.1.1zm-1.7 8.2l-.3.8.7.1zm1.1-4l.6.5.1-.6zm-5.6 2.5l.6-.4-.5-.3zm-1.2-3.5l-.7-.4-.1.8zm4 1.1l-.5.6.7.1zm-2.4-5.6l.4.6.3-.5zm-6.3 16.8l-.8-.4v.8zm4 1.1l-.6.5.7.2zm-2.5-5.6l.5.6.3-.5zm8.7 4.1l-1.2 1.1 1.5.5z"/><path d="M208.3 360.7l.4.7.4-.6zm3.5 3.8l-.2-.9-.6.5zm1.4 3.9l-.7-.1.2.7zm3.1-5.2l-.2.7.6-.1zm-5.7 2.3l-.9-.7-.2 1zm5.1 2.1l-.7.7.8.3zm-2.3-7.8l.4.9.6-.7zm-1.2-1.4l-.2-.8-.6.4z"/><path d="M213.5 362.3h-.7l.2.6zm3.2-5.2l-.3.7.7-.1zm.2 1.8l-.6 1.1 1.1.2zm-1-.1l-1.7 1.1 1.5 1zm1-1.9l-2-.4.5 1.7zm-1.8 4.3l-.7 1.2 1.2.1zm1.2.8l-.6 1.1 1.1.2zm-3.7-9.8l-.7-.5-.1.8z"/><path d="M213.9 351.8l.2-.7-.7.1zm-3.7 0l-.5.5.6.2zm6 11.9l-.6-.4-.1.6zm-1.6-7.5l-.7.4.7.3zm0 8.5l2.3 1.7.6-2.5zm.8-2.9l2.3 1.7.6-2.5z"/><path d="M214.2 366.9l2.3 1.7.6-2.5zm2-8.1l2.3 1.7.7-2.5zm.7-3.1l2.2 1.9.8-2.4zm1-3.1l2.2 1.9.7-2.5zm-6.8 8.7l-.2-.6-.5.3zm-.6-1.8l-.3-1.2-.9.6z"/><path d="M207.7 364.7l-.1-.8-.5.4zm3.5-3.1l-.1-.6-.5.3zm-.7.8l-.2-.9-.8.5zm1.9 4.4l-.9-.1.3.7zm3.1-6.2l-.3.9.8-.2zm2-15l-.7 1.1 1.1.2zm1.8 2.6l-.7 1 1.2.2zm2.4-3.4l-.5-.5-.2.6zm-5.1 1.8l-1.5-.1.4 1.3zm4.7 1.4l-1.5-.2.4 1.3zm-1.5-1l-1.5-.2.4 1.3zm-.6 2.9l-1.5-.2.3 1.3zm1.9-6.2l-1.6-.3.4 1.3zm-.2 1.5l-1.5-.2.4 1.3zm-3.6-1.1l-.7 1.1 1.2.2zm5.4-12l.4 1.2 1.1-.2z"/><path d="M215.4 353l-.4.7.8.1zm1.1-4l.6.5.2-.7zm-5.6 2.4l.7-.4-.6-.4zm-.4-6.7l-.7-.4-.1.7zm4 1.3l-.5.5.6.2zm-2.2-5.7l.4.6.3-.5zm1.7 5.9l-.8-.4-.1.7zm1.4-.5l.3-.7-.7.2zm-3.8.5l-.5.5.6.2zm7.3 3.1l2.3 1.7.6-2.4z"/><path d="M219.4 346.9l2.2 1.9.7-2.4zm5.2-8l-1.5-.2.4 1.3zm-4.8 4.1l-1.5-.2.4 1.3zm.3-1.9l.7-1.4-1.3-.1zm.2 1.9l.7-1.3-1.4-.1zm-3.5-1.9l-1.2 1.2 1.4.5zm1.7-4l.4.6.4-.6zm.6-1.1v-.9l-.8.4z"/><path d="M220.4 339.9l-.7-.1.1.7zm3.3-5l-.3.6.6.1zm-7.5 12.2l-.1-1.1-.9.5zm1.5 4.9l-.9-.1.2.8zm4.1-6.3l-.3.8h.8zm-2.5-6.5l-1.7 1.1 1.5 1zm5-6l-.5 1.4 1.7-.6zm-1.4 2.6l-.4 1.3 1.2-.1zm.6-2.2l-1.3-.2.2 1.2zm-.6 3.9l-1.7 1 1.5 1zm3.2-3.1l-2 .9 1.4 1zm-4.8 9.8l-2-.4.5 1.8zm.3-4.4l-.8 1.1 1.1.2zm1.2.9l-.7 1.1 1.1.2z"/><path d="M222.5 342.1l-.5-.5-.2.6zm0 2.1l-1.5-.2.4 1.3z"/><path d="M220.6 343.2l2.2 1.8.7-2.4zm1-3l2.2 1.7.7-2.4zm1-2.8l2.1 1.9.7-2.5zm-5.4 3.1l-.1-.7-.5.4zm4-1.9l-.2-1.2-.9.6zm-4.8 2.5l-.2-.7-.5.4zm8.8-10.6l-.7 1.2 1.2.1zm-2.8-1.4l-1.5-.2.4 1.3zm4.6 1.3l-1.6-.1.5 1.3zm-1.5-.9l-1.6-.2.5 1.3zm-3 2l-1.6-.2.5 1.3zm-1.3 3.4l-.3.8.7.1zm1-3.9l.7.5.1-.7zm-5.5 2.4l.6-.3-.5-.4zm-1.2 2.1l-.8-.4v.8zm4 1.1l-.5.6.6.1z"/><path d="M217 331.1l.4.6.4-.6zm2.8-2.3l-.8-.5v.8zm-2.4-.5l-.5.5.6.3zm6.6 4.1l2.2 1.9.8-2.4zm1.1-3.2l2.2 1.9.7-2.5zm-.6-7.2l-.6 1.1 1.1.1zm1.9 2.5l-.6 1.1 1.2.1zm2.3-3.5l-.6-.5-.2.7zm-5 2.1l-1.6-.1.4 1.2zm4.7 1.2l-1.6-.2.6 1.3zm-1.5-1l-1.6-.1.5 1.2zm-.6 2.9l-1.5-.2.5 1.4zm1.7-6.3l-1.6-.2.4 1.3zm-.2 1.6l-1.4-.2.4 1.3zm-3.6-1l-.6 1.1 1.2.2zm5-12.1l.5 1.2 1.1-.2z"/><path d="M222.7 329.4l-.4.8h.8zm1-4l.5.5.2-.7zm-5.5 2.7l.6-.5-.6-.4zm-1.8-1l-.8-.4v.8zm4 1.1l-.5.6.6.2zm-2.5-5.5l.4.5.4-.5zm3.1.1l-.8-.4v.7zm1.4-.6l.2-.7-.6.1zm-3.7.7l-.5.5.6.2zm7.1 3.6l2.3 1.7.6-2.5zm.7-3.4l2.3 1.8.7-2.4zm4.9-8l-1.4-.1.4 1.3zm-4.7 4.2l-1.5-.1.4 1.3zm.4-1.8l.6-1.4h-1.3zm.2 1.9l.6-1.3h-1.3zm1.9-12.8l-1.1 1.2 1.4.4z"/><path d="M225.3 313.6l.4.6.4-.6zm.5-1.1l-.1-.9-.7.4zm1.5 3.9l-.8-.1.2.6zm3.1-5.2l-.3.6h.6zm-7.2 12.3l-.1-1.1-.8.5zm1.8 4.8h-1l.3.8zm3.8-6.4l-.3.8h.8zm-2.6-6.2l-1.6 1.1 1.5 1zm4.7-6.3l-.5 1.5 1.7-.7zm-1.3 2.7l-.3 1.3 1.2-.1zm.5-2.2l-1.3-.2.3 1.2zm-.4 3.9l-1.7 1.1 1.5.9zm2.8-3.4l-1.9.9 1.5 1zm-4.3 10l-1.9-.3.5 1.7zm.3-4.2l-.7 1.1 1.1.2zm1.2.8l-.7 1.1 1.2.2z"/><path d="M229.5 318.4l-.6-.4-.2.6zm-.1 2l-1.5-.2.5 1.3z"/><path d="M227.6 319.6l2.3 1.7.6-2.4zm.9-3.2l2.2 1.6.6-2.5zm.7-3.1l2.2 1.7.6-2.5zm-5.1 3.8l-.1-.7-.5.4zm3.9-2.1l-.3-1.2-.8.6zm-4.8 2.6l-.2-.8-.5.4zm5.9-13.4l-.7 1.1 1.1.2zm2 2.7l-.6 1.1 1.1.1zm2.1-3.7l-.5-.4-.2.6zm-5 2.1l-1.6-.1.5 1.2zm4.9 1.3l-1.6-.1.6 1.2zm-1.5-.9l-1.6-.2.5 1.3zm.9-3.6l-1.5-.2.4 1.3zm0 1.8l-1.4-.2.4 1.3zm-3.7-1.1l-.7 1 1.2.2zm-1.9 1.6l.3-.7-.7.2z"/><path d="M230.3 308.7l2.3 1.6.6-2.5zm.8-3.1l2.3 1.8.6-2.4zm.1-4.1l-1.5-.1.4 1.3zm-3.4 7.8l-1.7 1.2 1.6.9zm5.1-6.5l-2-.3.6 1.7z"/><path d="M234 302.6l-1.5-.1.4 1.3z"/><path d="M232 301.7l2.3 1.7.6-2.5z"/></g><linearGradient xmlns="http://www.w3.org/2000/svg" id="bt-A" gradientUnits="userSpaceOnUse" x1="210.3284" y1="344.5841" x2="247.0407" y2="356.0571"><stop offset="0" stop-color="#cc7a5e" stop-opacity="0"/><stop offset=".9241" stop-color="#aa5f4b"/></linearGradient><path xmlns="http://www.w3.org/2000/svg" d="M203 420.5c.3-4.4 11.9-45.7 26.6-97.4l14.4-63.8c-1-12.2-15.1 5.1-16.1 3.6l-7.6 1.8s-16.5 3.9-17 9.3c-.5 5.8 5.1 50.3 0 68.7-4.9 18.4-17.7 75.9-15.4 86.4 3.7 17.4 27.9 13.1 26.5-1.1-7.5-3.7-11.6-6.4-11.4-7.5z" fill="url(#bt-A)"/><linearGradient xmlns="http://www.w3.org/2000/svg" id="bt-B" gradientUnits="userSpaceOnUse" x1="219.3388" y1="320.4659" x2="218.1561" y2="296.0781"><stop offset="0" stop-color="#cc7a5e" stop-opacity="0"/><stop offset=".9241" stop-color="#aa5f4b"/></linearGradient><path xmlns="http://www.w3.org/2000/svg" d="M208.1 321.1c11.2.4 20.4 5.8 20.4 5.8s3.2-8.3 3.9-13.2c.5-3.4 7.4-26.1 7.4-26.1l-39.9 3.8-.6 20.1-2 9.3c.1.2 6.1.1 10.8.3z" fill="url(#bt-B)"/><g xmlns="http://www.w3.org/2000/svg" fill="#c9755b"><path d="M264.1 408.3l-.3 1.2 1.1-.1zm2.7 1.7l-.4 1.2 1.1-.2zm.6-4l-.8-.2.1.6zm-3.7 3.4l-1.5.3.7 1.1zm4.3 3.7l-1.5.3.7 1.1zm.6 2.9l-1.6.2.8 1.2zm-.2-6.7l-1.5.3.9 1.1zm-1.7-.5l-1.5.3.8 1.1zm.1 2.9l-1.5.3.8 1.1zm-.5-6.5l-1.5.2.8 1.1zm.8 1.6l-1.5.2.8 1.1zm-3.8 7l-.3 1.2 1.2-.3zm0-6.8l-.2 1.2 1.1-.2zm.9 8.8l-.1.9.7-.2zm-.2-4.1l.6.2.1-.6zm-4.5 4.1l.5-.6-.7-.2z"/><path d="M264.4 422.6l-.9-.1.1.6zm4.1-.2l-.3.6.7.1zm-4.1-4.5l.6.4.1-.6zm.9 2.5l.6.4.2-.6zm1.6-5.4l-.3 1.3 1.1-.3zm2.6 2.5l-1.3 1.6 1.7.4zm-3.1-4.1l-1.9.4.9 1.4zm-5.3-3.6l-.9-.2.1.8z"/><path d="M262.1 409.1v-.8l-.6.4zm-3.7 1.6l-.3.7h.7zm5.6 2.8l-.4.6.6.1zm2.3 1.6l2.6 1-.2-2.6zm-.2-3l2.6 1.1-.1-2.5zm0-3.5l2.7 1.3-.1-2.7zm1.9 10.1l-.7-1.2-.6 1zm-4.4-26.7l-.4 1.3 1.2-.2zm2.6 1.7l-.3 1.3 1.2-.2zm-3-.6l-1.6.3.8 1.1zm4.4 3.4l-1.5.2.8 1.1zm.3 2.7l-1.5.4.8 1.1zm.1-6.2l-1.6.3.8 1.2zm-1.8-.5l-1.5.3.8 1.2zm.2 2.6l-1.5.2.8 1.1zm.2-4.6l-1.5.3.7 1.1zm-1.7 14.5l-1.5.3.8 1.2zm-.4-2.2l.2-1.5-1.4.4zm.9 2.1l.1-1.5-1.3.4zm-2.5-7.8l-.3 1.3 1.1-.2zm0-6.4l-.4 1.3 1.2-.3zm.8 8.3l-.1.9.7-.1zm-.1-4l.7.3v-.7zm-4.6 3.9l.5-.5-.6-.2zm-2.2-3l-.8-.1.2.8zm4.2-.1l-.3.7h.6zm-4-4.6l.5.5.2-.7zm-2.6 14.1l-.9-.1.2.8zm4.1-.1l-.3.7h.6zm-4-4.6l.6.4.1-.5zm6.9 3.7l-.7 1.5h1.5zm-2.7-1.5l.6.4.2-.6z"/><path d="M262.8 405.7l-.4-.8-.5.6zm2.4 3.3l-.7.1.5.6zm1.5-5.9v.7l.6-.2zm-4.3 3.4l-1.1-.3.1 1.1zm5.5.6l-.5.8.9.1zm-4.6-6.8l.7.7.3-.8zm-.4 10l-.5-1.1-.6.9zm3.2 4l-1 .2.5.6z"/><path d="M267.7 406.9v.9l.7-.3zm-5.9-7.6l-.5-.7-.5.6zm2.4 3.3l-.7.3.3.5zm1.5-5.9l-.1.8.6-.3zm.7 1.7l-.3 1.2 1.2-.1zm-1 .2l-1.3 1.6 1.7.4zm.3-2.2l-1.9.3 1 1.5zm1.4 9.3l-1.9.3 1 1.4z"/><path d="M265.3 401.2l-.2 1.3 1.1-.3zm1.5.4l-.3 1.2 1.1-.2zm-6.2-8l-.9-.3.2.8zm1-.8v-.7l-.6.3zm-3.4 1.1l-.4.6h.7zm9 9.3l-.7-.3.1.7zm-3.8-6.7l-.5.6.7.1zm4.5 8.8l-1.5.2.8 1.2z"/><path d="M266 404.6l2.6 1-.1-2.6zm-.2-3l2.7 1-.2-2.6zm-.1-3.1l2.7.9-.1-2.5zm0-2.8l2.6 1.1.1-2.5zm.1-3.4l2.6 1.3v-2.7zm-4.3 10.2l-.3-.6-.4.5zm-1.1-1.6l-.6-1.1-.6.9zm.6 3.6l-.3-.7-.4.5z"/><path d="M261.8 402.7l-.3-.6-.4.5zm-4.1-2.3l-.5-.9-.5.7zm3.1 3.5l-.9.3.5.5zm1.2-6.8v.9l.6-.4zm1.3-11.3l-.3 1.2 1.1-.1zm2.5 1.9l-.4 1.3 1.2-.2zm1.3-3.9l-.6-.3-.1.7zm-4.3 3.3l-1.6.3.8 1.1zm4.9-.1l-1.6.3.8 1.1zm-1.7-.5l-1.6.2.8 1.1zm.1 2.9l-1.4.2.7 1.2zm0-6.5l-1.5.2.7 1.1zm.3 1.6l-1.5.2.8 1.1zm-3.7 0l-.4 1.2 1.2-.1zm1.6-13.1l.7 1 1.1-.5zm-.9 22.1l-.1.8.8-.2z"/><path d="M263.4 389.4l.6.2v-.6zm-4.7 3.9l.5-.6-.7-.2zm-2.1-3.4l-.8-.2.2.7zm4.2 0l-.3.7h.6zm-3.8-4.7l.6.4.1-.6zm3.1 2.3l-.8-.2.1.7zm1.2-1l.1-.7-.6.3zm-3.4 1.6l-.4.7h.7zm7.8.8l2.7 1-.1-2.5z"/><path d="M265.5 386.5l2.6 1.2.1-2.5zm2.6-9.2l-1.4.2.7 1.2zm-3.4 5.3l-1.4.3.7 1.2zm-.2-1.8l.2-1.6-1.2.3zm.7 1.7l.3-1.4-1.4.3zm-3.9-.8l-.8 1.5 1.5.1zm.5-4.4l.5.6.3-.7zm.2-1.1l-.3-.8-.6.5z"/><path d="M264.4 379.6l-.7.1.3.6zm1.7-5.9l-.1.7.6-.1zm-3.6 13.9l-.5-1-.6.7zm2.9 4.2l-.9.2.4.7zm2-7.2v.9l.7-.2zm-4.2-5.4l-1.3 1.5 1.7.5zm3-7.3l-.1 1.6 1.4-1.1zm-.6 2.9v1.4l1.1-.5zm-.1-2.2l-1.3.1.5 1.1zm.6 3.9l-1.4 1.4 1.7.6zm2.1-3.9l-1.6 1.4 1.7.6zm-1.7 10.8l-2 .2 1 1.5zm-1-4.3l-.4 1.3 1.1-.2zm1.4.4l-.4 1.3 1.2-.1z"/><path d="M267.1 381l-.7-.3v.6zm.6 2.1l-1.5.2.7 1.1z"/><path d="M265.6 382.6l2.6 1.1v-2.6zm0-3.2l2.6 1.1v-2.6zm.2-2.9l2.5 1.1v-2.5zm-4.3 4.6l-.3-.7-.4.5zm3.3-3.1l-.6-1.1-.7.9zm-3.9 3.9l-.3-.7-.4.5zm3.9-56.4l-.3 1.2 1.1-.2zm1.4 43.7l-.3 1.3 1.2-.3zm-3-.6l-1.6.3.8 1.1zm4.7-.1l-1.5.3.8 1.2zm-1.7-.5l-1.6.3.9 1.2zm-2.3 2.9l-1.5.2.8 1.1zm3.9-46.9l-1.5.3.7 1.1zm-3.7.2l-.4 1.2 1.2-.2zm-.4 50.3l-.1.9.7-.1zm-.2-4l.8.3-.1-.7z"/><path d="M259 374.4l.5-.5-.7-.2zm-.6 2.4l-.8-.2.1.8zm4.1-.2l-.2.8.6-.1zm-3.9-4.5l.5.4.2-.7zm2-3l-.9-.3.2.8zm2.3-42.8l-.1-.8-.6.3zm-4.8 43l-.3.7h.6zm7.6 2l2.6 1.1v-2.5zm.1-3.4l2.6 1.2v-2.6zm-2-17.8l-.4 1.2 1.1-.1zm2.5 1.8l-.3 1.3 1.1-.2zm-3-.8l-1.5.3.7 1.1zm4.3 3.6l-1.5.2.7 1.1zm.4 3.1l-1.5.3.7 1.1zm.1-6.5l-1.6.2.8 1.2zm-1.7-.6l-1.6.3.8 1.1zm.1 2.5l-1.6.2.8 1.2zm.3-4.5l-1.5.3.7 1.1zm-2.4 12.5l.3-1.5-1.4.3zm.8 2.2l.3-1.5-1.4.3zm-2.1-7.9l-.4 1.3 1.2-.3zm0-6.8l-.4 1.3 1.2-.2zm.5 8.4l-.1.9.7-.1zm0-4l.8.3-.1-.7zm-4.7 3.7l.5-.5-.6-.2zm-2-3.1l-.9-.2.2.8zm4.1.1l-.3.7h.6zm-3.8-4.8l.5.5.3-.6zm-1.8 17.8l-.9-.2.2.8zm4.1.1l-.4.6.7.1zm-3.8-4.8l.6.4.2-.5zm9.4 1.8l-.8 1.4h1.5zm-6.5-3l.6.5.2-.7zm4.4 2.7l-.4-.8-.5.6zm2.3 3.4l-.7.1.4.6zm1.8-5.8l-.1.7.6-.2zm-4.9 3.7l-1.2-.4.1 1zm5.4.8l-.5.8.9.1zm-4.2-7l.6.7.4-.8zm-1.5-1.1l-.4-.8-.5.6z"/><path d="M264.2 361l-.8.2.4.5zm1.7-5.8l-.1.7.6-.2zm.7 1.7l-.4 1.2 1.2-.1zm-1 .1l-1.4 1.6 1.7.5zm.4-2.1l-2 .2.9 1.5zm-.6 4.7l-.4 1.3 1.2-.2zm1.4.5l-.3 1.2 1.1-.1zm-6.1-8.6l-.9-.3.2.8z"/><path d="M261.8 350.8v-.8l-.6.4zm-3.5.9l-.4.6.6.1zm8.8 10l-.7-.2.1.6zm-3.5-6.8l-.5.6.7.1zm2.2 8.2l2.7 1.1-.1-2.6zm0-3l2.7 1.1-.1-2.6z"/><path d="M266 365.3l2.6 1.1-.1-2.6zm-.1-8.4l2.6 1.1v-2.5zm-.1-3.1l2.5 1.3.2-2.5zm.1-3.3l2.6 1.3.1-2.6zm-4.4 10.2l-.3-.6-.4.5zm-1-1.6l-.6-1.1-.7.8z"/><path d="M259.1 364.8l-.3-.7-.4.5zm2.7-3.8l-.3-.6-.4.4zm-.6 1l-.4-.9-.6.7zm3 3.7l-.9.2.4.5zm1.4-6.8v.9l.7-.3zm-1.8-15l-.4 1.2 1.1-.1zm2.5 2.2l-.4 1.2 1.2-.1zm1.5-3.9l-.6-.3-.1.6zm-4.6 2.9l-1.6.2.7 1.2zm5.1.4l-1.6.1.8 1.2zm-1.9-.8l-1.6.2.8 1.1zm0 2.9l-1.4.2.6 1.2zm.5-6.3l-1.6.1.7 1.2zm.2 1.6l-1.5.1.7 1.2zm-3.9-.4l-.4 1.2 1.2-.1zm2.1-13l.7 1.1 1.1-.5z"/><path d="M263.5 351.5l-.1.9.8-.2zm.2-4.1l.6.3.1-.6zm-4.8 3.8l.5-.6-.7-.2zm-2.1-6.4l-.9-.2.2.7zm4.2.2l-.4.6.6.1zm-3.7-4.9l.6.5.2-.6zm3.2 5.3l-.8-.2.1.7zm1.2-.9l.1-.7-.6.3zm-3.5 1.5l-.3.6h.6zm8 1.3l2.6 1.1.1-2.6z"/><path d="M266 344.8l2.7 1.3.1-2.5zm2.9-9.2l-1.5.2.7 1.1zm-3.6 5.2l-1.5.2.7 1.2zm-.1-1.9l.3-1.6-1.3.3zm.6 1.8l.3-1.5-1.3.3zm-3.9-1l-.8 1.5 1.4.1zm.7-4.3l.5.5.3-.7zm.3-1.2l-.3-.8-.6.5z"/><path d="M265.1 337.7l-.7.1.3.6zm1.9-5.8l-.1.7.6-.1zm-4 13.9l-.4-1-.6.7zm2.7 4.4l-.9.1.5.7zm2.4-7.1l-.1.9.8-.3zm-4.2-5.8l-1.4 1.4 1.7.6zm3.3-7.2l-.2 1.6 1.5-1.1zm-.7 2.9l-.1 1.4 1.2-.4zm0-2.3l-1.3.1.5 1.2zm.4 3.9l-1.4 1.5 1.7.6zm2.3-3.7l-1.7 1.3 1.7.7zm-2 10.8l-1.9.2.8 1.5zm-.8-4.3l-.4 1.3 1.1-.1zm1.4.5l-.4 1.3 1.1-.1z"/><path d="M267.9 339.4l-.6-.3-.1.6zm.5 2.1l-1.5.1.7 1.2z"/><path d="M266.3 341l2.6 1.2.1-2.6zm.2-3.2l2.6 1.1v-2.5zm.1-3.1l2.5 1.2.1-2.5zm-4.4 4.4l-.3-.7-.4.5zm3.3-2.9l-.5-1.1-.7.8zm-4 3.7l-.3-.8-.4.6zm5.8-12.5l-.3 1.3 1.1-.2zm-3-.8l-1.5.3.7 1.1zm4.8.2l-1.6.2.8 1.2zm-1.7-.6l-1.6.3.8 1.1zM265 329l-1.6.1.8 1.2zm-.4 3.6l-.1.9.7-.1zm0-4l.7.3v-.7zm-4.7 3.7l.5-.5-.6-.2zm-.7 2.3l-.8-.2.1.8zm4.2.1l-.4.7h.7z"/><path d="M259.6 329.9l.5.5.2-.6zm2.1-2.9l-.9-.3.2.8zm-2.4.2l-.4.6.6.1zm7.4 2.3l2.6 1.2.1-2.5zm0-3.3l2.5 1.3.1-2.6zm-2.3-7.2l-.4 1.3 1.1-.2zm2.5 1.9l-.4 1.2 1.2-.1zm1.2-4l-.7-.2v.6zm-4.3 3.4l-1.5.3.8 1.1zm4.9-.2l-1.5.3.8 1.1zm-1.7-.5l-1.6.3.9 1.1zm.3 3.3l-1.4.2.7 1.2zm-.2-6.8l-1.5.2.7 1.1zm.3 1.5l-1.5.3.8 1.1zm-3.7.1l-.4 1.2 1.2-.1zm1.5-13.1l.8 1.1 1-.6zm-.6 22.3l-.1.9.8-.2zm0-4.1l.6.3.1-.7zm-4.7 3.9l.5-.6-.6-.1zm-1.9-.4l-.9-.2.2.7zm4.2 0l-.4.7h.7zm-3.9-4.7l.6.4.2-.6zm2.9-.9l-.9-.1.2.7zm1.2-.9v-.8l-.6.4z"/><path d="M259 321.4l-.4.7h.7zm7.8 1.5l2.7 1-.1-2.6zm-.2-3.4l2.7 1.2v-2.5zm2.6-9l-1.4.2.7 1.1zm-3.5 5.3l-1.5.3.8 1.1zm0-1.8l.2-1.6-1.2.4zm.8 1.8l.2-1.5-1.3.3zm-1.8-12.9l-.8 1.5h1.5z"/><path d="M262.9 310.7l.6.5.2-.7zm.2-1.2l-.3-.8-.6.6zm2.5 3.3l-.7.2.3.5zm1.5-5.9l-.1.7.6-.1zm-3.4 14.2l-.5-1.1-.6.8zm2.9 4.2l-.9.2.5.6zm2-7.2v.9l.8-.3zm-4.3-5.6l-1.2 1.5 1.7.5zm2.8-7.4v1.6l1.4-1.2zm-.5 2.9v1.4l1.2-.5zm-.1-2.2l-1.4.2.7 1.1zm.7 3.9l-1.4 1.5 1.8.5zm1.7-4.1l-1.6 1.4 1.7.6zm-1.4 10.9l-2 .3 1 1.5zm-.8-4.2l-.4 1.3 1.1-.2zm1.4.4l-.3 1.3 1.1-.2z"/><path d="M268.3 314.1l-.7-.2v.6zm.4 2.1l-1.5.2.7 1.1z"/><path d="M266.7 315.9l2.7 1-.1-2.5zm0-3.4l2.6.9-.1-2.5zm.1-3.1l2.6 1.1-.2-2.6zm-4.1 5l-.3-.6-.4.5zm3.2-3.1l-.6-1.1-.7.9zm-3.9 3.8l-.4-.6-.4.5zm1.9-14.4l-.4 1.2 1.2-.2zm2.7 1.9l-.3 1.2 1.1-.1z"/><path d="M267.6 298.5l-.7-.2v.6zm-4.2 3.4l-1.6.4.8 1.1zm5-.1l-1.5.3.8 1.1zm-1.7-.4l-1.6.3.9 1zm.4-2.1l-1.5.3.8 1.1zm-3.9.1l-.3 1.2 1.1-.2zm-1.3 2v-.7l-.6.3zm4.6 3.4l2.7.9-.2-2.6z"/><path d="M266.2 301.4l2.7 1.1V300zm-2.1 4.5l-1.3 1.6 1.8.5zm3-7.7l-1.9.3 1 1.5z"/></g><linearGradient xmlns="http://www.w3.org/2000/svg" id="bt-C" gradientUnits="userSpaceOnUse" x1="259.715" y1="348.6085" x2="287.0917" y2="349.4135"><stop offset="0" stop-color="#cc7a5e" stop-opacity="0"/><stop offset=".9241" stop-color="#aa5f4b"/></linearGradient><path xmlns="http://www.w3.org/2000/svg" d="M269.8 422.2c-1.6-5-2-35.6-.9-71 .4-12.8.5-24.8.6-40.3-.1-5.1-1.6-37.6-3.1-47.1-2.5-9-13.8.7-15.3-.5l-.2-.1v.1c.3 1.5-14.7 8.3-13.5 13.7 1.2 5.6 10.4 56.3 11 75.4s3.1 76.1 10.8 83.3c3.2 3.1 10.6 1.6 19.9 0 4.3-.6-8.4-11.8-9.3-13.5z" fill="url(#bt-C)"/><linearGradient xmlns="http://www.w3.org/2000/svg" id="bt-D" gradientUnits="userSpaceOnUse" x1="256.6315" y1="329.2186" x2="252.3834" y2="293.1438"><stop offset="0" stop-color="#cc7a5e" stop-opacity="0"/><stop offset=".9241" stop-color="#aa5f4b"/></linearGradient><path xmlns="http://www.w3.org/2000/svg" d="M256 326.5c10.6-2 13.6-5.7 13.6-5.7l-.9-41.6-35.3 3.7 5.2 45.7c2.1-.1 8.6-.5 17.4-2.1z" fill="url(#bt-D)"/><path xmlns="http://www.w3.org/2000/svg" d="M203.4 417.9l-1-.3c.1-.5 14.1-53.4 23-82.9 3-10 5.2-18.9 7-26l2.3-9.1 9.3-34.2 1 .3c-.1.3-7 25.7-9.3 34.2l-2.3 9.1c-1.8 7.1-4 16-7 26-8.9 29.5-22.9 82.4-23 82.9z" fill="#ba6858"/><linearGradient xmlns="http://www.w3.org/2000/svg" id="bt-E" gradientUnits="userSpaceOnUse" x1="196.8836" y1="256.5081" x2="333.8839" y2="256.5081"><stop offset="0" stop-color="#874130"/><stop offset="1" stop-color="#531700"/></linearGradient><path xmlns="http://www.w3.org/2000/svg" d="M180.4 292.1c-.6.9-.4 2.2.4 2.9 4.1 3.7 16.1 9.1 50.4 10.1 36 1 47.5-4.7 52.4-7.6 1.1-.7 1.9-2.5 1.6-3.7-1.6-6.2-4.5-21.7-10.1-49.5l-7.9-36.5h-71.7s-.8 27.6-5 50.7c-2 11.2-7.7 29.9-10.1 33.6z" fill="url(#bt-E)"/><linearGradient xmlns="http://www.w3.org/2000/svg" id="bt-F" gradientUnits="userSpaceOnUse" x1="234.2503" y1="235.2115" x2="236.5502" y2="192.0004"><stop offset="0" stop-color="#330900" stop-opacity="0"/><stop offset=".9975" stop-color="#330900"/></linearGradient><path xmlns="http://www.w3.org/2000/svg" d="M192.3 247.4s14.1-7.3 26.5-9.7c33.8-6.7 56.3 6 56.3 6l-4.1-18.9c-.8-4.5-3.8-17-3.8-17h-71.6l-1.2 21.4c-.5 6.8-2.1 18.2-2.1 18.2z" fill="url(#bt-F)"/><g xmlns="http://www.w3.org/2000/svg" fill="#491913"><path d="M243.2 212.7l.2 1.4-1.6-.4zm2.2-3.2l.2 1.4-1.6-.4zm-5.9.5h-.9l.5-.9zm5.4 5.2l-1.4.9-.3-1.9zm4.4-5.4l-1.4.9-.4-1.8zm3.8-.5l-1.5.9-.2-1.9zm-8.1 0l-1.5.9-.3-1.8zm-.6 2.1l-1.5 1-.3-1.9zm3-.2l-1.3.9-.4-1.8zm-7.7.1l-1.5.9-.3-1.8zm2-.4l-1.5.9-.3-1.8zm18.7 2.3l-1.5.9-.3-1.8zm-6.3 1l-.4-1.6 1.9.3zm2.9-1.2l-.6-1.6 2.1.3zm-7.4.6l.3 1.4-1.7-.4zm-8.2 0l.2 1.4-1.6-.5zm18.1 1.6l.2 1.4-1.6-.4zm-7.7-2.3l.2 1-1.2-.2zm-6.7 0h.9l-.5.9zm4.6 6.7l.2-.8.7.6zm-2.3 3.3l-1 .2.3-1.1zm0-6.4v.9l-.8-.4zm-7 4.3l.8.2-.7.7zm18.8 5.3l-1 .2.3-1zm.1-6.3v.8l-.8-.4zm-7.1 4.3l.9.2-.7.7zm15.9 1.2l-1 .2.3-1.1zm0-6.4v.9l-.9-.5zm-7 4.3l.8.3-.7.7zm1.7-1l-1 .1.3-1.1zm1.7-6l-.3.8-.7-.7zm-8.1 2.4l.8.4-.8.5z"/><path d="M267.3 215.5l-.6.9-.6-.9zm-4.6-4.5l.6.6-1 .3zm-2 7.8l.7-.4.1.9zm-1.4-3.1v1.8l-1.9-.9zm-4.2 3.3l.8.2-.6.7zm6.2-2.4l-.4-.9h1.1zm-4.2-.1l-.8-.7 1-.4zm5.5-3.6l-.8.5-.1-.9z"/><path d="M254.9 209.8l.2.8-1-.1zm4.4 7.4l-1.4.1.6-1.4zm1.4-8.4l-.2 1.1-1.1-.7zm-10.4 4.5l1.2.4-1.1.8zm10.2 3.1l-1-.8 1.3-.5zm6.7-4.4l-.8.5-.2-1zm-9.6-3.8l.3 1-1.1-.2zm-6.4 8.7l-.7-.6 1.1-.5zm5.6-3.6l-.8.5-.1-.9zm-7.9-3l.3.8-.9-.1zm2.5-1l.2 1.4-1.6-.4zm1.5 1.6l-.7 2.1-1.9-1.6zm-2.7 1.2l-1.9 1.1-.4-2.4zm9.6-.7l-2 1.1-.3-2.4zm5 .1l-2 1.1-.3-2.4zm-1 3.2l.4-1.6 1.5 1.2z"/><path d="M266.2 215.3l.6-1.5 1.4 1.1zm-6.7-1.9l.5-1.5 1.5 1.1zm4.9-.2l.5-1.5 1.4 1.1zm2-3.3l-2 1.1-.3-2.4zm-11.3.7l.2 1.4-1.6-.4zm.5-1.8l.2 1.4-1.6-.4zm-11.2 9.5l-1 .1.2-1zm-2.3-1.4l-.4-.8h1zm2.8 3.1l-.1.8-.9-.4zm12-9.7h-.9l.3-.9zm-8.1 3.2l-.1.8-.8-.5zM261 209l-1.5.9-.3-1.8z"/><path d="M256.2 207.9h3.3l-1.4 3.2zm3.6 0l3.3-.1-1.4 3.2zm4.1 0l3.3-.1-1.4 3.2zm-11.8-.1h3.3L254 211zm15.6 12.2l1.7-1.3.7 2.2zm-19.5-12.1l3.1-.1-1.2 3.3zm-4.1 0h3.2l-1.5 3.2zm-3.7 0h3.4l-1.6 3.2z"/><path d="M263.6 208.5l.4 1.6-1.9-.5zm3.6.1l.7 2.8-1.8-.2zm.8 3.3l.6 2.4-2.4-.4zm1 4.6l.5 2.2-2.1-.4zm-5.6-4.9l.7 3-3.1-.6zm7.3 12.3l.2 1.5-1.2-.2zm-1.8-2.3l.3 1.3-1.3-.3zm-4.4-3.5l-.1 1.1-.9-.4z"/><path d="M259.4 212.7l.4 2.1-2.1-.4zm6.6 3.4l-.8 2-1.6-1.3zm1.3.3l.3 1.8-1.8-.3zm-6.8.8l-.7-.7 1-.4zm5.5-3.6l-.6.4-.2-.8zm-7.8-3l.4.7h-1zm-3.3 6.7l-.7-.5.9-.4zm-2.3 1.9l-1.1-.8 1.4-.7z"/><path d="M257.3 218l-.6-.5.8-.4zm-2.1-1l-.6-.5.8-.4zm6 1.2l.2.6h-.7zm-9.2 4.1l-.9-.7 1.1-.6z"/><path d="M257.9 217.9l-.8.5-.2-1zm-9-2.9l.3.8h-1zm-27-2.3l.2 1.4-1.6-.4zm2.2-3.2l.2 1.4-1.6-.5zm-.4 5.6l-1.5.9-.3-1.8zm4.3-5.3l-1.4.9-.4-1.8zm4.1-.6l-1.4.9-.3-1.9zm-8.4 0l-1.5 1-.3-1.9zm-.6 2.2l-1.5.9-.3-1.8zm3-.2l-1.3.9-.4-1.8zm-5.7-.3l-1.5.9-.3-1.8zm-3.6-.5l.2 1.7-1.8-.5zm-1.9.6l-.7-1.5 1.9-.1zm24.6 2l-1.5.9-.3-1.8zm-6.2.9l-.5-1.6 2 .3zm2.7-1l-.4-1.6 1.9.2zm-7.2.4l.2 1.4-1.6-.4zm-8.7.2l.3 1.4-1.7-.4zm-1.8-1.1l.2 1.4-1.6-.4zm12.2.5l.2.9-1.2-.2zm-6.7 0h.9l-.5.8zm4.6 6.7l.2-.8.7.6zm-2.3 3.2l-.9.2.2-1zm.1-6.3l-.1.8-.8-.4zm-7.1 4.3l.8.2-.5.7zm-.7 1l-1 .1.3-1zm.1-6.4v.8l-.8-.3zm-7.1 4.3l.9.2-.7.7zm27 6.1l-.9.3.2-1.1zm.1-6.3v.8l-.8-.4zm-7.1 4.3l.8.2-.6.7zm7.1-8.4l-.1 1.8-1.8-.9z"/><path d="M234.3 218.7l.8.2-.6.7zm3.8-2.4l-.7-.6 1-.5zm5.5-3.6l-.7.4-.2-.8zm-7.8-3l.3.7-1-.1zm4.5 7.2l-1.2.2.4-1.4zm1.3-8.3l-.2 1-1.1-.6zm-10.3 4.5l1.2.5-1.1.8zm12 3.2l-1-.8 1.3-.5z"/><path d="M250.1 211.9l-.9.6-.2-1.2zm-9.7-3.8l.4 1-1.2-.1zm-10.4 8.8l-.8-.6 1.1-.5zm5.5-3.6l-.8.4-.1-.8zm-7.9-3l.3.7-.9-.1zm3-1.3l.2 1.4-1.6-.4zm1.4 1.8l-.7 2.1-1.9-1.6zm-3.1 1.3l-1.9 1.1-.4-2.4zm11.9-1l-1.9 1.2-.5-2.4zm-6.7-.7l.2 1.4-1.6-.4zm.5-1.7l.2 1.4-1.6-.4zm-11.5 9.6l-1 .1.3-1zm-5.1-.7l-1 .2.3-1.1zm2.9-.8l-.4-.7h1zm-5.9-.8l-.4-.8h.9zm8.6 4v.8l-.9-.4z"/><path d="M235.9 210.1h-.9l.4-.9zm-8.4 3.4l-.1.8-.8-.6zm12.4-4.1l-1.5.9-.3-1.8z"/><path d="M235.3 207.9h3.4l-1.4 3.3zm-4.4 0h3.3l-1.4 3.2zm-3.9 0h3.3L229 211zm-10.9.1h3.3l-2.2 2.5z"/><path d="M212.4 208h3.4l-2.2 2.5zm10.7-.1h3.3l-1.5 3.2zm-3.7.1l3.1-.1-1.4 3.4zm14.7 9l-.7-.5.9-.4z"/><path d="M231.9 218.9l-1.2-.8 1.5-.7zm4.6-1.2l-.6-.5.8-.4zm-2.1-1l-.6-.5.8-.4zm-3.2 5.3l-.9-.7 1.1-.6z"/><path d="M237.1 217.6l-.8.5-.2-1zm-9.1-2.9l.5.8h-1.1zm-21.5-1.6l.2 1.4-1.5-.5zm2.3-3.2l.2 1.4-1.6-.5zm-5.9.4h-.8l.3-.9zm5.3 5.3l-1.5.8-.3-1.8zm.1-5.9l-1.3.9-.4-1.9zm-.6 2.1l-1.5.9-.3-1.8zm3.6-.4l-1.5.9-.2-1.8zm1.5-1.7l-1.5.8-.3-1.8zm-9.8 1.9l-1.4.9-.4-1.8zm2.1-.4l-1.5.9-.2-1.8zm-.4 2.7l.2 1.4-1.5-.5zm10.9-.8l.2 1-1.1-.2zm-6.6-.1h.8l-.4.9zm4.3 6.8l.3-.8.8.6z"/><path d="M214.3 211.2l.2 1-1.1-.2zm-6.7-.1h.9l-.4.9zm4.4 6.8l.4-.8.7.6zm-.9 5.1l-1 .2.2-1zm.2-6.3l-.1.8-.9-.4zm-7.2 4.2l.8.2-.6.7zm3.5-2.2l-1 .1.4-1.1zm-2.1-1.5l-.4-.7h.9zm3 2.9v.8l-.8-.4zm-.3-12.1h3.3l-1.4 3.2zm-4.2 0h3.4l-2.1 2.7zm-1.2 5.3l-1.5.9-.3-1.9zm-6.9.8l-.2-1.7 1.9.6zm3-.5l-.4-1.6 1.9.3zm1.5.2v1.7l-1.9-.9zm-1.6 4.9l.8.2-.6.7z"/><path d="M202.4 217.8l-.7-.6.9-.5zm5.5-3.5l-.7.4-.1-.9zm-7.7-3.2l.3.8-1-.1zm2.5 4.8l-.9-.8 1.3-.5zm10.2-3.2l-.9.6-.2-1.2zm-9-3.8l.4 1-1.3-.1zm64.7 5.8l.4 1.5-1.8-.5zm-70-.1l-.5 1.7-1.5-1.3zm-.8-4.1l.3 1.4-1.6-.4zm.6-1.7l.2 1.3-1.6-.4z"/><path d="M199.3 210.3h-.9l.4-.8zm3.9-.6l-1.4.8-.2-1.8z"/><path d="M199.4 207.9l3.2.1-1.5 3.3zm-3.9-.1h3.1l-1.3 3.4zm3.3 9.3l-.6-.5.8-.3zm.6 4.7l-1.1-.8 1.5-.7zm-1.9-3.2l-.6-.5.8-.3z"/></g><g xmlns="http://www.w3.org/2000/svg" fill="#9b583b"><path d="M186 282.1l.2.3.3-.4.3.1-.1-.3v-.1h-.1l-.1-.3.2.1.9 1.9.7-1.4v.1l1.3-.9-1.6-.7.2.9h-.9l.1-1.1.6-.1 1.9.5-.1-.6h.1l-.1-.1-.3-1.8-.7.8-.6-.6 1.7-1.7-3-1 .2 1.5-.9-.5-.6 2-.7 1.9.8-.3-.2.4h.2l-1.1 1.2 1.4.2zm.1-1.8h0l-.2.2-.1-.1.3-.1zm2.4 6.7l.5-1.9-2.4.4.7.5-.6.6 1.1.3-.3-.8 1 .9z"/><path d="M187.3 275.7l.9-.1.1.9 1.2-.9.1.8.1-.1.4 1.6-.9.3.8.5.1-.7 1.4-1.1.1.3.7-1-.3-.1-1.3-.6.5-.4-.6-.2.7-.8-.8-.2 1.1-.1-.5-.6.5-.3-.8-.4-.1.4-.7-.7-.6-.5-1.1-1.1v.1l-.5.3-.5 2.1-.4 1h.1l-.1.1.6.3.2.6-.6-.7.2 1.3zm2.2-1.4l.1.6-.9-.4v-.2h.8zm14.7-40.5h1l-.4-.9-.6.9zm-5.1 1.5h-.2l.2-.2-2.4-.7 1 2.2.6-.9.8-.4zm.2 18.9l-.4-1.6-1.3 1.2 1.7.4zm-.9 8.3l-.2-1.6-1.3 1.2 1.5.4zm12-6.4l-.2-1.6-.3.2-1.1-.4.2 1 .9-.6-1.1.8 1.6.6zm-8.2-11.4l-1.4 1.1 1.5.4-.1-1.5zm-1.1-2.1l-.3-1.6-1.4 1.1 1.7.5zm-3.1 26.5v-.4l.1.3 1.3-1-1.6-.3v.2l-1 .9 1.2.3zm-2.4-37.8l.1.2-.7.2.6.6.3-.5.5-1.1.2-.4-.6.2-.5-.4v-.1l-.1.1-.2-.2.3-.2-.7-.1v.2l-.4-.9-.3 2.6.7-.3.8.1zm0-.5h0zm-1.2-2.4l1.2.4-.2-1.4-1 1zm14.8 3.7l-.7.4.5.3-.2.3.7-.1-.2-.3-.1-.6zm-12 .2l.1-1-.9.6.8.4zm1.7-4.5l1-.2-.8-.6-.2.8zm16.1 1.5l-.4.6h.6l-.2-.6zm-1.4-2.7l.5-.4-.7-.1.2.5z"/><path d="M218.4 227.8l.6.3-.1-.6-.5.3zm-17.6-2.6l.3-.8-.8.1.5.7zM198 251h0l.6 1.1 1.4-1.6-2.3-.6.3 1.1zm7.6 4.5l-.9.1.5.9.4-1zm-10 1.4l.4 1.1 1.4-1.5.2.6-.1.1.2.1v.1l.8.2-.1-.5 1.1.3-.4-1.9-1.1 1.1-.8-.2.5-.6h-.1l1.1-.3-1-.6-.1 1-.9-.2.4.9h.1v.2l-1.4-.5-.1-.2-.1.1-.6-.2.3.9-.1.2.4-.2zm3-13.4l-.5 1.1h.3l.1 2.1.4-.3-.2.3h.1l.1.3-.2-.1.5 1.4.2-.1h.5l-.2-.4.8-.7-.9-.1.1-.2-.7-.1.5-.1-.4-.7 1-.7-1.7-.6h.4l-.2-1.1zm10.4 7.1l-1.3.1.8.8.5-.9zm-1.9-5.2l.9-.5-1.1-.3.2.8zm-3.5 14.9l.1.8.9-.5-1-.3zm-6-1.3l-1.1.1.7.6.4-.7zm6.6-10.8l.2-.6-.8.1.6.5zm-1-4.5l.1.5.5-.4-.6-.1zm-.6-7.1v-.8l-.6.3.6.5zm2.2 2.6l.7-.1-.4-.4-.3.5zm-5.6-.1l.3.6.4-.4-.7-.2zm8-11l-.6.3.6.4v-.7zm-3 3.8l.4-.4-.7-.1.3.5zm-5.9-5.3l.1-.7-.6.3.5.4zm2.4 2.6l.6-.1-.4-.4-.2.5zm-.2-6.5l-.3.4.5-.1-.2-.3zm-4.1.4l-.5-.1.2.5.3-.4zm19.4 13.4l.6-.5-.7-.2.1.7zm-3 5.5l-.6.2.6.3v-.5zm-4.3-4.9l-.2.5.6-.1-.4-.4zm5.3 15.7l.5-.2-.5-.4v.6zm-2.7-5.8l.4-.5-.6.1.2.4zm-8.1 9.2l.3-.1-.8-.6-.2 1.1.4-.2-.5.6-.6-.9-.6.9-1.1-.3 1 1.9-.3.3-.1-.2-.5.9 1.1-.1-.1-.2.5-.1-.3-.5 1.3-1.4 1.6-.1-1.1-1zm-.9 1.2h0zm-4.3 13.2l1-.7-1.9-.8.1 2.3.8-.8.6 1.5 1-1.1-1.6-.4zm-3.2 4.8l-1.4-.4 1.7-1.4h-.1l.4-.3.1.2.7-.7-1.1-.3.2.6-.6-.2v.7l-1.7-.6.1 2.3.1-.1.6 1.3.3-.3.6 1.4 1.3-1.5-1.5-.3.3-.4zm5.4-4.7v-.6l-.6.4.6.2zm6.8-14.8l-.8 1.1 1.5-.1-.7-1zm-4.9 6.1l-.2-.3-.5.9.6-.1.2.5.7-.7-.8-.3z"/><path d="M199.2 253.3l.9.5.1-1.1-1 .6zm.3-21.4l-1.3.2.6.8.7-1zm3.6-4.1l-.4-.9-.6.7 1 .2zm1.8 6.6v.9l.9-.6-.9-.3zm-10.3 2.4l.5-.7 1.6-.6-.9-.6.2.1-.1-.5 1.3.4v-.1l.8-.7-1-.3-.1-.7-1.1 1v-.4l.3-.2-.6.1.6-.6-1.8-.4.3 1h-.1l.2 1.1-.2.2-.8-.5-.2 2.6.5-.2h.6zm6.7 1l-.3-.5-.4 1h.4v.3l.4-.2h.1v-.1l.3-.2-.5-.3zm-.6-2.5l-1 .7 1.3.3-.3-1zm-.8-4.7l-.4-1-.6.7 1 .3zm2.1 2.3v1l.9-.6-.9-.4zm-4.2-3l-.5-1.1-.5 1.1h1zm-.2-5.3l.2.9.8-.6-1-.3zm8.6-1.9l-.6.4.7.4-.1-.8zm-8.9 2.7l-.2-1-.7.8.9.2zm-1-5.3l.1.7.8-.4-.9-.3zm6.2 3.7l.1-.8-.7.3.6.5zm-1 4.5v1l.9-.6-.9-.4zm-5.7 57.3l-.2-1.4-1.1 1 1.3.4zm-1 1.3l-.1-1-.8.7.9.3zm-.3-5.8v.7l.8-.3-.8-.4zm5.1 4.5l.5.7.2-.7h-.7zm-4.5 10.9l.5.7.2-.7h-.7zm8.4-12.4l.3-.8-1.1.1.8.7zm-5.8-.6h.7l-.3-.8-.4.8zm4.7-4.8l.7-.5-.8-.2.1.7zm1.9-1.5l.3-.8-1.1.1.8.7zm-5.1-.5l-.3-.8-.5.7.8.1zm4-5.5l.1.7.7-.5-.8-.2zm-11.6 15.5l.3-.7h-1.1l.8.7zm-.8 2.2l-.2-.8-.5.7.7.1zm.5-7.3l-.2-1.1-1.9 1.5.4.1 1.3.4v-.1l.7.1v-.3l.5-.4-.8-.2zm-.7 3.2l-.3-.8-.5.7.8.1zm-1.4 3.2l.7-.1-.4-.8-.3.9zm4.2 2.2l.9-.4-.9-.4v.8zm-2.2 4.6l.9-.4-.9-.4v.8zm-3-2.8l.9-.4-.9-.4v.8zm7.6-6l-.1.7-.3-.1.4 1.1.7-.7h-.5l.7-.3-.9-.7zm3.3-21.9l-.5.5 1.8.5-.1-1.1.3.1.9.5.2-1.2-.4.2-.6-1.3-.6 1-.2-.3-.3.4-.4-.7-.2.6v-.1l-.6.7.7.2zm.1-.4l-.1.1h.3l-.2.2-.1-.3h.1zm-15.9 21.8l1.9 2 1.2-3.2.2-.1-.3-.3.2-.5h-.4l-1.7-.8-.6 2h1.3l-1.8.9z"/><path d="M201 255.2l-.4-1.9-1.4 1.5 1.8.4zm-.6 21.8l-.4.3h-.1l-1.1 1 1.8.4-.1-1.1.9.7.4-1.5-1.4.2zm-1.9-9.6v-1.3l-1.1.9 1.1.4zm-.3-7.1l1.1-.3-1-.6-.1.9zm7.6 6.4l.4-1.1-1 .2.6.9zm5.3-4.3l-1.4.1 1 1 .4-1.1zm-7.8-.7l-.6 1 1.1.1-.5-1.1zm9.8 15.8l.5-1.2-1.4.1.9 1.1zm-7.4-1.8l-.6 1 1.1.1-.5-1.1zm6.1-5.6l1-.5-1.1-.4.1.9zm-9.4 20.9l1.1.1-.3-1.1-.8 1zm-7.5 2.6l1.1.1-.3-1.1-.8 1zm14.3-9.3l1-.6-1.2-.4.2 1zm-1.5 3.8l.4-1h-1.4l1 1zm-16.8 5l.4-1h-1.4l1 1zm-4.4-4.5l1-.6-1.2-.4.2 1zm-4.1 2.7l1.5-.9-1.8-.6.3 1.5zm-1.9 1.3l1.7.5-.7-1.7-1 1.2zm4.8-3.3l1.3 1.1.1-1.8-1.4.7zm-.3 3.1l.4-1H184l1 1zm14.6-5.1l1.1.1-.4-1.1-.7 1zm-14.1 6.6l1.1.1-.4-1.1-.7 1zm20.7-13.1l1-.6-1.1-.4.1 1zm-4.1-4.5l-.8-2.3-.9 1.2-.3-.4-.7 1.1.5-.1-.1.1 2.3.4zm3.7-4.3l-1.1-.4.1 1 1-.6zm-9.6 8.9l-1.1-.3.4 1.1.7-.8zm5.6-14.8l-.7 1.2 1.5-.2-.8-1zm-6.4-2.3l.1-1.1-1 .7.9.4zm-3.1 21.7l.8-2.2-2 .3 1.2 1.9zm1.5-6.4l-.1-.5-.7.7-1.2.1 1.3 1.9.5-1.4.2.1-.1-.6.1-.3zm11.9-21l-1.4.1 1.1 1 .3-1.1zm1.8 2.1l1.1.1-.4-1.1-.7 1z"/><path d="M188.1 270.2l2.1-.6.4.1v-.1l.4-.1-.3.3-.8.2.4.3-.1.1.5.1.2.2-.6.6.3.1.6.4-.1.1.9.4.1-1.1-.4.2.1-.4h-.2l.1-.3h.1v-.3l.2-1.1-.4.1v-.2l.6-.2.3.6.9-.9h.2l-1.2 1.2 1.7.3-.3-1.8.3-.5.5-.6-.5-.1 1.8-.4-1.9-2.4-.7 2.3-.2-.4.5-.9h-.6l-.1-1 1.1-.2.4.2v-.8l-.5.4-1.5-1.1.9-1 .2.2.3-.4.6 1.3-.2-.1.5 1.4.1-.1.1.3 1.7-2.2-3-.7.3-.5-1.3.2-.5-.1v-.2l-.1.1-.4-.2 2.3-.7.3.9 1.4-1.6-.8-.2-.7-1.8-.3.3-.1-.8-.9 1-.1-.7.9-.9-1.9-.4 1.2-.3-.1.2.9-.4 1.5-.5-.6-.3 1.4-1.6-.3-.1 1.2-1.4-.5-.1.5-.6-2.2-.6.3.9-.1-.1v.1l-.5-.1.1-.1-1.9-.4 2.2-.6.9.8.3-.9-1.2.1 1.1-.3-1.4-1.1.1-.3.3.2.1-1.1-.4.2.1-.4-1.1.3.6.4-.2.1.3.2-.2.1-1.6-1.5-.3 3.6-.4 1.9.9-.4.3 1 .5-.6.4.3.1-.8.1-.1.3.8h-.4l.7.6v.1l-1-.3.4 1.1-1.5-.1-.3-.5-.7-.6-.6 3.9.9 1.3-.5.5-.5-.7-.7 4 1.3-.2.2.5-.4.3-1.2-.1-.8 3.4 1.1-.1.4 1-1.8-.6-.9 4.2zm5.7-16.5l.4 1.1-.9-.6.5-.5zm-1.5 4.8l-.2.1 1 .3-.2.3-1.5-1.1.9.4zm-.6 4.2h0l-.1-.1.1.1zm-.2 2.4h.3l-.5.5.2-.5zm-.2 1.9l.5.1.4.6.3-.4.4.1-.1.3.6-.1.2.5-.8.2-1.5-1.3zm-1.3-1.6l.6-.2.4.3h-.1l.1.2-1-.3zm12 5.1l-.2.2-.4-.2v.4l-.5.7 1.2-.1-.1-.3.6-.1-.6-.6zm2.3-3l-1.1 1.5 2-.1-.9-1.4zm-7.6 11.1l-.1-.2-.1.1-.5-.1.5-.3-1-.7-.3 1.3.8-.4.2.6-.4.5.5-.1.4 1.1 1.4-1.5-1.4-.3zm6.6 1.7l-.8.6.7.3.1-.9zm4.4-11.6l1.7-.1-.8-1.1-.9 1.2zm-4.1 5.4l-.9-.3-.3-.4-.2.2-.5.7.7-.1.2.6 1-.7zm-6.8-24.4l1.8-1.6-1.9-.7.1 2.3zm5.1-9.4l-.4-1.9-1.4 1.4 1.8.5zm13.4 12.4l.4-1.1-1.4.1 1 1zm-7.7-1.9l-.6 1 1.1.1-.5-1.1zm6.9-6.3l-1.1-.4.1 1 1-.6zm-11.4 4.7l-.8 1.1-.3-.3-.3.4v-.1l-.2.2-.5-.7-.6 1 1.1-.1-.3.3h.7l1.9.1-.7-1.9zm3.5-1.4l1-.6-1.2-.4.2 1zm-2.5 4.7l-1.9.4 1.4 1.2.5-1.6zm-21.4 34.6l-.9 2.4 3.1-.4-2.2-2z"/><path d="M200.1 244.1l1.3-1-1.6-.3.3 1.3zm3.9-3.5h0v-.4l-.8.4.6.4-.4.8 1.5-.2-.9-1zm-7.2-2.4l.3 1.1 1.5-1.1-1.2-.2v-.6l-.7.5-.2.1.3.2zm-3.8 3.9l-.5 3.8.7-.2v.6l-.1.1-.1.3.5-.2 1.2.4-.1-.7h.1l-.1-.1-.1-.7 1.2-.3.4.3-.8.7.5.1.9.5v-.3l.4.2-.2-1.5.2-.3h-.2v-.1l-.1.1-.5-.4 1.2.1-.4-1.1 1.8-.4-1.8-2.5-.6 1.5v-.1l-1.1 1.7-.9-.7.5-.6h.1l.4-.3.4.2-.1-1.3.1-.1h-.1v-.1l1.7-.5-2.1-1.3.1-.1v.1l.9-1 .1-.2.3-.3h-.1l.2-.4-.9.2-1.4-.4.8 1.7-.5-.1v.1l-1.2-.9-.5 3.8 1.9-.6v.1l-.7.6-1.1-.3.3.8v.1h-.6zm3.8 2.6h0zm-2.7.8l-.1.1-.1-.1h.2zm9.6.2l-.4.5-.1-.2-.5.9 1.2-.1-.2-.3.6-.1-.6-.7zm2.4-3.1l-1.2 1.5 2-.2-.8-1.3zm3.3 1.2l1.7-.2-.8-1.1-.9 1.3zm-4 5.2l-.9-.3-.3-.4-.2.2-.5.7.7-.1.2.6 1-.7zm-2.4-9.6l.7-.6-.5-.1v-.1l-.2.1-.1-.1v.1l-.9.5 1 .6v-.4zm-6.6-16.5l-1.1.3 1 .7.1-1z"/></g><g xmlns="http://www.w3.org/2000/svg" fill="#441b18"><path d="M245.9 446.2c0 1.5 1.2 2.6 2.6 2.6l56.7-.1c1.5 0 2.6-1.2 2.6-2.6l-.1-2.4-61.8-.5v3z"/><use xmlns:xlink="http://www.w3.org/1999/xlink" xlink:href="#bt-H"/></g><g xmlns="http://www.w3.org/2000/svg" fill="#cf8580"><path d="M245.8 442.9l61.8-.2.1 1-61.8.2z"/><use xmlns:xlink="http://www.w3.org/1999/xlink" xlink:href="#bt-I"/></g><g xmlns="http://www.w3.org/2000/svg" fill="#823d3d"><path d="M262.8 433.4l2-.5-.3 2.1zm2.3-.7l2.1-.8-.3 1.6zm7.3-2.7l-1.7-1.5 1.5-.5zm1.9 1.6l-1.7-1.4 1.5-.6z"/><path d="M275.9 432.9l-1.6-1.3 1.5-.6zm-5.9-5.1l-.7-1h1.3zm-.8-1.3v-1.1l1.1.4zm-8.7 7.6l2.1-.6-.5 2.3zm-2.6.4l2.2-.4-.6 2.2zm-2.8.1l2.3-.1-1.1 2.1zm-5.6-1.4l1.9.6-1.5.9zm3 .9l2.1.3-1.4 1.3z"/><path d="M262.2 435.4l.6-.7.5.9zm-.5 1.2l.2-.9.7.6zm-1.2-1.4l.6-.8.5 1zm-2.6 1.5l.1-1.2 1.2.5zm-1.6-.4v-1.2l1.1.5zm1.2 1.6l-1.2-.3.9-1zm-1.9-1.4l-1.1-.4.7-1zm-2.6-.4l-1.1.4v-1.2z"/><path d="M251.3 435.1l-1 .6v-1.4zm3.2 1.7l-.6.8-.7-.8zm.1-1.6l-.4.9-.7-.8zm-1.8-1l-.5.9-.6-.8zm5.9 3.5l-1.2-.3.8-1zm-3.8.8l-1.2-.4.8-1zm10.2-3.4l-.2-1 1 .1zm2.6-2.1l-.4-.9 1.1.1zm-1.1 1.7l.4-.9.6.8zm-2.5 2.4l-.2-.6h.8zm-2 0l-.6-.3.5-.4zm-1.6-.1l-.7-.2.7-.5zm-.2-1.1l-.7-.2.6-.5zm-2.4-.2l-.7-.3.7-.6zm5.8-.7l-.7-.3.7-.6zm1.8.9l-.8-.3.6-.5z"/><path d="M267 435.4l-.6-.4.4-.5zm1.6-1.5l-.7-.3.7-.5zm4.8-4.1l-.8-.3.8-.8zm-.9-.7l-.3-.9 1 .1zm-1.8-.5l-.7-.8 1-.3zm-2.3 8.3l-.6-.3.6-.6zm1.6-4.6l-.7.4-.1-.8zm-1-.3l-.6.3-.1-.7zm2.3 4.6l-.7-.5.7-.4zm4-5.3l-.9-.4.8-.7zm1.4 2.3l-.8-.7 1-.4zm-5.8 0l-.4.4-.1-.5zm.9-5.6l-.6.4-.1-.6zm5.3 3.8l-.5.4-.1-.6zm-2.2-1.9l-.4.3-.2-.6zm-5.9 9.9l-.4.3-.2-.6zm-18.1-1.1l-.4.4-.3-.6zm15.3-5l-.6-.4.6-.4zm-9.8 3.5l-.7-.3.5-.5zm-4.7-.9l-.6-.3.7-.5zm-4.5-4.1l1.7.9-1.5.8z"/><path d="M248.9 434.4l-1.2.3.4-1.3zm-2.8 2.8l-.9.5-.1-1.1zm-.2-1.4l-.7.2-.1-1zm3.2-.2l-.6-.5.6-.3zm-2.2-1.6l-.5-.4.6-.3zm-1 .7l-.7-.4.6-.4zm20.4 3.5l-.6-.2.5-.4zm-2.3 0l-.5-.3.4-.4zm8.4-11.2v.8l-.6-.3zm-2.1-.9l-.1.7-.5-.4zm.9.5l.1.9-.8-.4zm4 1.7l.4.3-.4.4z"/><path d="M273.5 426.9v.5l-.5-.2zm-2.2-.5l-.4.3-.1-.4zm.2.6l-.4-.3.5-.3zm-1.4-1.4l-.3-.3.4-.2zm4.3 3.3v.5l-.5-.2zm-4-4.7v.5l-.5-.2zm-20.3 12.9l-.4-.3.4-.4zm5.8 2.6l-.4-.2.4-.3zm-3.5-1.1l-.4-.3.3-.4zm9.8-.1l-.2.4-.3-.4zm-6.5-.9l-.2.5-.4-.5zm4.1-.5l-.2.5-.3-.5zm-1.5 2.7l-.2.4-.3-.5zm2.4-1.4l-.2.4-.4-.4zm-2.1-.1l-.2.4-.4-.5zm-8.1-2.3l-.3.5-.4-.6zm-3.5 1.2l-.3.5-.3-.4zm-1.3 1.2l-.5.3-.1-.6zm.6 1l-.5.3v-.6zm2.7-3.6l-.4.5-.3-.5zm-1.9 0l-.2.5-.3-.5zm-1.2.3l-.2.5-.4-.5zm1.7-1.5l-.2.4-.5-.4zm-1.1.2l.4.3-.5.2zm-.6-.6l.3.3-.4.3zm0-.8l-.2.4-.4-.4zm1.4-.6l-.2.3-.4-.4zm-1.5 2.3l-.3.5-.1-.5zm3.4-1.5l-.3.4-.3-.4z"/></g><g xmlns="http://www.w3.org/2000/svg" fill="#441b18"><path d="M179.3 446.2c0 1.5 1.2 2.6 2.6 2.6l56.7-.1c1.5 0 2.6-1.2 2.6-2.6l-.1-2.4-61.8-.5v3z"/><use xmlns:xlink="http://www.w3.org/1999/xlink" xlink:href="#bt-H" x="-66.5"/></g><g xmlns="http://www.w3.org/2000/svg" fill="#cf8580"><path d="M179.3 442.9l61.7-.2.1 1-61.8.2z"/><use xmlns:xlink="http://www.w3.org/1999/xlink" xlink:href="#bt-I" x="-66.5"/></g><g xmlns="http://www.w3.org/2000/svg" fill="#823d3d"><path d="M196.2 433.4l2-.5-.2 2.1zm2.3-.7l2.1-.8-.2 1.6zm7.3-2.7l-1.6-1.5 1.5-.5zm1.9 1.6l-1.7-1.4 1.6-.6zm1.7 1.3l-1.6-1.3 1.5-.6zm-6-5.1l-.6-1h1.2zm-.7-1.3v-1.1l1.1.4zm-8.7 7.6l2.1-.6-.5 2.3z"/><path d="M191.4 434.5l2.1-.4-.6 2.2zm-2.8.1l2.2-.1-1 2.1zm-5.7-1.4l1.9.6-1.5.9zm3.1.9l2.1.3-1.5 1.3zm9.7 1.3l.6-.7.4.9zm-.5 1.2l.2-.9.7.6zm-1.3-1.4l.7-.8.4 1zm-2.5 1.5l.1-1.2 1.1.5z"/><path d="M189.8 436.3v-1.2l1.1.5zm1.2 1.6l-1.2-.3.8-1zm-1.9-1.4l-1.2-.4.8-1zm-2.6-.4l-1.2.4.1-1.2zm-1.7-1l-1 .6v-1.4zm3.2 1.7l-.6.8-.7-.8zm.1-1.6l-.5.9-.7-.8zm-1.9-1l-.5.9-.6-.8zm6 3.5l-1.2-.3.8-1zm-3.8.8l-1.2-.4.8-1zm10.2-3.4l-.3-1 1 .1zm2.5-2.1l-.3-.9 1.1.1zm-1.1 1.7l.5-.9.6.8zm-2.4 2.4l-.3-.6h.8zm-2 0l-.7-.3.6-.4zm-1.7-.1l-.6-.2.6-.5z"/><path d="M193.7 435.9l-.6-.2.5-.5zm-2.3-.2l-.7-.3.6-.6zm5.7-.7l-.6-.3.7-.6zm1.8.9l-.7-.3.5-.5zm1.5-.5l-.6-.4.5-.5zm1.6-1.5l-.6-.3.7-.5zm4.9-4.1l-.8-.3.8-.8zm-1-.7l-.2-.9 1 .1zm-1.7-.5l-.8-.8 1.1-.3zm-2.3 8.3l-.7-.3.6-.6zm1.5-4.6l-.6.4-.2-.8zm-.9-.3l-.6.3-.2-.7zm2.3 4.6l-.7-.5.6-.4zm4-5.3l-.9-.4.8-.7zm1.3 2.3l-.7-.7.9-.4zm-5.7 0l-.4.4-.2-.5zm.8-5.6l-.5.4-.2-.6zm5.3 3.8l-.4.4-.2-.6zm-2.2-1.9l-.4.3-.1-.6zm-5.8 9.9l-.4.3-.2-.6zm-18.1-1.1l-.5.4-.2-.6zm15.3-5l-.6-.4.5-.4zm-9.9 3.5l-.6-.3.4-.5zm-4.6-.9l-.7-.3.7-.5zm-4.6-4.1l1.8.9-1.5.8z"/><path d="M182.4 434.4l-1.2.3.3-1.3zm-2.9 2.8l-.9.5-.1-1.1zm-.1-1.4l-.7.2-.1-1zm3.2-.2l-.6-.5.6-.3zm-2.2-1.6l-.6-.4.6-.3zm-1.1.7l-.7-.4.6-.4zm20.4 3.5l-.5-.2.5-.4zm-2.3 0l-.4-.3.3-.4zm8.5-11.2v.8l-.7-.3zm-2.1-.9l-.1.7-.5-.4zm.9.5v.9l-.7-.4zm4 1.7l.4.3-.4.4z"/><path d="M207 426.9l-.1.5-.4-.2zm-2.3-.5l-.4.3-.1-.4zm.3.6l-.5-.3.5-.3zm-1.4-1.4l-.4-.3.4-.2zm4.3 3.3l-.1.5-.4-.2zm-4-4.7l-.1.5-.4-.2zm-20.3 12.9l-.5-.3.5-.4zm5.8 2.6l-.5-.2.4-.3zm-3.5-1.1l-.5-.3.4-.4zm9.8-.1l-.3.4-.2-.4zm-6.5-.9l-.3.5-.3-.5zm4.1-.5l-.3.5-.3-.5zm-1.5 2.7l-.3.4-.2-.5zm2.4-1.4l-.3.4-.4-.4zm-2.1-.1l-.2.4-.4-.5zm-8.2-2.3l-.2.5-.4-.6zm-3.5 1.2l-.2.5-.3-.4zm-1.2 1.2l-.5.3-.2-.6zm.5 1l-.5.3.1-.6zm2.7-3.6l-.3.5-.3-.5zm-1.8 0l-.2.5-.3-.5zm-1.2.3l-.2.5-.5-.5zm1.6-1.5l-.2.4-.4-.4zm-1.1.2l.5.3-.6.2z"/><path d="M179.4 434.2l.3.3-.5.3zm0-.8l-.2.4-.4-.4zm1.4-.6l-.2.3-.4-.4zm-1.6 2.3l-.2.5-.2-.5zm3.4-1.5l-.3.4-.3-.4z"/></g><g xmlns="http://www.w3.org/2000/svg" fill="#ad5c49"><path d="M256 311.8l.9-.9-1.5-.4zm-3 .7l.9-.9-1.4-.4zm2.7-3.9l.9-1-1.5-.4zm-10 3.7h.8l-.5-.8zm-.4-5.5l.3.6.5-.4zm7.1 3.6l-.5.3.6.4zm2.3 2.3l.8-.9-1.4-.3zm-10.9-4.1l1 .5v-1.2zm12.6-1.7l.3-1-1.2.1zm-15.6 6.4l1.3.1-.6-1.2zm-1-2.1l1.3.1-.6-1.3zm2 .1h1.2l-.5-1.2zm13.4 2.4l1.2.2-.4-1.3zm-16.9-.9l1 .2-.3-1.1zm-1.5-3.6l1.1.2-.4-1.1zm19.7-4.6l1 2 1.5-2.1zm-3.2.4l.7 2.2 2.4-2.6zm-7.1.3l.8 1.9 1.4-2zm3.4 2.1l.9-1.6-1.8-.6zm6.9 4.1l.7.5.1-.9zm-15.2 4.2l1-.1-.5-.9zm-.9-1.8l.3.8.6-.6zm12.8-9l-2.8.2 1.8 2.7zm-7.5.5h-2.9l1.7 2zm6.1 3.3l.6.7.5-1zm-14.6-3.4l.9 2 1.6-1.8zm5.3 1.9l-1.6 1.3 2 1.3zm8.7-.1l-1.7 1.3 2.3 1.1zm-1.2 2.4l-.6-.5-.2.9zm-5.9 2l-.6-.6-.3.9z"/><path d="M238.7 307.7l-.7-.6-.2.9zm4.9 3.9l1.2.5-.1-1.3zm-1.5-2.8l1.2.1-.5-1.2zm9.9 4.7l.8.2.2-.9zm-4.2-.8l.9.4.1-1zm10.6-2.5l.3-2.6-2.2 1.6zm-18.7-4.8l1.2 2.2 1.7-2.2zm-1.2 3.3l.7 1.4 1-1.4zm20.7 2.6l.8-.2-.6-.7zm8.2-7l.4.6.4-.5zm-1.2 2.1l1.1.3-.2-1.2zm-3.8 5.5l1.3-.2-.8-1zm.4-2.2l1.3-.1-.8-1.2zm2-.3l1.2-.2-.7-1zm-5 3.4h1.1l-.6-1zm-.9-4.3h1l-.5-1zm1.4 1.9l1-.2-.7-.8zm-2.2 2.8l.3.7.6-.7zm9.4-10.3l-2.8.6 2 1.5zm-8.5 1.4l1.2 1.7 1.3-2zm5.7 1l-1.3 1.6 2.2.8zm2.4 3.9l-.7-.4-.1.9zm-6.1-2.7l-.7-.5-.1.9zm5.9 1.6l1.2.3-.3-1.3zm-1.5-2.3l1.3-.1-.8-1.1zm-3.8-1.8l1.6 2 1.3-2.5zm-.6 3.5l1 1.2.7-1.5zm-14.8 1.6l2.4.1-1-2.3zm7 1.4l2.4.3-.9-2.4zm-1.7 1.7l.2 1.2 1.2-.6zm-33.6-.6l1-.8-1.4-.6zm-5.3-.2l1-.8-1.3-.6zm5.5-3l1.1-.8-1.4-.7zm-10.5 1.8l.8.2-.3-.9zm.6-5.5l.2.7.6-.3zm6.4 4.9l-.6.2.5.5zm1.9 2.7l.9-.8-1.3-.6zm-10.1-6l.9.6.2-1.2zm12.7.5l.5-.8-1.2-.1zm-16.4 3.7l1.3.3-.3-1.3zm-.6-2.2l1.3.3-.3-1.4zm2 .3l1.2.3-.3-1.2zm22.5 4.5l1.1.4-.1-1.3zm-26.2-3.5l.9.3-.1-1.1zm-.4-3.6l.9.3-.1-1.1zm19.7-1.4l.7 2.1 1.8-1.9zm-3.3-.3l.2 2.4 2.9-2.1zm-7-.8l.5 1.9 1.7-1.7zm2.9 2.6l1.2-1.4-1.7-.9zm6.1 5.3l.6.6.3-.8zm-15.5 1.5l1 .2-.3-1zm-.6-1.8l.1.7.8-.4zm14-6.8l-2.8-.3 1.3 3zm-7.4-.9l-2.9-.4 1.4 2.1zm5.4 4.4l.4.8.7-.9zm-13.8-5.8l.6 2.1 1.8-1.5zm4.9 2.8l-1.7 1 1.7 1.5zm8.6 1.3l-1.9 1 2.1 1.5zm-1.6 2.2l-.6-.6-.3.8zm-6.2 1.1l-.5-.7-.4.9z"/><path d="M201.6 304.6l-.5-.7-.4.9zm4.1 4.8l1.1.8.1-1.3zm-.9-3.1l1.2.3-.3-1.3zm8.8 6.2l.8.4.3-.8zm-3.9-1.5l.8.5.3-.9zm10.8-.5l.7-2.6-2.4 1.2zm-17.5-8l.8 2.4 2.1-1.9zm-1.7 3.1l.5 1.4 1.1-1.1zm19.8 6.1l.8-.1-.5-.8zm9.3-5.4l.3.7.5-.5zm-1.5 1.9l1 .4v-1.1zm-4.8 4.7l1.4.1-.6-1.2zm.8-2.1l1.3.1-.5-1.3zm2 0l1.3.1-.5-1.2zm-5.4 2.5l1 .2-.4-1.1zm-.2-4.4l1 .2-.3-1.1zm1.1 2.1h.9l-.5-1zm-2.8 2.4l.3.7.6-.6zm11.2-8.2l-2.9-.1 1.6 2zm-8.7-.4l1 1.9 1.5-1.8z"/><path d="M227.6 306.8l-1.6 1.3 2 1.2zm1.6 4.3l-.6-.6-.2.9zm-5.4-3.8l-.7-.6-.2.9zm5.4 2.6l1.2.5-.1-1.3zm-1-2.5l1.3.1-.6-1.2zm-3.5-2.5l1.3 2.3 1.7-2.2zm-1.1 3.4l.8 1.4.9-1.4zm-14.9-1.2l2.3.6-.5-2.4zm6.3 1.6l2.2.8-.3-2.5z"/></g><defs xmlns="http://www.w3.org/2000/svg"><path id="bt-H" d="M246.9 432c-.5-.3-1.4 0-1.5.6-.2 1.3-.4 3-.4 4.8.1 3 .9 5.9.9 5.9l61.6-.5s-.1-3.2-4.8-6.2c-4.6-2.8-31-14.5-31-14.5s-1.3-.3-2.2 1.6c-.8 2-.5 3.6.8 4.7 1.4 1.1 5.7 4.9 5.7 4.9s-.9 1.8-2.5.9c-1.6-1-4.6-2.8-5.4-2.7-.7.1-5 2.4-10.1 3-4.9.3-9.2-1.4-11.1-2.5z"/><path id="bt-I" d="M282.5 427s-.4 3.1-2.8 6.2c-.9 1.2-2 2.3-2.9 3.2-1 1-.5 2.6.9 2.8 2.5.5 6.2.6 11.2.7l17.7.4s-1-2.4-3.9-3.8c-2.7-1.4-20.2-9.5-20.2-9.5z"/></defs><path xmlns="http://www.w3.org/2000/svg" d="M238.2 127.5s6 22.4 12.2 41.8c1.5 6.6 4 11.2 6.6 15 3.2 4.5 10.4 9.1 23.1 15.6 18.8 9.7 40.3 17.4 40.3 17.4s5 5 12.6 5.7c7.7.8 8.9 1.3 10 1.1 1.7-.5.7-2 .7-2s2.2.2 2.9-1.1c.6-1.1-.7-1.9-.7-1.9s1.4-.1 1.5-1.3c0-.9-2.2-2-4.7-2.9-2.1-.8-6.4-3.9-7.3-4.4-.9-.4 1.8-.6 3.4-.6 1.8-.1 3.5-1.3.4-2.1-3-.8-5.4-1.8-6.2-1.9-.9-.2-4-.9-6.2-.7-1.5.1-3.9 1.3-6.9-.4-5.3-2.6-17.8-12.7-25.6-18.8-5.6-4.5-13.6-10.2-15.5-13.3-5.2-12.2-16.6-49.6-16.6-49.6l-24 4.4z" fill="#ea9d7d"/><linearGradient xmlns="http://www.w3.org/2000/svg" id="tp-A" gradientUnits="userSpaceOnUse" x1="331.845" y1="204.515" x2="335.316" y2="200.576"><stop offset="0" stop-color="#cc7a5e" stop-opacity="0"/><stop offset=".924" stop-color="#aa5f4b"/></linearGradient><path xmlns="http://www.w3.org/2000/svg" d="M318.4 204.7l4 1.4s1.8-.7 4.8-.8c3-.2 10.5 2 12.3 2.3 1.7.3 1.6.9 1.5 1.4 0 .5-.8.9-1.6 1s-4.8.1-4.8.1-2.2 2.5-5.6 2.5c-3.1-.1-5.5-3-5.5-3l-5.1-4.9z" fill="url(#tp-A)"/><linearGradient xmlns="http://www.w3.org/2000/svg" id="tp-B" gradientUnits="userSpaceOnUse" x1="283.212" y1="187.334" x2="298.603" y2="169.071"><stop offset="0" stop-color="#cc7a5e" stop-opacity="0"/><stop offset=".924" stop-color="#aa5f4b"/></linearGradient><path xmlns="http://www.w3.org/2000/svg" d="M272 154.5l-12.9-4.1s-1.1-.4-1.2 10.7c2.1 10.5 9.5 21.7 12 24.5 3.1 3.2 28.6 17.4 38.4 22.5 8.8 4.6 7.1 4.6 10.6 1 1.4-1.5 3.9-3.1 3.9-3.1l-4.4-1.6-32.7-24.4c-1.5-1.2-5.4-4.2-6.1-5.5-3-4-7.6-20-7.6-20z" fill="url(#tp-B)"/><linearGradient xmlns="http://www.w3.org/2000/svg" id="tp-C" gradientUnits="userSpaceOnUse" x1="263.967" y1="172.751" x2="263.312" y2="149.16"><stop offset="0" stop-color="#cc7a5e" stop-opacity="0"/><stop offset=".924" stop-color="#aa5f4b"/></linearGradient><path xmlns="http://www.w3.org/2000/svg" d="M255.1 180.9l6.9-1.5c11.1-2.1 16.9-5.2 16.9-5.2l-7.2-20.5-22.9 8.6c-.2 2.7 3.5 14 6.3 18.6z" fill="url(#tp-C)"/><g xmlns="http://www.w3.org/2000/svg" fill="#cc7a5e"><path d="M346.8 221.1c-.73 1.82-2.95.87-3.25.77s-.45-.27-.35-.57.2-.48.5-.38c.92.32 1.9.7 2.2-.12.28-.73-.54-1.14-.74-1.24-.2-.2-.26-.26-.06-.46.1-.2.32-.36.32-.36s.58-.04.88-.24c.2-.2.2-.3.2-.7-.07-.52-.7-1.26-3.2-2.36-3.3-1.5-8.8-4.84-9-4.94-.2-.2-.3-.4-.2-.6s.03-.28.23-.38c1.7.1 5.17.18 5.97-.22.1-.1.26-.22.2-.3-.68-.95-3.55-1.45-4.4-1.7-2.8-.9-6.5-2.1-9.2-1.6-2.8.5-4.6.8-6.4.1-1.7-.7-2.6-1.2-21-15.1-18.1-13.6-19.6-15.8-19.7-15.9-.6-.6-1.7-2.5-1.6-2.6.3-.1 1.5 1.1 2.4 2 .1.1 1.9 2.5 19.5 15.7 18.2 13.7 19.2 14.4 20.8 14.9 1.5.5 3.2.3 5.8-.2 3-.6 6.9.8 9.7 1.7 4.1 1.1 4.86 1.84 5 2.4.1.44-.12.9-.52 1.2-.8.6-2.88.5-4.48.5 1.9 1.2 5.1 3.1 7.2 4.1 2.8 1.3 3.82 2.13 3.88 3.22.06 1.23-.7 1.35-1.04 1.42.4.67.7 1.15.36 1.96z"/><path d="M346 219.4h0c-.1.3-.4.4-.6.3l-9.8-4.2c-.3-.1-.4-.4-.3-.6.1-.3.4-.4.6-.3l9.8 4.2c.3 0 .4.3.3.6zm-2 2.1h0c-.1.3-.3.4-.6.3l-8.6-3.3c-.3-.1-.4-.3-.3-.6s.3-.4.6-.3l8.6 3.3c.3.1.4.4.3.6z"/></g><linearGradient xmlns="http://www.w3.org/2000/svg" id="tp-D" gradientUnits="userSpaceOnUse" x1="329.53" y1="216.851" x2="329.04" y2="208.077"><stop offset="0" stop-color="#cc7a5e" stop-opacity="0"/><stop offset=".924" stop-color="#aa5f4b"/></linearGradient><path xmlns="http://www.w3.org/2000/svg" d="M325.8 212s-2.7 2.4-1.1 5c1.3 2.3 4.2 2.6 5.6 2.5 2.4-.3 4.5-3.4 4.3-5.5 0-2.2-1-2.5-1-2.5s-1.9 1.5-3.8 1.7c-2.6.2-4-1.2-4-1.2z" fill="url(#tp-D)"/><path xmlns="http://www.w3.org/2000/svg" d="M334.8 219.1c-.1.4-.34.77-.5 1.3-.1.3-.4.4-.6.3-.3-.1-.4-.4-.3-.6.1-.4.3-.7.4-1 .4-.8.76-1.6 1.06-2.7l.94-3.4c.1-.3.3-.4.6-.4s.4.3.4.6c.08-.17-1.35 4.6-2 5.9zm.2-8.8h0c-.1.2-1.5 2.3-4.7 3-3 .6-5.2-1.5-5.4-1.6-.2-.2-.3-.5 0-.7.2-.2.5-.3.7 0 0 0 1.9 1.8 4.4 1.3 2.7-.6 4-2.5 4-2.5.2-.3.4-.3.7-.1.3.1.3.4.3.6z" fill="#cc7a5e"/><g xmlns="http://www.w3.org/2000/svg" fill="#af6b56"><path d="M279.4 174.6l1 1.3-1.4.1zm3.6 5.4l.4 1.1-1.3-.3zm4.6 2.1l-1.2.4.2-1.2zm-2-1.7l-1.2.4.2-1.2zm10.7 9l-.9.3.2-1zm-15-7.4l.9-.3-.8-.5zm1.6 1.7l.8-.5-.7-.4zm3.2 2.2l1 .3-.2-.9zm.3-1.4l.7-.5-.7-.4zm6.1 3.4l.9.4-.1-.9zm-3.3-2.9l.8.3-.2-.8zm.2 2.2l.7.2-.1-.6zm-5-1.2l.7.3-.1-.7zm-5.1-4.8l.7.3-.1-.8zm.3-3.7h1l-.5-.8zm2.6 1.9l.9.2-.2-.8zm-1.6-2.2l.8-.4-.6-.5zm-1.7 1.6l.8-.5-.7-.3z"/><path d="M279.4 178.3h1.1l-.6 1zm-1.1-.2l.3.9-1-.1zm-.1-5.1l.1.9-.7-.4zm-1.7 6.1l.3.8-.7-.1zm2.6-2.6l-.1.8-.6-.5z"/><path d="M278.7 176.6l1 .1-.5.8zm2.4 2l1.1.2-.8.8zm-10.5-18.9l1.4-.5-.4 1.6zm.3 3.2l1.5.1-.8 1.2zm5.5 4.9l-1.5-.3 1-1zm1.9 5.5l-1.2-.2.8-1zm-5-5.9l-1.4-.1.7-1.1zm2.4-1.6l-1.3-.2.8-1.4zm-3.2-.1l-1.3.1.4-1.1zm2.6-2.2l-1.4-.3.9-.9zm-2.1-2.2l1.1.7-1 .6zm-.6 9l-.6-1h1.2zm-.4-1.4l-.5-1h1zm2.7 1.7l-.6-1 1-.1zm-2.3 1.7l-.5-1h1zm-.1 1.5l-.4-.9.7.1zm4.6-1.3l-.5-.9.9-.1zm1.7 3.5l-.4-1 .9.1zm-3.4-3l-.4-.8.8-.1zm1.3 2.7l-.8-.3.5-.6zm.7-5.4l-1-.3.5-.6zm-2.2 3.6l-.8.4-.2-.8zm-1.7 1.3l-.9.4-.2-.8zm0 3.5l-.7.4v-.6zm2.1-1.4l-.1.9-.6-.3zm-2.5-13.6v.9l-.7-.3zm-.2-3.4l1-.4-.1.9zm1.3 14.9l.2.4h-.4zm-.9 4l.3-.1v.4zm4.2-.7l.1.4-.4-.2zm-1.1-6.2l.2.2-.3.3zm.9 4l.3-.2.1.4zm2.2 1.7h.3l-.2.2zm1.7 2.5l.1-.2.2.2zm-.3-.8l.4.2v-.4zm.8-2.8l-.1.4.3-.1zm2.3 2.9h-.3l.1.4zm-7.1-8.3v-.5l-.4.1zm-2.9.2h.4l-.2-.4zm1.7-3.3l.2.3.3-.2zm3.8 11.3v-.2l-.2.1zm-1.4-1.5l.2.1.1-.1zm13.2 8.4v-.3l-.2.2zm-3.2.2l.2-.1-.2-.2zm1-2.7l.2.3.2-.3zm-1.4.6l.2-.3h-.5zm-3.2-2.3l.2.1v-.5zm1 5.4l.2-.4h-.4zm-3.2-2.5l.3.1-.1-.3zm3.1-1.6l.1.4.1-.2zm7.9 9.8l.3-.5-.6.1zm-3.8-2.8h.3l-.1-.4zm3.7-2v.3l.3-.1zm-13.1-2.2l.2-.2h-.3zm-2.5-1.9l.3-.1-.1-.1zm2.5-1.4v.3l.2-.1zm-.6 1.5l.2.1-.1-.4zm.7-3l-.1.1.3-.1zm2.1 1.5l-.3.2.3.1zm-1.3-7.1l.4-.2-.3-.2zm-2-1.8l.4.2v-.3zm-.4 6.9l-.2-.3-.1.4z"/></g><path xmlns="http://www.w3.org/2000/svg" d="M315.4 202.4l-4.2 11.7c-.2.6.2 1.1.6 1.4l5 1.7c.6.2 1.1-.2 1.4-.6l4.2-11.2c.2-.6-.2-1.1-.6-1.4l-5-2.1c-.5-.4-1.2 0-1.4.5z" fill="#ffcce1"/><linearGradient xmlns="http://www.w3.org/2000/svg" id="tp-E" gradientUnits="userSpaceOnUse" x1="267.157" y1="125.098" x2="226.756" y2="141.676"><stop offset="0" stop-color="#ed89ae"/><stop offset="1" stop-color="#f4c0ca"/></linearGradient><path xmlns="http://www.w3.org/2000/svg" d="M235.4 175.2s-6.4-19.5-7.7-32.3c-1.2-12.9-11.2-35.2 3.3-40 15.3-5.3 30.6 14.4 38.8 29.8 5.3 10.6 9.2 22.6 9.2 22.6l-43.6 19.9z" fill="url(#tp-E)"/><linearGradient xmlns="http://www.w3.org/2000/svg" id="tp-F" gradientUnits="userSpaceOnUse" x1="276.921" y1="167.061" x2="236.388" y2="157.802"><stop offset=".007" stop-color="#ff9f00"/><stop offset=".983" stop-color="#ffd86b"/></linearGradient><path xmlns="http://www.w3.org/2000/svg" d="M277 149.4l-43.4 20.1 2 5.8 43.8-19.6z" fill="url(#tp-F)"/><g xmlns="http://www.w3.org/2000/svg" fill="#ffcce1"><path d="M237.9 158.3h1.2l-.8-1.2zm-1.7.9l1-.1-.7-1.1zm-.9-2.1l1-.1-.6-1zm.8.8l1.2-.1-.8-1zm3.4 2.2l.3-1.2-1.4.2zm-2.5 2l.4-1.2-1.6.2zm.4 3l.4-1.2-1.6.2zm-3.1-7.9l.4 1.5 1.5-1.2zm3.1-.6l.3-1.1-1.4.1zm.2 3.9l.3-1.2-1.3.2zm-1.3-5.5l.3-1.3-1.4.2zm4.5 9.7l-1.4.3.8 1.2zm-2.4 2.5H237l.8 1.4zm-.1-4l1.1-.2-.8-1zm-1.4-7.9l1.1-.2-.7-1zm-2.1.2l1.1-.1-.6-1zm5.9 11.4h.6l-.4-.8zm-1.3-4.8l.1.7.7-.5zm5.8 1.9l-.4.3.5.4zm-.8-.3l.4.4.3-.6zm-2.5-2.9l.6.4.2-.8zm-1.3-7l.4.6.4-.6zm3.6-3.2l-.5.4.6.2zm-.4 6.9l-.4.4.7.2zm1.3-.9l-.6-.2v.7zm-.4-2l-.2.7.6-.1zm2.7 1.3l-.2.6.7-.1zm-10.5 8.1l1-.2-.6-1z"/><path d="M238.1 164.9l1.3-1.2-1.7-.8zm.7-2.6l.5-1.7-1.8.3zm-.3 4.2l1.1-.4-.9-.9zm-1.1.8l1.1-.2-.8-1z"/><path d="M240.2 155.7l-.7-.2.1.7zm-1.4 11.7l-.3-.5-.5.5zm0-6.3l.5-.3-.6-.4zm-2.4 3.5l.7 2.4 2-1.8zm-1-2.9l.7 2.4 2.1-1.8zm-.8-2.9l.7 2.5 2-1.8zm-.8-3.9l.5 2.3 2.2-1.6zm9.3 9.1l-.5-.3-.1.7zm-1.9-.1l-.9-.5.1 1.3zm-.6-3.3l-.5-.3v.7zm3.7 4.8l-.5-.2-.1.7zm-6.5-14.4l.7.2v-.8zm-4.1-6.6l.5.5.4-.8zm1.2-3l-.3.6h.8zm-1.9-3.3l-.3.6.6.1zm-1.4-2.8l-.4.5.8.1z"/><path d="M238.9 148.3l-.6-.2.1.8zm-2.7-.4l-.7-.2.1.8zm-2.5-1.6l1.3.5-.1-1.5zm5.1-2l-.1.7.6-.3zm-6.4-7.5v.6l.6-.2zm-1.1-2.5l-.1.7.8-.2zm6.2 11.2l-.2-.6-.5.5zm-1.9-.6l-.1-.7-.6.6zm4.6 7.3l-.1-.5-.6.4zm2.7 12.1l-.5-.2v.6zM232 145.7h.8l-.4-.7zm1.9 2.7l.4-.9h-1.1zm-.3 2.3l.4-1.1-1.2.1zm-1.8-6l.7-.5-.8-.5zm5.1 5.6l-1.3.1.6 1.1zm0 2.4h-1.2l.7 1.2z"/><path d="M239.9 153.1l-.6-.4v.8zm-1.1 4.2l.2-.6-.7.1zm-3.7-4.2h.5l-.2-.5zm-1.4-3.1l.9-.3-.6-.8z"/><path d="M234.5 151.1l1-.9-1.4-.6zm.1.5l1-.1-.5-.8zm-1.1 1.2h1.1l-.7-1z"/><path d="M235.2 153l-.2-.6-.5.5zm-1.7-.2l.4 2.2 2.3-1.3zm-.7-2.3l.4 1.9 1.8-1.1zm-.4-2.2l.4 1.7 1.6-1.1zm-.9-6.3l.1 1.5 1.5-.8zm.5 4.1l.3 1.6 1.5-.9zm-.3-6.9l.4.3.2-.6zm1.3 2l1 .4-.1-1.2z"/><path d="M231.3 136.8l1 .5-.1-1.3zm1.3 5.2l.4-.8h-.9zm-1.3-2.1l.1 1.4 1.3-.8zm-.2-2.5l.2 1 .9-.5z"/></g><linearGradient xmlns="http://www.w3.org/2000/svg" id="tp-G" gradientUnits="userSpaceOnUse" x1="223.909" y1="154.96" x2="283.317" y2="160.938"><stop offset="0" stop-color="#ed89ae"/><stop offset="1" stop-color="#f4c0ca"/></linearGradient><path xmlns="http://www.w3.org/2000/svg" d="M195.1 207.8h79.3s-5.4-49.2-8.2-65.6c-3.5-20.6-18.9-43.3-39.3-42.4-4.1.1-13.1.3-18.6 38.1-2 11.7-13.2 69.9-13.2 69.9z" fill="url(#tp-G)"/><linearGradient xmlns="http://www.w3.org/2000/svg" id="tp-H" gradientUnits="userSpaceOnUse" x1="240.979" y1="171.651" x2="194.223" y2="153.058"><stop offset=".01" stop-color="#bc547a" stop-opacity="0"/><stop offset=".985" stop-color="#bc547a"/></linearGradient><path xmlns="http://www.w3.org/2000/svg" d="M243.7 118.3s7.2 24.4 4.6 64.1c-2.7 21.7-7 25.4-7 25.4H195l9.9-49.8 38.8-39.7z" fill="url(#tp-H)"/><g xmlns="http://www.w3.org/2000/svg" fill="#c65d80"><path d="M228.5 163l1.3-.7-1-.8zm-.5-3.9l1-1-1.1-.5zm-24.1 12.2l1.5.9.2-1.5zm7.8 2.9l1.4-1.1-1.3-.8zm-7.2-5.9l1.4.9.2-1.5z"/><path d="M204.1 167.6l1.5.9.2-1.5zm3.1 1.7l1.6 1.1.2-1.6zm4 1.4l1.5 1 .2-1.6zm17.3-15.1l1.5.8.1-1.6zm-24.6 9.3l1.2 1.4.6-1.4zm22.5-6.6l1.4 1.1.3-1.5zm1.5 1.3l1.4 1 .3-1.4zm.8-1.9l1.5.7.1-1.5zm-2.4 4.4l1.7.6-.1-1.5z"/><path d="M225.6 161.9l1.4.8.2-1.6zm1.7 1.9l1.4-.3-.8-1zm-20.9 4.9l.8-.7-.8-.4zm-1.7.9l-.3-.8-.5.5zm5.6 2.8l-.8.1.3.7zm.9 1.5l.6.8.4-.7zm-5-.4l.8-.3-.5-.5zm1.2 4.3l-.1-.9-.6.4z"/><path d="M209.9 173.6l-.6.9.9.1zm.5-1.7l.6.7.2-.8zm-5.2-.9l.8-.4-.7-.4zm-1-3.6l2.2-.3-1.1-1.8zm2.5 18.1l1.4-1-1.4-.8zm-.2-18.9l1.4-.5-.9-1zm-.8-1.1l1.4-.6-1-.9zm.5 7.5l.6.9.4-.8z"/><path d="M230.6 164.1l-.7.6.8.2zm-22.1 10.6l.8-.3-.5-.5zm-3.8-4l.9-.2-.5-.6zm1.7-6.4l-2.4-2.4-.5 2.6zm25.4-8.7l-1.7-2.8-1.7 2.5zm-2.1 2.6l-1.5-2.7-1.8 2.3zm-1.8 2.6l-1.6-2.8-1.8 2.3z"/><path d="M226.1 163l-1.6-2.7-1.8 2.3z"/><path d="M224.3 165.4l-1.5-3-1.9 2.4zm-17.9 3.4l-.6 1.3h1.2zm2.2 4.2l-.7 1.3 1.2.1zm-3.3 14.8l-1.1 1.1 1.3.3z"/><path d="M228.1 163.4l1.5.9.1-1.6zm-.5-.1l-1.3 1.2 1.5.6zm-6.5 1.4l-1.2 1.3 1.5.5zm2.3.8l-1.3 1.3 1.5.5zm1.5-2.3l-1.2 1.3 1.4.5zm2 4.4l.2-1-.9.2zm-.3 4.7l-.8-.4-.2.8zm-22.2 6l-.6.6.6.3zm9.3-3.6l1 .5v-1zm-4.6-1.2l.6-.7-.8-.2zm2.7 6.3l-.5-.6-.4.6zm12.4-11.2l1.4-1.2-1.5-.6zm-17.3 9.9l-.3-.8-.6.5zm-3.3-4l-.4.9h.9zm.8-4.9l.8.5.1-.8zm21-5.3l.6-.6-.7-.2z"/><path d="M204.7 191.8l-.6-.9-.5.8zm3.7 4l-.9.2.6.5zm.6-8.5l.1.8.7-.2zm-2.6.5l-.5-1-.5.8zm3.2 3.4l-.8.3.5.5zm.8-6.7v.9l.8-.3zm4.1-8.4l.3 1.1.6-.6zm-1.2-2.7l.9-.1-.4-.7zm-1.4 3.8l.2-.8-.8.2zm15.2-1.1l-.7.7.8.3zm1.3-7.2l-.6.8.8.2zm1.2 3.2l.4.7.5-.7zm-6.9.8l.8-.2-.5-.5zm1.9-10.2l2 1.2.2-2zm.3-1.4l1.7.6-.1-1.5zm-.1 3.6l.5 1.5.9-.9zm-19.1 10.5l-.1.9.7-.3zm2.5 3.5l.2 1.2.8-.6zm-2.1-4.9l1 .1-.2-.8zm24.5-2.8l.2-1-.9.3zm-8.1-3.5v-1.4l-1.2.6zm-3 1.5l1.2-.7-.9-.8z"/><path d="M221 169.4v-1.5l-1.3.5z"/><path d="M219.8 167.9l-1.4 1.8 2 .4z"/><path d="M220.2 165.8l-1.8 2 2.2.5zm-.2 4.1l1.4 1 .3-1.5zm-2.3 1.3l1.3 1.3.5-1.5zm2.2 1.3l1.4-.5-1-.9zm-1.8-1.9l1.3-.7-1-.8zm6-1.7l.1.8.6-.4z"/><path d="M219.9 170.7l-1.4-3-1.9 2zm-18.1 18.9h1l-.5-.8zm-1.7-1.8l.7 1.2.7-1.1zm.7-1.4l.8 1 .6-1.1z"/><path d="M202.8 189.3l.6.9.6-.8zm14.3-14.6l-1.4.7 1.1 1zM202.9 186l-1.5.5.9 1zm16-13.9l-1.5.7 1.2.9zm2.7 2.3l-.5.9h.8zm1.1-4.1l.6.6.3-.7zm-5.8 2.5l.6-.5-.5-.3zm-2.6 5.9l-.5.8.9.1zm5.2-3.9l.6.5.2-.6zM205 192.3l.8-.3-.5-.4zm-2 5.5l-.7 1.1 1 .3zm9.4-19.6l.5.6.3-.6zm-11.3 17.2l.7-.3-.4-.5zm21.5-17.1l-.5.8.8.1zm1.2-4.1l.5.5.3-.7zm-5.9 2.4l.8-.3-.6-.5z"/><path d="M215.5 177.7l1.1.2-.2-.9zm-.7 2.2l.4-.8h-.7zm-.1 3.1l-.6-.6-.2.7zm-1 3.1l.9-.4-.8-.6zm3.1-8.1l.9.1-.3-.8zm-2.3 7l.4-.7-.7.1zm2.5-3h.9l-.2-.7zm-1.7-.5l.2-.8-.7.2zm-.7 7.4l-.7-.4v.7zm16.7-29.4l.1.8.7-.3zm.6 3.8l-.9.3.6.6zm.8-6.6v.8l.8-.3zm3.2 1.5l1-.4-.8-.6zm3.4-2.4l.3-.7-.7.1zm-2.4 5.2l-.7-.4v.7zm-25.8 20l-.7.7.7.3zm19.3-5.7l-.4.8.8.1zm-26.3 6.1l.4.7.4-.6zm24.4-6.7l.6.7.2-.6zm-22.2 7.8l-.5.8.7.2zm-3.2 1.6l.9.4v-.9zm21.2-5.9l-.6-.5-.2.7zm-4.9 4.9l.9-.5-.8-.5zm-13.2 7.2l.9.3-.2-.9zm-2.7-2.7l.5-.6-.7-.2zm3 10.7l-.5-.5-.3.7zm-2-11.8l.9.1-.2-.8zm28.9-21.5l.1-.8h-.7zm-27 27.5l-.6-.4-.1.7zm-5.3-7.7l1.2-.1-.5-.9zm7.5-8l1.8.5-.3-1.6zm6.7-2.1l1.2-.4-.8-.8zm-.4-2.1l1.3-.6-.9-.8zm1.5-.7l.1.8.5-.4z"/><path d="M218.3 172.1l-1.5-2.6-1.8 2zm-16 10.5l-2-1.4-.4 2.4zm-.7 2.7l-1.9-1.5-.4 2.3zm-.4 2.2l-1.9-1.3-.3 1.9zm.5-5.4l2-.2-.9-1.6zm-1 16.2l2-.2-.8-1.6zm5.9-16.6l1.5 1.2.4-1.7zm-2.3-8.4l1.5 1.5.6-1.7zm-3.3 17.5l1.4-.2-.7-1.1z"/><path d="M201.9 190.8h1.4l-.6-1.2zm-.7.8l.9 1.5.9-1.3zm-2.2 1.2l.7 1.6 1.1-1.2zm1.3 1.5h1.5l-.6-1.2zm-1.1 3.4h1.5l-.6-1.2zm23.2-28l1.4-.2-.7-1zm4.1 2l1.5-.1-.8-1.1zm6.5-10.9l1.5-.1-.7-1.1zm-26.2 11.3l2.2-.3-1-1.5zm-2.8 22.1h1.5l-.6-1.2zm-4.9 1.2l1.4-.1-.6-1.1zm.1-3.8l1.4-.2-.7-1.1z"/><path d="M203.2 194.9l-.8.2.6.6zm-1.6-4.9l-2.6-1.9-.6 2.6zm-1.7 4.2l-1.5.3.7 1.2zm7.6-19.6l-.8-.4-.1.8zm5.7-1.8l-.4.6.6.2zm-4.3-2.8l.5.6.3-.7zm-2.6-2.2l.7 1 .5-.9zm3 .1l.5 1.2.9-.8z"/><path d="M209.7 169.3l-.7.3.4.5zm.6 1.5l2-1.2-1.6-1.4zm-2.1-1.7l2.4-1.1-1.7-1.5zm5.8 5l2-1.3-1.6-1.4z"/><path d="M212.2 172.6l2.7-.6-2.1-2zm-5.7-5l2.4-1.1-1.7-1.6zm-9.4 30.7l2.3-1.3-1.9-1.4zm.9-4.9l2.3-1.3-1.9-1.5zm6.1-15.9l1.1-.1-.5-.7zm-1.7-1.8l.7 1.2.7-1.1zm.7-1.4l.9 1 .5-1.2zm2 2.9l.6.9.6-.8z"/><path d="M205.2 173.9l-1.4.5.8 1zm.2-1.9l.9.4v-.9zm.5 3.5l.4-.6-.7-.2zm-2.5-2.8l1.2-.1-.4-.9zm1.2-2.2l-2-1.4-.4 2.3zm.5-2.5l-2-1.5-.4 2.4z"/><path d="M205.5 165.8l-2.1-1.4-.4 2.3zm-1.6 7.4l-1.8-1.5-.5 2.3zm-.4 2.2l-1.8-1.3-.4 1.9zm.5-5.4l2-.2-.9-1.6zm-.7 8.7l1.4-.2-.6-1.1z"/><path d="M204.2 178.7h1.4l-.5-1.2zm-2.7.8l1.4-.2-.7-1.1z"/><path d="M203.9 177.9l-2.6-1.9-.5 2.6z"/><path d="M200.3 181.3l2.3-1.4-1.9-1.4zm-2.8 14.5l2.3-1.2-1.8-1.4zm2.2 3.5l1 1.5.8-1.3zm28.7-32.4l1 1.5.8-1.4zm2-9l1.1 1.4.7-1.3zm-3 7.3l-.4 1.7 1.5-.4zm-2.5 4.6l-.3 1.7 1.4-.4zm-15.4 3.4l-.2 1.8 1.5-.5zm-6.7 22.1l-.4 1.8 1.6-.4zm35.9-53.8l.9-.2-.5-.7zm1.2 7.3l-1.3.5 1.1.8zm-2 3.4l-.1-1-.8.5zm6.8-18.2l-.2.8.7-.1zm-3.7 15.1l-.1-1.1-.8.6zm2.2-10.2h-.9l.3.7zm-.5-4.8l-.3.7h.9zm-6.6 15l1 .3-.2-.9zm-.9-2.3l.2 1.3 1-.6zm1.1-1.1l.4 1.3 1-.9zm.8 3.5l.2 1.1.9-.6z"/><path d="M238.4 146.1h-1.5l.4 1.3zm-.3 6.7h.8l-.3-.6zm-4.8 1.4h.8l-.2-.6zm11.1-13.3l-1 .4.6.6zm-3.2 1.4l.1.8.6-.4zm2.4-5.4l.1.7.6-.3zm-.7 7.3l-.8.5.6.5zm-3.7.3l.8.7.3-.9zm.7 6.9l.7.5.2-.8zm-1.5-3.5l.7-.4-.6-.4zm1.3-.7l.8.5.2-.9zm-.4 6.3l-.4-.6-.4.6zm-2.1-9.1l1.1.4v-1.1zm1.5-2l-1.1-1.5-.9 1.5zm-1.4 2.2l-1-1.6-1 1.6zm-1 2.3l-1.3-1.8-1 1.6zm3.1-5l.9.3-.1-.9zm1.6-2.3l.9.3-.1-.9zm-.2-2.2l.9.3-.1-.9zm-5.9 12.6l1.4.3-.2-1.3z"/><path d="M235.7 150.3l1.3.5-.1-1.3zm-.9.4l.3 1.8 1.3-.9zm-2.5.4l.1 1.7 1.4-.7zm.7 1.8l1.4.6-.2-1.4zm3.4 1.3l1.4.6-.1-1.3zm-5-.6l1.4.4-.1-1.3zm1.5-3.6l1.4.3-.2-1.2zm2.5 4.6l-.7-.1.2.7z"/><path d="M235.2 148.9l-1.3-2-1 1.7zm-2.5 3.8l-1.6-.2.3 1.4zm-1.5-1.4l2.6-.4-1.3-2.1zm6.9-11.7l1.6-.3-.8-1.2z"/><path d="M229.8 153.4l2.6-.4-1.2-2zm3.3.8l-1.1 1.5 1.6.3zM212 175.4l1 1.5.8-1.4zm-6.9 5.1l1.7-.4-1-1.2zm-.8 17.1l1.7-.4-.9-1.2zm2.1-21.1l1.5 1 .3-1.4zm-8.7 21.7l.7 1.6 1.1-1.2z"/><path d="M196.6 201.1l2.2-1.4-1.8-1.3z"/></g><linearGradient xmlns="http://www.w3.org/2000/svg" id="tp-I" gradientUnits="userSpaceOnUse" x1="193.279" y1="204.6" x2="272.679" y2="204.6"><stop offset=".007" stop-color="#ff9f00"/><stop offset=".983" stop-color="#ffd86b"/></linearGradient><path xmlns="http://www.w3.org/2000/svg" d="M274.5 208l-79.4-.2 1.2-6.6h77.4z" fill="url(#tp-I)"/><path xmlns="http://www.w3.org/2000/svg" d="M210.8 115.7s-15.6 17.1-28.6 32.8c-4.7 4.8-7.3 9.4-9.1 13.7-2.1 5.2-2.1 13.6-.7 27.8 2 21.1 7.1 43.3 7.1 43.3s-1.5 6.9 2 13.7c3.4 7 4.42 8.08 5.22 8.88 1.3 1.2 2.3-.78 2.3-.78s.3 2.4 1.7 2.3c1.2-.1 1.63-1.7 1.63-1.7s.6 1.08 1.7.48c.7-.5-.01-2.98-.6-5.68-.5-2.2-.35-7-.35-8-.2-1 1.45 1.2 2.35 2.6 1.1 1.5 3.1 1.7 2.1-1.3s-1.4-5.5-1.7-6.3-1.4-3.9-2.8-5.6c-.9-1.2-3.1-2.6-3.4-6-.7-5.8 1.1-21.9 2-31.7.7-7.1 1.2-16.9 2.8-20.3 7.5-11 32.9-40.7 32.9-40.7l-16.5-17.5z" fill="#ea9d7d"/><linearGradient xmlns="http://www.w3.org/2000/svg" id="tp-J" gradientUnits="userSpaceOnUse" x1="184.647" y1="186.036" x2="208.328" y2="189.142"><stop offset="0" stop-color="#cc7a5e" stop-opacity="0"/><stop offset=".924" stop-color="#aa5f4b"/></linearGradient><path xmlns="http://www.w3.org/2000/svg" d="M206.3 158.8l-3.5-13s-.3-1.2-9.6 4.8c-7.7 7.5-13.2 19.7-14.1 23.3-1 4.4.8 33.5 1.8 44.5.9 9.9-.1 8.5 4.9 9.5 2.1.4 4.7 1.6 4.7 1.6l-1.1-4.6 2.9-40.7c.2-1.9.6-6.8 1.3-8.1 1.7-4.9 12.7-17.3 12.7-17.3z" fill="url(#tp-J)"/><linearGradient xmlns="http://www.w3.org/2000/svg" id="tp-K" gradientUnits="userSpaceOnUse" x1="186.588" y1="161.787" x2="206.098" y2="148.507"><stop offset="0" stop-color="#cc7a5e" stop-opacity="0"/><stop offset=".924" stop-color="#aa5f4b"/></linearGradient><path xmlns="http://www.w3.org/2000/svg" d="M174.9 158.7s1.8 1.6 5 5c7.8 8.2 13.5 11.4 13.5 11.4l13.4-17.1-19.6-14.7c-2.4 1.4-9.9 10.6-12.3 15.4z" fill="url(#tp-K)"/><g xmlns="http://www.w3.org/2000/svg" fill="#ffc1a6"><path d="M176.5 159.8l.7-.1-.1.9zm-.7 5l.1-.6.6.3zm5.9-2.8l-.6-.2.6-.5zm-6.8 4.5l.6.4-.7.4zm-1.4 1.2l.8.4-.8.5zm-1.3 3.9l.8-.7.3 1.2zm.1 4.5l-.6-.8 1.1-.3zm1.8-2.3l-.9-1.1 1.5-.5zm-2.2 6l-.1-1.6 1.6.5zm1.8-18.9l1.3-1.7 1.1 1.9zm3.2-5.7l1.6-2.3 1.5 2.7zm-4.9 13.2l.5-.4.2.7zm5.2 3.2l-.3-.5h.7zm-3.9-4.7l-.3-.6.8-.1zm6.3-4.5v.9l-.8-.4zm-5-1l.6.1-.4.6zm2.3 6l.2-.6.6.6zm-.5-11.3l1 1.9-2.3.2zm3.7-5l.5 1.4-1.5-.2zm2.8-3l.5 1.4-1.7-.2zm-8.6 15.4l-.1.8-.7-.6zm.3-1.9l-.2.8-.6-.5zm3-6v.8l-.8-.3zm4.4 0l.6.2-.4.5zm-5 7.5l.3-.5.4.6zm3.3-5.6l.4-.5.5.6zm1.8-2.7l-.8.2.1-.8zm2.6-6l-.1.7-.6-.4zm-8.1 9.3l.2 1.3-1.5-.5zm3.4-1.5l-1.1.4.1-1.2zm-1 5.1l-.7.2v-.8zm.8-8.8l.7.1-.5.6z"/><path d="M180.9 166.6l-.1.4-.5-.3zM178 165l.4.2-.4.3zm.2 4.1l.4-.3.2.4zm-3.6 5l-.4-.4.7-.1zm3.1-1h-.4l.1-.4zm-3.4-2.7l.1.4-.4-.1zm3.3 11.1l-.3-.1.3-.4zm2.1-2.5l-.3.3-.1-.4zm-4.1-.6l.3.4-.5.2zm8.4-8.4l.4-.2v.5zm1-12.6l-.6.5-.2-.8zm-2.3-4.6l.4.6h-.9zm-3.3 5.7l.7-.2-.2.8zm-.9 5.7l-.8.2.1-.8zm-2.3-3.8l.3.5h-.7zm-3.5 3.3l1 1-1.5.7zm-.5 3l1.1.9-1.4.8zm-.5 2.8l1.7 1.1-1.8 1.2zm3.8-7.3l1.4.6-1.3 1zm-1.6 3.2l1.2-.7.2 1.7zm3.4-5.3l1.2-1.2.5 1.7zm8-8.2l-.7.1.2-.8zm-2.5-1.1l-.8.2.4-.9zm3.5-.5l.6-.1-.2.6zm-4.5 5.4h.5l-.2.5zm.5-4l-1 .8-.5-1.4zm2.7 2l-.5.3-.2-.7zm-5.3 6.8l-.5.3-.1-.7zm6.4 1.6l-.6.3.1-.7zm1.7-11.1l.1.4h-.5zm-5.2 4h.5v.5zm-10.8 18.5l.5-.6.4.9z"/><path d="M174.7 177.8l-.4-.6h.8zm2.4-6.1l-.5.2v-.7zm-2.1 2l.6-.6.3.9zm2.9 4.3l-.3-.6.7-.2zm2.5-6.1l-.6.1.1-.6zm-.7 1.4l-.2.7-.7-.6zm-4.5-2.6l.6.3-.6.4zm.4 6.5l.4-.5.3.7zm-1.9 6l.4-.5.5.8zm3 4.2l-.4-.5.7-.1zm2.3-6l-.6.2.2-.7zm-4.1 5.8l.4-.5.5.8zm2.9 4.2l-.3-.5.7-.1zm2.4-5.8l-.7.1.1-.7zm-6.2-9.5l.5-.6.4.8zm-.3-6.1l.5-.5.4.7zm.6 11.4l.4-.7.5.8zm2 8.1l-.2-.7.9.2zm-3.4-26.1l.5-1.5 1.2 1.2zm4.4 16.7l-.5-.5.7-.2zm2-6.2l-.6.4v-.7zm-.9-9.7l.7-.4.3.9zm1.6-5.9l.7-.3.1.8zm-2.9 11l.7-.5.1.9zm-.7 8.4l.1-.8.8.4zm6.3-26.7l.1-.7.7.5zm-2.4 18l-.3-.5h.8zm3.8-5.1l-.6-.1.2-.6z"/></g><g xmlns="http://www.w3.org/2000/svg" fill="#af6b56"><path d="M192.1 160.9l.6.4-.7.3zm-2.8 3.2l.4-.4.2.5zm5.1.8l-.3-.5.6-.1zm-6.1 2.4l.3.1-.4.3zm-1.8 1.7l.1-.3.1.4zm3 .7l-.1-.2h.4zm3.6-16.7l.4.4-.6.3zm.9-.1l1.1 1.1-1.4.3zm-.6 23l-.6 1.5-.9-1.2zm-2.6 5.9l-.8.9-.4-1.2zm.7 5l-1.1-.8 1.2-.5zm.3-2.6l-1-.8 1.1-.5zM190 198l-.7-.5.9-.4zm-1.9-16.6l.8.6v-.9zm-.5 2.3l.8.4v-.9zm-.1 3.9l.2 1 .7-.7zm1.3-.5l.8.3v-.8zm.4 7l.2.9.7-.5zm.6-4.4l.3.9.5-.7zm-1.7 1.4l.2.6.5-.4zm-1.6-4.9l.1.7.6-.4zm1.2-6.9l.2.8.6-.6zm3.3-1.8l.6.9.4-.8zm-.2 3.2l.4.9.5-.6zm1-2.5l.8.4.1-.7zm-2.3-.5l.9.4-.1-.8z"/><path d="M190.2 177.8l.7 1h-1.2zm-.4-1l-.6.8-.4-1zm4.2-2.9l-.6.6-.1-.8zm-6 1.9l-.5.8-.3-.8zm3.6.8l-.7.3.1-.7z"/><path d="M191.2 176.3l.6.9-1 .1zm-.3 3.1l.4 1-1.1-.2zm8.5-21.7l1 1.1-1.3.4zm2.1 2l1.1 1-1.5.4zm-2.5 2.5l.7 1.3-1.5-.1zm-1.5 7.4l-.6-1.4 1.4.3zm-3.6 4.6l-.5-1.1h1.3zm2.2-7.4l-.6-1.2h1.2zm2.7 1.2l-.6-1.2 1.6-.1zm-1.1-3.8l-.8-1 1.2-.2zm2.7 2l-.5-1.3 1.3.3zm2-2.5l-.6-1.3 1.3.2zm-1.3-.5v1.4l-1-.6zM189.8 149l1.1 1.1-1.3.4zm-3.8-3.5l1 1.1-1.4.4zm.9 2.6h1.5l-.6 1.2zm-1.8 4.2h1.2l-.5 1zm-1.9-2.7h.9l-.4.8zm.7-2.1h1l-.5.8zm1.7 2.6l.9-.1-.5.8zm2.6 6.4l1.1-.1-.5.8zm3.4 2.1l.5-.8.5.8zm-.9 3.2l.6-.8.4.8zm1.9 4.6l.6-1 .7 1zm1.2.2l.6-1 .5.8zm.4 3.1l.6-1 .6.8zm-4.2-2.1l.6-.9.5.8zm-5.6-10.4l.8-.7.4.8zm-2.1 2.2l.7-.9.3.7zm7.9 10l.5-.8.4.6zm3.6 3.1l.5-.8.5.7zm-2 3.4l.6-.8.4.7z"/><path d="M192.5 171.4l.4-.8.6.7zm-1.6 2.6l-.2-.9.8.1zm4.9-2.4l-.3-.9.8.1zm-4.2.2l-.8-.5.5-.6zm-2-.8l-.9-.5.6-.6zm-3.1 1.5l-.7-.5.5-.3zm2.4 1.4l-.8.4v-.7zm.5-5.6l-.7.4-.1-.7zm5.7-6.5l-.7.2-.1-.6zm-5.7-8.3l1.5-.1-.8 1.4zm.9-3l1.2.1-.6.9zm1.6 1.5l1.2-.1-.5.9zm2.9 2.6h1.1l-.5.9zm-2.4.5l.7.8-.8.3zm-7-8.2l.9.7-1.1.2zm3.3 8l1.1-.2-.4 1zm5.4 3.1l1.1-.1-.3.9zm3.7-.7l1-.1-.4 1zm.5 2.2l.9.6-.9.4zm2.9 1.7l.9.6-.9.4zm-5.9-.5l.8.7-.9.4zm-4.1-2.5l.8.7-.9.4zm4.3 1.1l.9.7-.9.4zm-2.5-2.9l.5-1 .5.9zm2.6.4l1.2-.2-.5 1zm4.3 2.3l1.1-.1-.6.9z"/><path d="M196.9 155.6l1.1 1-1.3.5zm-5.6-2.6l.6-.3v.6z"/><path d="M197.5 157.4l-.3-.6.6.1zm-7.6-6.3l-.3.6-.5-.5zm-3.4-2.4l.4.3-.6.2zm-.3 5.2l.4-.2.2.5zm.8 6.3l-.2-.3h.4zm2.7-.5h-.5l.1-.4zm-2.5-2.4l.1.3-.5-.1zm-4.8 19.2l-.2-.3.3-.1zm2.7-2.7l-.2.1v-.4zm-3.1-1.2v.2h-.2zm.2-7.5l-.4-.3.4-.3zm1.4-5.4l-.2.4-.2-.5zm-4.7.8l.3.4-.4.1zm7.4 4.9l-.3-.3.4-.1zm1.1-4.1l-.2.2-.1-.3zm-3.5.7l.2.2h-.3zm6 9.6l-.2.4-.2-.4zm-3.8 1.4l.2.2-.3.2zm2.8 3.2l-.2.2-.1-.3zm4.6-4.3v.3l-.3-.1zm-2.8 2.9l.3.1-.2.3zm-.3 2.7l.2.3h-.3zm-1.1 2.8h.2l-.1.3zm1.2-20.1l-.4-.1.3-.3zm1.2-4.4l-.2.3-.2-.4zm-4 .7l.2.3h-.4zm2 1.1l-.2.3-.2-.5zm-3.5-3l.1.3h-.4zm-1 3.9l.3-.1-.1.4zm.7 2.5l-.3.2-.1-.5zm-4.3-3.6l.3.3h-.5zm-1.1 4.6l.3-.2v.6z"/><path d="M186.5 166.3l.2.2-.4.2zm-3 3.6l.3-.1.1.4zm4 1l-.1-.3.3-.1zm11.4-13l-.2.6-.4-.5zm-2.8-2l.4.4-.5.2zm-.2 4.4l.3-.4.2.5zm-2.5-2.1h-.5l.3-.6zm1.2-3.3l-.2.5-.3-.5zm-4.2 1.1l.4.2-.5.4zm4.8.9l-.5.1.1-.6zm-3.7-1l.4.1-.2.4zm5.2 7.3h-.5l.2-.7zm.8-3.3l-.2.3-.4-.2zm-4.1 1.4l.3.3-.3.2zm7.8 1.8h-.6l.4-.5zm-.9-3.9l-.2.3-.3-.3zm-1.9 1.4l.3.3-.4.1zm-6.5-6.1l-.4.2v-.6zm-.1-3.5v.5l-.4-.2zm-3.5 2.7h.4l-.2.5zm.1-3.7l-.4.2v-.5zm-1.6-3v.5l-.5-.2zm-2 2.2l.4.2-.3.2zm4.2 3.4l-.5.2.2-.6zm-.2-3.5l.2.6-.6-.3zm-3.4 2.6l.3.1-.2.4zm13.8 9.1l.6-.3v.7zm.9 4l-.2-.6.6.2zm2.9-3.5h-.4l.2-.5zm-6.7-2.6v-.5l.6.2zm-12.9-7.3l.6-.1-.2.6zm-.2 4.1v-.5l.5.3z"/><path d="M187.7 152.9l-.5-.1.4-.5zm-1.2-1.3l.6-.1-.1.8zm-.2 4.2v-.6l.5.4zm4.5-2.6l-.5-.2.5-.5zm-.6 13.7v-.7l.6.4zm3.7 1.6l-.5-.2.4-.4zm-1-5.2l-.2.5-.3-.6zm-.1 4.1l-.2-.5h.7zm4.1-.2l-.6-.1.2-.4zm-3.1-4.3l-.1.5-.5-.3zm-4.1 16.8v.4l.4-.2zm2.8-.8l-.4.1.3.2zm-1.1 3.5l-.2-.3-.2.3zm4.3-17.4l.3.4.1-.6zm1.1-2.2l-.2.2.4.1zm1.6 2.8h-.3v.2zm-3.9 6.2l.4-.2-.3-.3zm-1.7-2.3l.2.4.2-.4zm3.6-.3l-.1.3.4.1zm-7.4 9.3l.2-.1-.2-.2zm.5-2.1v.4l.2-.1zm.1 15.7l.2-.1-.3-.1zm-2-2.6l.3.2v-.2zm2.9-.5l-.1.2.3.1zm-1.3-.9h.3l-.2-.5zm.2-4l.1.3.4-.3zm-3.9 3.8l.4-.1-.2-.2zm.3-4l.1.3.2-.3zm3 1.7l-.2.3h.2zm-3.9 12l.5-.1-.3-.4zm.3-4.8l.2.3.2-.3zm3.6 2.1l-.2.2.2.1zm-5.2-12.2h.3l-.1-.2zm.2-3.1l.3.1v-.1zm2.5 1.3l-.1.1.1.2zm-1.5.3v.2l.2-.3zm2.9-1.1h-.1l.2.2zm-.2 2.6l-.2-.1v.3zm5.4-4.9l.3.3v-.5zm.4-2.7v.5l.3-.2zm-6 3.5l.1-.4-.4.1z"/></g><linearGradient xmlns="http://www.w3.org/2000/svg" id="tp-L" gradientUnits="userSpaceOnUse" x1="196.379" y1="236.145" x2="201.568" y2="236.941"><stop offset="0" stop-color="#cc7a5e" stop-opacity="0"/><stop offset=".924" stop-color="#aa5f4b"/></linearGradient><path xmlns="http://www.w3.org/2000/svg" d="M189 224.9l1 4.1s1.5 1.2 3.3 3.6 4 9.9 4.7 11.6c.6 1.6.1 1.8-.4 2.1-.4.3-1.2-.2-1.7-.8l-2.73-3.24s-3.27-1.26-5.07-4.06c-1.6-2.7-.5-6.3-.5-6.3l1.4-7z" fill="url(#tp-L)"/><linearGradient xmlns="http://www.w3.org/2000/svg" id="tp-M" gradientUnits="userSpaceOnUse" x1="199.366" y1="152.612" x2="224.821" y2="101.379"><stop offset="0" stop-color="#ed89ae"/><stop offset="1" stop-color="#f4c0ca"/></linearGradient><path xmlns="http://www.w3.org/2000/svg" d="M175.7 135.7s11.9-13.1 20.5-21.6c11.6-10.9 28.5-20.9 42-9.2 12.8 10.9 4.8 25.2-2 37.6-6.7 12.3-21.5 29.1-21.5 29.1l-39-35.9z" fill="url(#tp-M)"/><linearGradient xmlns="http://www.w3.org/2000/svg" id="tp-N" gradientUnits="userSpaceOnUse" x1="221.161" y1="155.698" x2="173.739" y2="147.174"><stop offset=".007" stop-color="#ff9f00"/><stop offset=".983" stop-color="#ffd86b"/></linearGradient><path xmlns="http://www.w3.org/2000/svg" d="M219.1 166.6l-39.2-35.3-4.2 4.4 38.9 35.8z" fill="url(#tp-N)"/><g xmlns="http://www.w3.org/2000/svg" fill="#d87390"><path d="M222.6 153.9l-1.3-1-.4 1.9zm5.3-.2l-1.1-1.3-.8 1.7zm-5.5-4.2l-1.9.5 1.4 1.8zm8.1.5l-1.9.6 1.4 1.8z"/><path d="M232.3 145.3l-1.4 1.2 2 1zm-4.9 8.1l-1.8 1 1.9 1.4zm-2.2-1.4l-1.7 1 1.8 1.4zm2.7-1.5l-1.9.5 1.3 1.8zm-4.5 4.3l-2 .5 1.3 1.7z"/><path d="M223.5 155.8l-1.8.8 1.6 1.5zm4.4-9.2l-1-1.4-.9 1.8z"/><path d="M221.7 155.2l-1.5-.5v1.8zm7.2-9.4l-.8-.9-.6 1.2zm-4.5 6.3l.5-.8-1-.3zm-3.6-9.1l1 .3-.1-1.1zm-3.4-1.8l-.9.6 1.1.7zm5.7 4.9l-.7-.6-.3 1.1zm-9.3 2.7l.5-.9h-1.2zm10.7-6.1l.6 1.2.9-1.1zm6-4.8l-.7.6 1 .5zm1 9.7l-.7-.6-.3 1.1z"/><path d="M232.7 148.3l-1-1.3-.9 1.6zm-.8-2.4l-2.5-1 .3 3zm6.8-8l-2-.2.9 2.2zm-9.5 9.5l-2.5.8 1.8 2.3zm2.5-3.8l-1.6-.8v2zm2.1 0l-1.5-.7v2zm-15.3 3.5l-.9.8 1.1.6zm-1.5 5.3l.6.8.5-1z"/><path d="M217.4 145.3l-.8-.6-.3 1zm9.5 2.1l-.9-.4-.1 1.1zm7-1l1.7-2.7-3.4-.6zm-3.3 5l1.6-2.1-2.7-.7zm-2.3 3.4l1.6-2.1-2.9-.7zM236 141l-1.8.6 1.5 1.6zm3-3.7l1-1.9-2.4-.2zm-13.4 20.9l1.7-2.1-3-.8zm-2.6 3.6l1.9-2.6-3.4-.9z"/><path d="M220.7 164.7l2.3-3-4.1-1.1zm2.1-17.1l.3 1.6 1.5-1.1zm-2.4 5.2l-1.8.7 1.5 1.6zm-2.3 3.1l1.2 1.7 1.2-2z"/><path d="M218.3 164.7l1 1.7 1.2-1.9zm-1.7-2.8l1.2 1.7 1.1-2zm2.8-2.3l1.2 1.6 1.2-1.9zm-3.5-21.7l-1.2.2.7 1.1zm3.1 7l-.5-.9-.6.9zm-9.6-1.5l.7-.6-.9-.5zm7.6 17.8l-1.4-1.7-1.1 2.2zm-4.7-11.7l.5-.8-1.1-.3zm4.4 2.3l.1 1.1 1.2-.5zm7.4-2.1l-.9.2.7.9zm-2.8 9.2l-.4-.8-.7.9zm12.6-28.4l-.6 1 1.3.1zm7.3 2.2l-1-.2.2 1.1zm-7.6 6.3l.1-1-1 .4zm-20.7 15l-.5 1.1 1.3-.1zm3.5.7l-.5 1.1h1.3zm-11.2-10.2l-.3.7h1zm5.7 12.6l-.4 1.2h1.4zm4-2.3l-.6 1.2h1.6zm-8-15.2l-.3.7h1zm13.5 15.6l-.9-.2.2 1.1zm2.3 1.2l-2.4 1.1 2.1 2zm2.4 0l-1.9.3 1.3 1.9zm-7 1.7l-.7 1.4 1.8.2zm-3.1-9.2l-.3.9 1.1-.2zm-5-3.4l-.6 1.2 1.5.1zm8.4 2.2l-1.1-.3.3 1.3zm-8.1 7.4V154l-1.1.5zm7.8 10.6l.2-1.7-1.8.3zm-4.3-5.1l-.3 1 1.1-.2zm-.1-9.9l-1.1.2.5 1zm2.1 6.7l-.3-.8-.8.6zm-8.5-2.3l.8-.5-.9-.5zm5.7 3.8l1.2-1.2-1.8-.7zm-9.3-17.3h-1.1l.6 1.2zm2.1 6.6l-.3-.8-.7.6zm-8.4-2.3l.7-.5-.9-.5zm10.7 1.1l-1-.5v1.2zm-1.4 6.9l.2-1-1 .2zm-6.2-6.2l.8-.1-.4-.9zm14.3 12.9l-.7-1.8-1.7 1.5z"/></g><g xmlns="http://www.w3.org/2000/svg" fill="#ffa124"><path d="M202.2 153.2l-.1-1.2-1.1.6zm6.5 8.2l1-.3-.9-.9zm-8.2-3l1.1 1.1.2-1.8zm-.4-5.9l-.3.7h.9zm-5.3-4.1l-.4.7h1.1zm9.2 5.5l-.5 1.2h1.6zm-6-3.3l-.5 1.2h1.5zm15.5 12.7l-.1-.9-.9.5zm.1 6l1.4-.9-1.7-1zm2.8-.8l.1-1.7-1.8.7z"/><path d="M213.7 168.9l1.1 2.5 2.1-2.4z"/><path d="M216 166.7l.8 2.6 2.1-2.6z"/><path d="M216.2 167.3l-.5-2.1-1.9 1.4zm-3.7-3.4l-.7-1.9-1.5 1.4zm-.3 2.2l-.1-1.6-1.7.8z"/><path d="M211.8 167.6l1.4-1.1-1.7-.9z"/><path d="M210.1 167.2l2.7 2.4 1.6-3.8zm-9.6-9.4l.8-.8-1.3-.4zm3.5 1.1l-.7-1.6-1.2 1.3zm2.1 2.7l-.4-1.5-1.3 1.1z"/><path d="M203.7 157.5l-.5-1.2-1 1.1zm6.1.7l-1.5 1.2 1.9.9zm1 1.9l-1.5 1.1 1.9.9zm4.1 2.5l-.1 2.2 1.5-.7zm-9.5-2.2l.8-1.1-1.5-.3z"/><path d="M207.6 161.4l.4-2-2.3.4zm.8.4l1-.9-1.4-.6zm-.4 3.1l1.1-1.2-1.6-.6zm2.1-1.4l-.6-.6-.3 1z"/><path d="M207.4 164.8l2.7 2.3 1.6-3.5zm-2.7-2.3l2.2 2.1 1.2-3.2zm-2.8-2.7l2.1 2 1.3-2.9zm-2.7-2.5l.4-1.6-2 .3zm7.4 1l1.2-1.2-1.8-.6zm-16.2-9.6l.8-.9-1.1-.3zm3.5.9l-.6-1.4-1.2 1.3zm2.3 2.9l-.5-1.6-1.4 1.1z"/><path d="M193.8 148.4l-.6-1.2-.9 1zm1.7 2.8l.7-1.1-1.5-.2zm9.3 5.6l.4-1.2-1.4.2zm-5.5-1.4l.4-1.6-1.8.3zm-4.4-1.9l2.3 1.9 1-3zm-2.9-2.8l1.7 1.6.9-2.1zm-2.9-2.5l.5-1.7-2 .4zm13.2 6.7l.8-.8-1.1-.3zm-1.7 1.5l1.3-1.2-1.8-.6zm12.7 9l1.2-1.2-1.8-.6z"/></g><g xmlns="http://www.w3.org/2000/svg" fill="#ffcce1"><path d="M238 104.8l-.4 1.4 1.3-.2zm-19.9 3.9l.6-.6-.7-.3zm-7.1-4.3l.6-.6-.8-.2zm10.1 6.5l-.5-.8-.5.7zm11.7-7.3l1 .5.1-.9zm-13.7-.2l1 .4v-.9zm-2.2-1.8l1 .4-.1-.9zm22.6 7.3l1.8-.6-1.1-1.2z"/><path d="M241.5 112.1l1.8-.1-.8-1.5zm-1.2-2.6l1.1.7.2-1.3zm0 3.6l1 .4v-.9zm2.3.1l.9.4.1-.9zm-14.7-12.3l.6-.6-.7-.2zm5.4 2.7l-.7-1.4-.8 1.2zm-3.2-1l-.5-.8-.5.6zm-5.7-.3l-.2 1 .9-.3zm-.5-2.4l.7.7.4-.7zm1.1 4.6l.7.4v-.8zm10.3 6.9l.8.3.1-.7zm3.1 1.1l.8.4v-.7zm2.5 2l.7.3.1-.7zm.7.7l.7.4v-.7zm-26.4-9.9l.8.4v-.8zm-1.8-1.5l.9.3-.1-.7zm4.6.8l-.2.9.8-.3zm3.3-2.3v.9l.6-.2zm-2.4-.1l.6-.7-.8-.1zm18.6 11.9l-.3.5.5.1zm-.2-3.2l.3.5.2-.5zm-6.6 1l.5-.4-.4-.2zm2.8-.8l.4.5.3-.4zm-6.8.1l.5-.1-.3-.3zm-13.4-1.5l.6-.1-.5-.3zm10 3.4l-.2-.6-.3.3zm-4.7 1.1l-.1-.5-.3.2zm4.3 6.1v-.6l-.5.2zm.3-14.6l.2 1.1.7-.6zm6.2-5.6l.6 2 1.3-1.2zm8.6 8l.2 1 .7-.5zm-16.4-7.7h.8l-.3-.7zm-2.8 6.7l.2-.8-.7.1zm5.8-6.4l-.6 1.4h1.4zm-1.6.8l-.4 1 .9-.1zm.3-1.7l-.4.9h.8zm3.9 6.4l.7.6.3-.8zm-7-4.9l.5-1.3-1.3.2zm21.5 12.5l.7.6.2-.8zm-2.4-5.7l.4-.5-.5-.3z"/><path d="M244.1 116.6l.5-.5-.5-.2zm-.2-1.6l-.4-.6-.3.5zm-4.2-4.8l-.1.8.7-.2zm1.4 1l.2 1.2 1-.6zm-2-1.6l-.2.8.7-.1zm-2.4-2.6l-.2.9.7-.2zm1 .2l1.6.6-.2-1.5zm3.9 3.5l.5.3v-.7zm-5.7-1.6l.4-.5-.6-.2zm4 2.4l-.3.7h.7zm1.9 5.8l.5.4.1-.6zm.4-4.4l.5-.5-.6-.2zm-1.9 2.6l-.2.8.7-.1zm-3.5 1l.5.4.1-.7zm7.3 1l.5.4.1-.6zm-4.9 1.2l.5-.5-.6-.3zm4.2-2.1l-.7.1.4.5zm1.8 4l-.6.1.3.5zm-.2-2.3l-.6.1.3.4zm-.9 3.7l.1.6.5-.3zm-.7 2.5l.2.7.5-.4zm.9-4.9l-.7.4.5.5zm-3.1-1.8l.1.7.4-.4zm.1 3.4l.7-.1-.2-.5zm-.3 2.2h.7l-.2-.6zm1.9 3.9l.2.7.5-.4zm-3.7-2.3l.7.1-.2-.7zm-.7 3.9h.7l-.2-.6zm-2.8-25.7l.1 2.6 2-1zm-1.1.8l.8.2-.2-.7zm1.6 2.3l.7.1-.2-.6zm-3.7.4l.2-.7h-.6zm-11.5-1.5l.2-.6-.6.1zm13.4 1.2l.3-.6h-.7zm-2.6-5.2l.1.8.6-.4zm-1.7 4.6l.2.9.6-.5zm3-4.2l.3 1.7 1.2-.8zm-5.9 2v.8l.7-.4zm-5 4.3l.1.8.6-.4zm-.2 7.5l.6-.6-.6-.3zm3 2.1l-.5-.7-.4.7zm2.2 2.3l-.1-.7-.4.4zm-1.1-5.2l.2.8.5-.4zm2.6 3.3l.2.8.7-.3zm1.9 4.5l.1.8.6-.4zm6.8-2l.1.8.6-.4zM226.6 101h.7l-.2-.7zm1.9.5l.3-.7-.6.1zm-2.7.5l.4-.7-.6.1zm-10.2.8l-.2 1 .9-.2zm.6 2.4l.7.3v-.8zm-3.6-2.3l-.1.9.7-.3zm1.8 3.4l.2 1 .7-.6zm1.4-5.1l-.5 1h1zm-1.6.9l-.4 1 1-.1zm-2 3.7l.3-.7-.7.1zm5.6-1.6l.2-.6-.6.1zm11.5 3.2l.2.9.5-.4zm-.1-2.8l.7.1-.2-.6zm-2.9 4.1l.3-.7-.6.1zm-.3-7.9l.7-1.1-1.1-.1zm4.8 3.3l.8-.4-.6-.4zm-.6-1.6l.8-.5-.6-.4zm4.2 6.1l-.2-.8-.6.5z"/><path d="M234.3 107.5l1.2.7.1-1.4zm1.8-.4l.4.4.3-.5zm-3.6.2l.3.6.3-.6zm2.3-2l.4-.6-.6-.1zm-1.5-.5l-.2-.9-.6.5zm-1.1 1.9l-.3-.7-.6.5z"/><path d="M230.1 109.7l-.2-.8-.6.5zm2.2-5.7l-.2 1.5 1.3-.4zm-5.1-2.3l-.6.8.8.2zm-1.2 3.4l-.7.8 1 .3zm12 3.9l-.5.7.9.3zm-2.7 3l-.6.8.9.1zm-1.2-6.1v.8l.6-.2zm-4.6-2.8l.6.2v-.6zm1.4 2.3l.4-.6-.6-.1zm-2.6-.2l.4-.6h-.6zm2.5 3.4l.8.3-.1-.7zm2.1 11.6h.5l-.1-.5zm-3.3-2.6l.6.2-.1-.5zm3-4.1l.2.8.6-.5zm-5.3-1l-.3.8h.8zm6.5 3.1l-.3.8.7-.1zm-3.2-.4l.4-.4-.5-.3zm4 2.1l.4.6.3-.5zm-6.1-13.5l.5-.6-.6-.1zm-8.3.7l.8.4.1-.7zm3-.6l.1.8.6-.4zm-3.2-2.1l.3.9.6-.4zm2.2 1h.7l-.2-.6zm1.8.6l.3-.5-.6-.1zm-2.8 0l.5-.6-.6-.1zm.3-1.4l.3-.6-.6-.1zm11.4 7.4l.2-.7h-.6zm-9.6-4.2l1.5.9.2-1.6z"/><path d="M226.4 102.3l1.5.9.1-1.6zm-4.7-1.7l-.5.9.9.1zm2.9 5.6l-.3 2.1 1.8-.6zm5.8-4.7l-.2 2.1 1.7-.6zm4.5 1.1l-.8 1.8 1.8.1zm-8.4-2.5l-.1 2 1.8-.6zm-1.6 1.9l-.1 2.1 1.7-.6zm3.3.6l-.2 2.1 1.7-.6zm-5.4 0l.5 2 1.5-1.1z"/><path d="M222.5 101.6l.1 2.1 1.6-.9zm7.7 6.1l1.4.9.1-1.6zm-8.5-3.1l1.2 1.3.6-1.5zm10.8 2.9l1.1.5.1-1.1zm-5.4-1.3l.7-.8-.9-.2zm3.6 7.5l-.5-.8-.5.7zm-4.6 1.7l-.5 1.1 1 .1zm1.2-5.4l.8.6.2-.9zm-7.4 3.6l.8-.6-.7-.4zm10.4-4.1l-1.2-.2.2 1.1zm5.5-.2l-.4 1 .9-.1zm-5.4-6.1l.7.5.3-.9zm2.6.3l1.6.8.1-1.5zm-.1 1.4l1.6 2.3 1.2-2.2zm7.4 6.4l1.3 1.7.9-1.6zm-10-7.6l-.3 2.6 2.3-.7zm4.8 3.2l1.2 1.3.6-1.4zm1.5-1.3l1.1 1.3.7-1.4zm-12.3 4.1l-.6 1.1 1 .1zm-.7-1.6l-1-.3.2.9z"/><path d="M223.8 113l.7.7.2-.9zm5.7-6.1l.6.8.4-.9zm5.4.6l3-2.3-3-1.7zm-3.4-2.5l3.1-2.3-2.9-1.7zm-3-2.2l1.8-2.4-2.6-.6zm9.6 4.4l-1.1 1.7 1.9.3z"/><path d="M236.9 109.4l3.5-1.5-2.4-2.5zm-12.2-7.4l1-2.4-2.4.1zm3.8 5.5h-1.7l.5 1.4zm-16.9 4.5l1.6-.8-1.2-1z"/><path d="M211 107.8l1.6-.7-1.2-1.1zm-.1 3.4l1.3 1.7.9-1.6zm1.1-7l1.1 1.7 1-1.5zm4-2.4l.6 1.9 1.4-1.2z"/><path d="M206.6 105.8l1.5 1.4.6-1.8zm3.3 3l1.7 1.3.4-1.7zm.9-2.4l1.1 1.8 1-1.6zm-5.8 3l1.6 1.4.5-1.9zm17.5-4.2l.4 2.1 1.5-1.1zm-1.5.3l-2.1.1.8 1.6z"/><path d="M222.5 104.6l-2.1-.4.5 1.8zm-8.8 4.2l1.7.2-.5-1.5zm-3.4 4.6l1.5-.8-1.2-1zm7.4-6.6l1.1-.4-.7-.8zm-4.8 2.8l-.1-1.1-.8.5zm7.6 2.9l-.9-.2.1.9zm-4.4 4.2l.4 1.1.8-.6zm-.6-4.5l1.1-.1-.5-.8zm-5 7.4l.1-1-.9.1zm13.8-1.5l-.1 1.2 1-.4zm1.1-5.2l1 .3-.2-.8zm-7.5 6.1l.5-.9-.8-.1zm3.4-9.1l1.9 1 .1-2zm-2.4 3.5l.7-.8-.8-.2z"/><path d="M223.2 108.7l-1.1.4.8.7zm4.6-3.2l.2 1.1.7-.5zm-7.8-2.4l1 .2-.3-.9zm16.2 11.1l-1.1.5.9.6zm4.3-3.6l.3.9.7-.6zm-8.1-1.7l1 .1-.4-.9zm-13.6.7l-.7.9.9.4zm2.9-4.9l.6 1 .4-.9zm-8.1 1.3l.9-.3-.6-.6zm1-2.2l1.8.1-.5-1.4zm.5 1.4l2.4 1.3.2-2.4zm-2 .8l1.4 2.3 1.4-2zm7.9-4.7l.1 2.7 2.1-1zm-2.4 3.4l1.7.1-.5-1.5zm-.6-2.4l1.7.6-.2-1.6zm-7.1 11.5l.3 1.1.8-.6z"/><path d="M210.9 112.9l-.9.4.8.6zm1.9 3.7l1-.1-.4-.8zm7.5-14.6l-.4.9h.9zm-5.9 7l1.1.2-.3-.8zm19.2-1.2l.4 2 1.6-1.1zm-11.8-5.2l.9-2.9-2.7.3zm-3.5.6l.3-2.9-2.8.9zm-3.7 1.3l.4-3.1-3.2 1.5zM211 106l.3-2.9-2.8 1.5zm-3.7 2.3l-.5-2.6-2.4 1.6zm11.5 1.2l-.9.5.8.5zm.4 1.8l-1.4 1.1 1.4.6z"/><path d="M221.4 110.4l-.9.4.6.5zm-2.2-1.2l-.9.3.6.6zm-16.4 6.6l1.5-.8-1.1-1zm.1-3.8l1.7-.7-1.2-1zm-5.3 1.2l.3 1 .7-.7zm6.6 2.1l1.5 1.4.6-1.7zm-3.4-4.6l1.6 1.4.5-1.8zm.3 1.8l1.6 1.3.5-1.7z"/><path d="M204.3 110.8l1.4 1.3.6-1.7zm-6.5 4.4l1.5 1.3.5-1.9zm1.3-1.8l1.6 1.3.5-1.7zm3.4 3.7l1.6-.7-1.2-1zm9.8-7l1-.7-.8-.6zm-6.5 3.2l-.2-1-.7.6zm8.1 1.6h-1l.3.8zm-.8 5.1l.5 1 .7-.8zm-3.7-4.3l1-.2-.6-.7zm-1.3 8.2l-.1-1-.7.4zm-.7-5.8l.5 1.1.6-.8zm-2.3-.9l-.7.7.8.3zm5.3 3.8l1.1-.2-.6-.7zm-5.9-10.8l-.5-2.6-2.5 1.9zm-3.2 2.6l-.3-2.7-2.5 2.1zM189.6 129l1.5-.8-1.2-.9zm-1.3-2.5l1.6-1-1.3-.8zm-2.9 2l1.6-.7-1.3-1.1zm1.7-.2l1.5-.8-1.2-1zm3.9-1.7l1.7 1.3.4-1.8z"/><path d="M189.4 122.6l1.6 1.2.4-1.7zm2-3.1l1.7 1.1.3-1.7zm-4.3 7.9l-.9-2.6-1.7 1.6zm-1.1 1.9l1.7 1.2.3-1.7zm3.2-4.7l1.7 1.2.4-1.8zm-5.6 6.4l1.4 1.4.6-1.7zm15.3-14.3l1.5 1.4.6-1.8zm-2 1.9l-1.8 1.1 1.5 1.1zm1.2-2.3l-1.8 1.1 1.6.9zm-4.8 7l1.7-.7-1.2-1zm-7.2 9.3l1.6-.6-1.1-1.2zm-2.1-2.3l1.6-.9-1.3-.9zm15.8-10.9l.8-.8-.9-.5zm-3.8 4.2l-.4-.9-.7.6z"/><path d="M204.5 123.7l-1.1.2.5.7zm-4-4.9l2.1-.5-1.2-1.6zm1.2 6.4l-.1-1-.7.4zm3.2-2.9l-.5 1.1h1.1zm1.4-5.5l.7.6.3-.8zm-7.4 3.6l.8-.6-.8-.5zm11.8-1.1l-.3 1.2 1-.1zm2.5-5.2l.9.5.1-.9zm-8.8 4.6l.7-.8-.9-.2zm-12.1 2.7l1.5-.8-1.2-1z"/><path d="M192.8 121.4l2.7.2-.8-2.3zm-1.7 2.2l1.9 1.9.9-2.3zm6.8-9.3l2 1.8.8-2.3zm-2.6 5.3l1.6-.8-1.3-1.1zm-.9-1.9l1.6-.7-1.2-1zm-4 14.4l-.8.6.8.5z"/><path d="M195.7 116.2l.3 1 .7-.6zm-3.4 9h1l-.4-.7zm5.6-8.9l-.8-3-2.3 2.5zm-2.1 3.5l-1.6-3.5-2.3 2.6zm-2.9 2.8l-1.4-3.5-2.4 2.5zm-2.9 3l-1.3-3.7-2.6 2.9zm-3.9 4.3l-1.6-3.5-2.3 2.4zm12.9-7.5l-.3 1 .8-.1z"/><path d="M196 120.7l-.6 1.6 1.5-.2zm-1.4 4.6l-.5 1h1zm6.9-4l-.4 1 .8-.1zm-2.5.6l-.3.9h.8zm-2 1.2l-1.7.7 1.1 1.2zm-12.2 8.8l-1.7 1 1.3 1zm3.1 2.9l-.5 1 1 .1zm1.6-4.8l.7.7.2-.9zm-7 2.8l.8-.5-.6-.4zm16.2-1l-.5.9 1 .1zm1.5-4.8l.7.6.3-.8zm-7.1 2.6l.8-.5-.6-.4z"/><path d="M190.3 136.4l-.3 1 1-.1zm.5-5.1l.8.4v-.8zm-6.1 4.2l.6-.6-.8-.4zm-2.8-3.7l.2.9.6-.5zm2.1.2l-1.6-3.1-2.2 2.2z"/></g><g xmlns="http://www.w3.org/2000/svg" fill="#cc7a5e"><path d="M188.86 255.33c-.03-.22 0-.35.23-.5.2-.06.53-.03.7.2.2.64.4 2 1.28 1.8.9-.23.73-1.42.73-1.42.04-.2-.02-.28.18-.24.2-.06.62-.2.68.01.08.12.32.88 1.03.6.45-.22.33-1.26-.1-3.88-.76-3.6-1-10.05-1.07-10.26.04-.2.17-.38.4-.54.2-.06.32.2.48.43 1.12 2.06 2.62 3.9 3.5 4.17.1.02.6-.1.55-.42.02-.1-.12-.43-.25-.86-.2-.55-2.7-9.65-5.04-11.9-2.27-2.04-2.74-3.35-3.34-5.1-.44-1.5.05-9.14.76-19.7l.18-2.1c1.48-22.5 2.7-29.07 2.7-29.17a.46.46 0 0 1 .58-.4.46.46 0 0 1 .4.58c-.02.1-1.12 6.6-2.7 29.07l-.18 2.1c-.47 7.54-1.26 17.97-.8 19.37.52 1.62.93 2.7 3.02 4.62 2.5 2.5 5.15 11.82 5.26 12.35.2.55.58 2.13-.25 2.5-.4.17-.76.27-1.23.08-.85-.36-2.2-1.93-3.07-3.2.1 2.25.43 5.98.92 8.3.56 3.05.7 4.4-.33 5.04-.58.4-1.56-.14-1.66-.16-.2.47-.5 1.07-1.28 1.33-2.05.12-2.22-2.33-2.27-2.7z"/><path d="M192.3 256.12c-.2-.04-.38-.17-.44-.4l-2.1-10.24c-.04-.3.1-.5.42-.63.3-.04.5.1.63.42l2.1 10.24c.04.3-.1.5-.42.63l-.2-.03z"/></g><path xmlns="http://www.w3.org/2000/svg" d="M189.4 221.1l-12.1 2.8c-.6.2-.8.7-.8 1.2l1.3 5.1c.2.6.7.8 1.2.8l11.7-2.5c.6-.2.8-.7.8-1.2l-1-5.3c.1-.6-.6-.9-1.1-.9z" fill="#ffcce1"/><path xmlns="http://www.w3.org/2000/svg" d="M189.26 255.93c-.2-.05-.37-.2-.42-.4l-2.1-10.03c-.03-.3.1-.5.35-.64.3-.03.5.1.64.35l2.1 10.03c.03.3-.1.5-.35.64-.12.08-.22.06-.22.06z" fill="#cc7a5e"/></g></svg>